ZinzinVF.ufo
<glyph name="exclam" format="1">
  <advance width="230"/>
  <unicode hex="0021"/>
  <outline>
    <contour>
      <point x="115" y="-4" type="curve" smooth="yes"/>
      <point x="140" y="-4"/>
      <point x="160" y="16"/>
      <point x="160" y="41" type="curve" smooth="yes"/>
      <point x="160" y="66"/>
      <point x="140" y="86"/>
      <point x="115" y="86" type="curve" smooth="yes"/>
      <point x="90" y="86"/>
      <point x="70" y="66"/>
      <point x="70" y="41" type="curve" smooth="yes"/>
      <point x="70" y="16"/>
      <point x="90" y="-4"/>
    </contour>
    <contour>
      <point x="140" y="403" type="line"/>
      <point x="152" y="702" type="line"/>
      <point x="77" y="702" type="line"/>
      <point x="89" y="403" type="line"/>
      <point x="109" y="170" type="line"/>
      <point x="119" y="170" type="line"/>
    </contour>
  </outline>
</glyph>
<glyph name="numbersign" format="1">
  <advance width="536"/>
  <unicode hex="0023"/>
  <outline>
    <contour>
      <point x="89" y="0" type="line"/>
      <point x="121" y="0" type="line"/>
      <point x="244" y="700" type="line"/>
      <point x="212" y="700" type="line"/>
    </contour>
    <contour>
      <point x="289" y="0" type="line"/>
      <point x="321" y="0" type="line"/>
      <point x="444" y="700" type="line"/>
      <point x="412" y="700" type="line"/>
    </contour>
    <contour>
      <point x="64" y="497" type="line"/>
      <point x="64" y="467" type="line"/>
      <point x="516" y="467" type="line"/>
      <point x="516" y="497" type="line"/>
    </contour>
    <contour>
      <point x="20" y="247" type="line"/>
      <point x="20" y="217" type="line"/>
      <point x="472" y="217" type="line"/>
      <point x="472" y="247" type="line"/>
    </contour>
  </outline>
</glyph>
<glyph name="dollar" format="1">
  <advance width="469"/>
  <unicode hex="0024"/>
  <outline>
    <contour>
      <point x="237" y="714" type="curve" smooth="yes"/>
      <point x="147" y="714"/>
      <point x="72" y="636"/>
      <point x="72" y="546" type="curve" smooth="yes"/>
      <point x="72" y="505"/>
      <point x="85" y="459"/>
      <point x="126" y="421" type="curve" smooth="yes"/>
      <point x="318" y="243" type="line" smooth="yes"/>
      <point x="346" y="217"/>
      <point x="357" y="185"/>
      <point x="357" y="149" type="curve" smooth="yes"/>
      <point x="357" y="73"/>
      <point x="297" y="19"/>
      <point x="223" y="16" type="curve" smooth="yes"/>
      <point x="129" y="13"/>
      <point x="70" y="76"/>
      <point x="79" y="180" type="curve"/>
      <point x="70" y="180" type="line"/>
      <point x="55" y="135"/>
      <point x="51" y="72"/>
      <point x="59" y="41" type="curve"/>
      <point x="96" y="3"/>
      <point x="169" y="-14"/>
      <point x="233" y="-14" type="curve" smooth="yes"/>
      <point x="342" y="-13"/>
      <point x="415" y="62"/>
      <point x="415" y="174" type="curve" smooth="yes"/>
      <point x="415" y="216"/>
      <point x="404" y="259"/>
      <point x="365" y="295" type="curve" smooth="yes"/>
      <point x="169" y="477" type="line" smooth="yes"/>
      <point x="139" y="505"/>
      <point x="128" y="540"/>
      <point x="128" y="570" type="curve" smooth="yes"/>
      <point x="128" y="630"/>
      <point x="181" y="684"/>
      <point x="247" y="684" type="curve" smooth="yes"/>
      <point x="317" y="684"/>
      <point x="364" y="645"/>
      <point x="364" y="581" type="curve"/>
      <point x="373" y="581" type="line"/>
      <point x="373" y="692" type="line"/>
      <point x="349" y="702"/>
      <point x="300" y="714"/>
    </contour>
    <contour>
      <point x="297" y="704" type="line"/>
      <point x="297" y="683" type="line"/>
      <point x="373" y="683" type="line"/>
      <point x="373" y="704" type="line"/>
    </contour>
    <contour>
      <point x="181" y="-99" type="line"/>
      <point x="211" y="-102" type="line"/>
      <point x="279" y="787" type="line"/>
      <point x="249" y="788" type="line"/>
    </contour>
  </outline>
</glyph>
<glyph name="ampersand" format="1">
  <advance width="646"/>
  <unicode hex="0026"/>
  <outline>
    <contour>
      <point x="314" y="714" type="curve" smooth="yes"/>
      <point x="191" y="714"/>
      <point x="113" y="641"/>
      <point x="113" y="543" type="curve" smooth="yes"/>
      <point x="113" y="427"/>
      <point x="179" y="360"/>
      <point x="295" y="253" type="curve" smooth="yes"/>
      <point x="353" y="200"/>
      <point x="416" y="146"/>
      <point x="517" y="63" type="curve" smooth="yes"/>
      <point x="603" y="-8"/>
      <point x="697" y="0"/>
      <point x="736" y="0" type="curve"/>
      <point x="736" y="10" type="line"/>
      <point x="660" y="16"/>
      <point x="591" y="87"/>
      <point x="528" y="139" type="curve" smooth="yes"/>
      <point x="441" y="211"/>
      <point x="384" y="264"/>
      <point x="341" y="303" type="curve" smooth="yes"/>
      <point x="238" y="395"/>
      <point x="182" y="459"/>
      <point x="182" y="543" type="curve" smooth="yes"/>
      <point x="182" y="624"/>
      <point x="238" y="684"/>
      <point x="314" y="684" type="curve" smooth="yes"/>
      <point x="399" y="684"/>
      <point x="456" y="626"/>
      <point x="456" y="530" type="curve"/>
      <point x="466" y="530" type="line"/>
      <point x="484" y="643" type="line"/>
      <point x="448" y="686"/>
      <point x="381" y="714"/>
    </contour>
    <contour>
      <point x="590" y="329" type="curve" smooth="yes"/>
      <point x="585" y="356"/>
      <point x="598" y="375"/>
      <point x="627" y="375" type="curve" smooth="yes"/>
      <point x="642" y="375" type="line"/>
      <point x="642" y="385" type="line"/>
      <point x="443" y="385" type="line"/>
      <point x="443" y="375" type="line"/>
      <point x="458" y="375" type="line" smooth="yes"/>
      <point x="490" y="375"/>
      <point x="509" y="356"/>
      <point x="523" y="329" type="curve" smooth="yes"/>
      <point x="582" y="210"/>
      <point x="507" y="20"/>
      <point x="336" y="20" type="curve" smooth="yes"/>
      <point x="187" y="20"/>
      <point x="103" y="104"/>
      <point x="103" y="224" type="curve" smooth="yes"/>
      <point x="103" y="289"/>
      <point x="124" y="350"/>
      <point x="177" y="393" type="curve"/>
      <point x="163" y="415" type="line"/>
      <point x="87" y="380"/>
      <point x="30" y="321"/>
      <point x="30" y="224" type="curve" smooth="yes"/>
      <point x="30" y="75"/>
      <point x="141" y="-10"/>
      <point x="336" y="-10" type="curve" smooth="yes"/>
      <point x="527" y="-10"/>
      <point x="626" y="147"/>
    </contour>
  </outline>
</glyph>
<glyph name="quotesingle" format="1">
  <advance width="170"/>
  <unicode hex="0027"/>
  <outline>
    <contour>
      <point x="51" y="700" type="line"/>
      <point x="56" y="627"/>
      <point x="54" y="593"/>
      <point x="35" y="505" type="curve"/>
      <point x="44" y="500" type="line"/>
      <point x="107" y="535"/>
      <point x="122" y="662"/>
      <point x="121" y="714" type="curve"/>
    </contour>
  </outline>
</glyph>
<glyph name="parenright" format="1">
  <advance width="338"/>
  <unicode hex="0029"/>
  <outline>
    <contour>
      <point x="30" y="724" type="line"/>
      <point x="111" y="685"/>
      <point x="181" y="524"/>
      <point x="179" y="336" type="curve" smooth="yes"/>
      <point x="176" y="139"/>
      <point x="106" y="-39"/>
      <point x="32" y="-91" type="curve"/>
      <point x="38" y="-100" type="line"/>
      <point x="148" y="-42"/>
      <point x="247" y="139"/>
      <point x="249" y="334" type="curve" smooth="yes"/>
      <point x="250" y="526"/>
      <point x="151" y="692"/>
      <point x="36" y="732" type="curve"/>
    </contour>
  </outline>
</glyph>
<glyph name="plus" format="1">
  <advance width="481"/>
  <unicode hex="002B"/>
  <outline>
    <contour>
      <point x="40" y="287" type="line"/>
      <point x="442" y="287" type="line"/>
      <point x="442" y="332" type="line"/>
      <point x="40" y="332" type="line"/>
    </contour>
    <contour>
      <point x="263" y="109" type="line"/>
      <point x="263" y="511" type="line"/>
      <point x="218" y="511" type="line"/>
      <point x="218" y="109" type="line"/>
    </contour>
  </outline>
</glyph>
<glyph name="hyphen" format="1">
  <advance width="380"/>
  <unicode hex="002D"/>
  <outline>
    <contour>
      <point x="34" y="292" type="line"/>
      <point x="40" y="269" type="line"/>
      <point x="340" y="269" type="line"/>
      <point x="346" y="292" type="line"/>
      <point x="340" y="314" type="line"/>
      <point x="40" y="314" type="line"/>
    </contour>
  </outline>
</glyph>
<glyph name="period" format="1">
  <advance width="179"/>
  <unicode hex="002E"/>
  <outline>
    <contour>
      <point x="90" y="-4" type="curve" smooth="yes"/>
      <point x="115" y="-4"/>
      <point x="135" y="16"/>
      <point x="135" y="41" type="curve" smooth="yes"/>
      <point x="135" y="66"/>
      <point x="115" y="86"/>
      <point x="90" y="86" type="curve" smooth="yes"/>
      <point x="65" y="86"/>
      <point x="45" y="66"/>
      <point x="45" y="41" type="curve" smooth="yes"/>
      <point x="45" y="16"/>
      <point x="65" y="-4"/>
    </contour>
  </outline>
</glyph>
<glyph name="zero" format="1">
  <advance width="596"/>
  <unicode hex="0030"/>
  <outline>
    <contour>
      <point x="298" y="714" type="curve" smooth="yes"/>
      <point x="152" y="714"/>
      <point x="63" y="576"/>
      <point x="63" y="350" type="curve" smooth="yes"/>
      <point x="63" y="124"/>
      <point x="152" y="-14"/>
      <point x="298" y="-14" type="curve" smooth="yes"/>
      <point x="444" y="-14"/>
      <point x="533" y="124"/>
      <point x="533" y="350" type="curve" smooth="yes"/>
      <point x="533" y="576"/>
      <point x="444" y="714"/>
    </contour>
    <contour>
      <point x="298" y="684" type="curve" smooth="yes"/>
      <point x="400" y="684"/>
      <point x="463" y="557"/>
      <point x="463" y="350" type="curve" smooth="yes"/>
      <point x="463" y="143"/>
      <point x="400" y="16"/>
      <point x="298" y="16" type="curve"/>
      <point x="196" y="16"/>
      <point x="133" y="143"/>
      <point x="133" y="350" type="curve" smooth="yes"/>
      <point x="133" y="557"/>
      <point x="196" y="684"/>
    </contour>
  </outline>
</glyph>
<glyph name="one" format="1">
  <advance width="344"/>
  <unicode hex="0031"/>
  <outline>
    <contour>
      <point x="67" y="0" type="line"/>
      <point x="68" y="10" type="line"/>
      <point x="89" y="10" type="line" smooth="yes"/>
      <point x="119" y="10"/>
      <point x="144" y="34"/>
      <point x="144" y="64" type="curve" smooth="yes"/>
      <point x="144" y="591" type="line"/>
      <point x="144" y="623"/>
      <point x="128" y="640"/>
      <point x="98" y="640" type="curve"/>
      <point x="60" y="640" type="line"/>
      <point x="60" y="650" type="line"/>
      <point x="112" y="657"/>
      <point x="159" y="668"/>
      <point x="198" y="714" type="curve"/>
      <point x="208" y="714" type="line"/>
      <point x="208" y="63" type="line" smooth="yes"/>
      <point x="208" y="34"/>
      <point x="233" y="10"/>
      <point x="263" y="10" type="curve" smooth="yes"/>
      <point x="284" y="10" type="line"/>
      <point x="284" y="0" type="line"/>
    </contour>
  </outline>
</glyph>
<glyph name="two" format="1">
  <advance width="553"/>
  <unicode hex="0032"/>
  <outline>
    <contour>
      <point x="102" y="536" type="line"/>
      <point x="100" y="631"/>
      <point x="160" y="682"/>
      <point x="253" y="684" type="curve" smooth="yes"/>
      <point x="342" y="686"/>
      <point x="397" y="620"/>
      <point x="397" y="512" type="curve" smooth="yes"/>
      <point x="397" y="358"/>
      <point x="177" y="118"/>
      <point x="60" y="10" type="curve"/>
      <point x="60" y="0" type="line"/>
      <point x="471" y="0" type="line"/>
      <point x="518" y="141" type="line"/>
      <point x="508" y="141" type="line"/>
      <point x="473" y="78"/>
      <point x="451" y="56"/>
      <point x="391" y="56" type="curve"/>
      <point x="161" y="56" type="line"/>
      <point x="260" y="158"/>
      <point x="472" y="345"/>
      <point x="472" y="516" type="curve" smooth="yes"/>
      <point x="472" y="639"/>
      <point x="385" y="714"/>
      <point x="253" y="714" type="curve" smooth="yes"/>
      <point x="189" y="714"/>
      <point x="112" y="687"/>
      <point x="74" y="649" type="curve"/>
      <point x="92" y="536" type="line"/>
    </contour>
  </outline>
</glyph>
<glyph name="three" format="1">
  <advance width="503"/>
  <unicode hex="0033"/>
  <outline>
    <contour>
      <point x="217" y="712" type="curve" smooth="yes"/>
      <point x="138" y="708"/>
      <point x="93" y="677"/>
      <point x="61" y="641" type="curve"/>
      <point x="78" y="548" type="line"/>
      <point x="88" y="548" type="line"/>
      <point x="84" y="627"/>
      <point x="132" y="682"/>
      <point x="215" y="682" type="curve" smooth="yes"/>
      <point x="299" y="682"/>
      <point x="335" y="624"/>
      <point x="338" y="565" type="curve" smooth="yes"/>
      <point x="344" y="456"/>
      <point x="244" y="394"/>
      <point x="155" y="394" type="curve"/>
      <point x="153" y="384" type="line"/>
      <point x="272" y="384"/>
      <point x="358" y="332"/>
      <point x="358" y="219" type="curve" smooth="yes"/>
      <point x="358" y="75"/>
      <point x="221" y="-26"/>
      <point x="62" y="-22" type="curve"/>
      <point x="60" y="-32" type="line"/>
      <point x="261" y="-67"/>
      <point x="433" y="60"/>
      <point x="433" y="216" type="curve" smooth="yes"/>
      <point x="433" y="336"/>
      <point x="333" y="400"/>
      <point x="245" y="399" type="curve"/>
      <point x="318" y="379"/>
      <point x="414" y="466"/>
      <point x="414" y="563" type="curve" smooth="yes"/>
      <point x="414" y="650"/>
      <point x="338" y="718"/>
    </contour>
  </outline>
</glyph>
<glyph name="four" format="1">
  <advance width="583"/>
  <unicode hex="0034"/>
  <outline>
    <contour>
      <point x="351" y="1" type="line"/>
      <point x="416" y="1" type="line"/>
      <point x="416" y="714" type="line"/>
      <point x="406" y="714" type="line"/>
      <point x="351" y="614" type="line"/>
    </contour>
    <contour>
      <point x="40" y="259" type="line"/>
      <point x="40" y="249" type="line"/>
      <point x="503" y="249" type="line"/>
      <point x="524" y="324" type="line"/>
      <point x="514" y="324" type="line"/>
      <point x="502" y="310"/>
      <point x="496" y="304"/>
      <point x="459" y="304" type="curve"/>
      <point x="115" y="304" type="line"/>
      <point x="416" y="677" type="line"/>
      <point x="406" y="714" type="line"/>
    </contour>
    <contour>
      <point x="351" y="64" type="line"/>
      <point x="351" y="33"/>
      <point x="326" y="10"/>
      <point x="295" y="10" type="curve" smooth="yes"/>
      <point x="285" y="10" type="line"/>
      <point x="284" y="0" type="line"/>
      <point x="482" y="0" type="line"/>
      <point x="482" y="10" type="line"/>
      <point x="471" y="10" type="line" smooth="yes"/>
      <point x="441" y="10"/>
      <point x="416" y="34"/>
      <point x="416" y="64" type="curve"/>
    </contour>
  </outline>
</glyph>
<glyph name="five" format="1">
  <advance width="498"/>
  <unicode hex="0035"/>
  <outline>
    <contour>
      <point x="422" y="729" type="line"/>
      <point x="412" y="729" type="line"/>
      <point x="397" y="699"/>
      <point x="375" y="679"/>
      <point x="333" y="679" type="curve"/>
      <point x="135" y="664" type="line"/>
      <point x="57" y="393" type="line"/>
      <point x="66" y="389" type="line"/>
      <point x="230" y="444"/>
      <point x="357" y="381"/>
      <point x="348" y="246" type="curve" smooth="yes"/>
      <point x="335" y="63"/>
      <point x="136" y="-23"/>
      <point x="52" y="-21" type="curve"/>
      <point x="50" y="-31" type="line"/>
      <point x="133" y="-46"/>
      <point x="413" y="11"/>
      <point x="423" y="254" type="curve" smooth="yes"/>
      <point x="430" y="427"/>
      <point x="275" y="493"/>
      <point x="108" y="451" type="curve"/>
      <point x="154" y="609" type="line"/>
      <point x="389" y="624" type="line"/>
    </contour>
  </outline>
</glyph>
<glyph name="six" format="1">
  <advance width="560"/>
  <unicode hex="0036"/>
  <outline>
    <contour>
      <point x="401" y="734" type="line"/>
      <point x="172" y="707"/>
      <point x="68" y="479"/>
      <point x="65" y="272" type="curve" smooth="yes"/>
      <point x="63" y="90"/>
      <point x="160" y="-17"/>
      <point x="295" y="-15" type="curve" smooth="yes"/>
      <point x="431" y="-13"/>
      <point x="512" y="100"/>
      <point x="505" y="216" type="curve" smooth="yes"/>
      <point x="490" y="437"/>
      <point x="283" y="449"/>
      <point x="179" y="324" type="curve"/>
      <point x="185" y="315" type="line"/>
      <point x="211" y="349"/>
      <point x="253" y="367"/>
      <point x="295" y="367" type="curve" smooth="yes"/>
      <point x="381" y="367"/>
      <point x="428" y="302"/>
      <point x="430" y="202" type="curve" smooth="yes"/>
      <point x="431" y="106"/>
      <point x="390" y="15"/>
      <point x="295" y="15" type="curve" smooth="yes"/>
      <point x="192" y="15"/>
      <point x="140" y="121"/>
      <point x="140" y="272" type="curve" smooth="yes"/>
      <point x="140" y="479"/>
      <point x="215" y="666"/>
      <point x="405" y="727" type="curve"/>
    </contour>
  </outline>
</glyph>
<glyph name="seven" format="1">
  <advance width="502"/>
  <unicode hex="0037"/>
  <outline>
    <contour>
      <point x="63" y="698" type="line"/>
      <point x="463" y="700" type="line"/>
      <point x="355" y="410" type="line" smooth="yes"/>
      <point x="330" y="344"/>
      <point x="247" y="110"/>
      <point x="221" y="0" type="curve"/>
      <point x="151" y="0" type="line"/>
      <point x="191" y="102"/>
      <point x="272" y="304"/>
      <point x="314" y="414" type="curve" smooth="yes"/>
      <point x="402" y="645" type="line"/>
      <point x="120" y="645" type="line"/>
      <point x="80" y="645"/>
      <point x="60" y="625"/>
      <point x="45" y="585" type="curve"/>
      <point x="35" y="585" type="line"/>
    </contour>
  </outline>
</glyph>
<glyph name="eight" format="1">
  <advance width="552"/>
  <unicode hex="0038"/>
  <outline>
    <contour>
      <point x="96" y="547" type="curve" smooth="yes"/>
      <point x="96" y="447"/>
      <point x="171" y="378"/>
      <point x="271" y="326" type="curve" smooth="yes"/>
      <point x="334" y="293"/>
      <point x="417" y="264"/>
      <point x="417" y="161" type="curve" smooth="yes"/>
      <point x="417" y="88"/>
      <point x="374" y="16"/>
      <point x="277" y="16" type="curve" smooth="yes"/>
      <point x="188" y="16"/>
      <point x="134" y="76"/>
      <point x="135" y="171" type="curve" smooth="yes"/>
      <point x="136" y="261"/>
      <point x="187" y="319"/>
      <point x="248" y="356" type="curve"/>
      <point x="224" y="375" type="line"/>
      <point x="119" y="331"/>
      <point x="64" y="271"/>
      <point x="60" y="181" type="curve" smooth="yes"/>
      <point x="55" y="64"/>
      <point x="144" y="-14"/>
      <point x="276" y="-14" type="curve" smooth="yes"/>
      <point x="407" y="-14"/>
      <point x="492" y="63"/>
      <point x="492" y="175" type="curve" smooth="yes"/>
      <point x="492" y="321"/>
      <point x="348" y="360"/>
      <point x="274" y="403" type="curve" smooth="yes"/>
      <point x="208" y="441"/>
      <point x="171" y="493"/>
      <point x="171" y="560" type="curve" smooth="yes"/>
      <point x="171" y="627"/>
      <point x="209" y="684"/>
      <point x="277" y="684" type="curve" smooth="yes"/>
      <point x="341" y="684"/>
      <point x="381" y="633"/>
      <point x="381" y="553" type="curve" smooth="yes"/>
      <point x="381" y="491"/>
      <point x="356" y="429"/>
      <point x="281" y="380" type="curve"/>
      <point x="308" y="365" type="line"/>
      <point x="403" y="389"/>
      <point x="456" y="457"/>
      <point x="456" y="545" type="curve" smooth="yes"/>
      <point x="456" y="653"/>
      <point x="379" y="716"/>
      <point x="276" y="714" type="curve" smooth="yes"/>
      <point x="164" y="712"/>
      <point x="96" y="641"/>
    </contour>
  </outline>
</glyph>
<glyph name="nine" format="1">
  <advance width="560"/>
  <unicode hex="0039"/>
  <outline>
    <contour>
      <point x="159" y="-37" type="line"/>
      <point x="390" y="-17"/>
      <point x="495" y="225"/>
      <point x="495" y="424" type="curve" smooth="yes"/>
      <point x="495" y="609"/>
      <point x="404" y="714"/>
      <point x="266" y="712" type="curve" smooth="yes"/>
      <point x="143" y="710"/>
      <point x="52" y="622"/>
      <point x="56" y="481" type="curve" smooth="yes"/>
      <point x="62" y="268"/>
      <point x="281" y="246"/>
      <point x="381" y="373" type="curve"/>
      <point x="376" y="382" type="line"/>
      <point x="349" y="347"/>
      <point x="307" y="331"/>
      <point x="266" y="330" type="curve" smooth="yes"/>
      <point x="179" y="328"/>
      <point x="133" y="398"/>
      <point x="131" y="495" type="curve" smooth="yes"/>
      <point x="129" y="595"/>
      <point x="171" y="682"/>
      <point x="266" y="682" type="curve" smooth="yes"/>
      <point x="369" y="682"/>
      <point x="420" y="580"/>
      <point x="420" y="418" type="curve" smooth="yes"/>
      <point x="420" y="219"/>
      <point x="344" y="23"/>
      <point x="156" y="-30" type="curve"/>
    </contour>
  </outline>
</glyph>
<glyph name="less" format="1">
  <advance width="481"/>
  <unicode hex="003C"/>
  <outline>
    <contour>
      <point x="442" y="523" type="line"/>
      <point x="40" y="332" type="line"/>
      <point x="40" y="287" type="line"/>
      <point x="442" y="96" type="line"/>
      <point x="442" y="144" type="line"/>
      <point x="56" y="331" type="line"/>
      <point x="55" y="288" type="line"/>
      <point x="442" y="475" type="line"/>
    </contour>
  </outline>
</glyph>
<glyph name="greater" format="1">
  <advance width="481"/>
  <unicode hex="003E"/>
  <outline>
    <contour>
      <point x="427" y="288" type="line"/>
      <point x="426" y="331" type="line"/>
      <point x="40" y="144" type="line"/>
      <point x="40" y="96" type="line"/>
      <point x="442" y="287" type="line"/>
      <point x="442" y="332" type="line"/>
      <point x="40" y="523" type="line"/>
      <point x="40" y="475" type="line"/>
    </contour>
  </outline>
</glyph>
<glyph name="at" format="1">
  <advance width="977"/>
  <unicode hex="0040"/>
  <outline>
    <contour>
      <point x="617" y="688" type="curve" smooth="yes"/>
      <point x="377" y="719"/>
      <point x="176" y="597"/>
      <point x="91" y="395" type="curve" smooth="yes"/>
      <point x="16" y="218"/>
      <point x="82" y="72"/>
      <point x="191" y="73" type="curve" smooth="yes"/>
      <point x="273" y="73"/>
      <point x="332" y="157"/>
      <point x="421" y="284" type="curve" smooth="yes"/>
      <point x="565" y="489" type="line"/>
      <point x="579" y="541" type="line"/>
      <point x="572" y="541" type="line"/>
      <point x="564" y="521"/>
      <point x="517" y="464"/>
      <point x="517" y="464" type="curve"/>
      <point x="390" y="291" type="line" smooth="yes"/>
      <point x="339" y="221"/>
      <point x="266" y="102"/>
      <point x="191" y="103" type="curve" smooth="yes"/>
      <point x="106" y="104"/>
      <point x="91" y="245"/>
      <point x="156" y="390" type="curve" smooth="yes"/>
      <point x="241" y="582"/>
      <point x="416" y="684"/>
      <point x="617" y="658" type="curve" smooth="yes"/>
      <point x="779" y="636"/>
      <point x="873" y="499"/>
      <point x="850" y="309" type="curve" smooth="yes"/>
      <point x="813" y="5"/>
      <point x="543" y="-191"/>
      <point x="190" y="-53" type="curve"/>
      <point x="194" y="-63" type="line"/>
      <point x="626" y="-246"/>
      <point x="882" y="23"/>
      <point x="915" y="309" type="curve" smooth="yes"/>
      <point x="937" y="503"/>
      <point x="818" y="661"/>
    </contour>
    <contour>
      <point x="373" y="257" type="line"/>
      <point x="365" y="234" type="line"/>
      <point x="554" y="234" type="line"/>
      <point x="561" y="257" type="line"/>
    </contour>
    <contour>
      <point x="555" y="137" type="line"/>
      <point x="556" y="107"/>
      <point x="530" y="90"/>
      <point x="514" y="90" type="curve" smooth="yes"/>
      <point x="507" y="90" type="line"/>
      <point x="506" y="83" type="line"/>
      <point x="664" y="83" type="line"/>
      <point x="665" y="90" type="line"/>
      <point x="665" y="90"/>
      <point x="659" y="90"/>
      <point x="660" y="90" type="curve" smooth="yes"/>
      <point x="640" y="90"/>
      <point x="623" y="104"/>
      <point x="620" y="137" type="curve"/>
    </contour>
    <contour>
      <point x="537" y="470" type="line"/>
      <point x="558" y="87" type="line"/>
      <point x="625" y="87" type="line"/>
      <point x="579" y="541" type="line"/>
    </contour>
  </outline>
</glyph>
<glyph name="B" format="1">
  <advance width="586"/>
  <unicode hex="0042"/>
  <outline>
    <contour>
      <point x="153" y="700" type="line" smooth="yes"/>
      <point x="153" y="700"/>
      <point x="163" y="669"/>
      <point x="163" y="668" type="curve"/>
      <point x="255" y="668" type="line"/>
      <point x="350" y="668"/>
      <point x="401" y="616"/>
      <point x="401" y="526" type="curve" smooth="yes"/>
      <point x="401" y="397"/>
      <point x="297" y="379"/>
      <point x="236" y="379" type="curve"/>
      <point x="236" y="370" type="line"/>
      <point x="333" y="370"/>
      <point x="462" y="345"/>
      <point x="462" y="195" type="curve" smooth="yes"/>
      <point x="462" y="94"/>
      <point x="403" y="36"/>
      <point x="300" y="36" type="curve"/>
      <point x="194" y="36" type="line"/>
      <point x="194" y="36"/>
      <point x="193" y="0"/>
      <point x="193" y="0" type="curve"/>
      <point x="304" y="0" type="line" smooth="yes"/>
      <point x="453" y="0"/>
      <point x="537" y="75"/>
      <point x="537" y="188" type="curve" smooth="yes"/>
      <point x="537" y="287"/>
      <point x="472" y="365"/>
      <point x="366" y="381" type="curve"/>
      <point x="422" y="397"/>
      <point x="476" y="448"/>
      <point x="476" y="533" type="curve" smooth="yes"/>
      <point x="476" y="633"/>
      <point x="399" y="700"/>
      <point x="259" y="700" type="curve" smooth="yes"/>
    </contour>
    <contour>
      <point x="137" y="700" type="line"/>
      <point x="137" y="0" type="line"/>
      <point x="202" y="0" type="line"/>
      <point x="202" y="700" type="line"/>
    </contour>
    <contour>
      <point x="137" y="73" type="line"/>
      <point x="137" y="38"/>
      <point x="108" y="10"/>
      <point x="73" y="10" type="curve" smooth="yes"/>
      <point x="71" y="10"/>
      <point x="63" y="10"/>
      <point x="61" y="10" type="curve"/>
      <point x="60" y="0" type="line"/>
      <point x="140" y="0" type="line"/>
      <point x="140" y="73" type="line"/>
    </contour>
    <contour>
      <point x="140" y="700" type="line"/>
      <point x="60" y="700" type="line"/>
      <point x="61" y="690" type="line"/>
      <point x="63" y="690"/>
      <point x="71" y="690"/>
      <point x="73" y="690" type="curve" smooth="yes"/>
      <point x="108" y="690"/>
      <point x="137" y="662"/>
      <point x="137" y="627" type="curve"/>
      <point x="140" y="627" type="line"/>
    </contour>
  </outline>
</glyph>
<glyph name="D" format="1">
  <advance width="807"/>
  <unicode hex="0044"/>
  <outline>
    <contour>
      <point x="174" y="700" type="line"/>
      <point x="174" y="670" type="line"/>
      <point x="175" y="670"/>
      <point x="399" y="670"/>
      <point x="399" y="670" type="curve" smooth="yes"/>
      <point x="569" y="670"/>
      <point x="683" y="542"/>
      <point x="683" y="350" type="curve" smooth="yes"/>
      <point x="683" y="158"/>
      <point x="570" y="30"/>
      <point x="399" y="30" type="curve" smooth="yes"/>
      <point x="399" y="30"/>
      <point x="184" y="30"/>
      <point x="184" y="30" type="curve"/>
      <point x="185" y="0" type="line"/>
      <point x="399" y="0" type="line"/>
      <point x="612" y="0"/>
      <point x="758" y="140"/>
      <point x="758" y="350" type="curve" smooth="yes"/>
      <point x="758" y="560"/>
      <point x="612" y="700"/>
      <point x="399" y="700" type="curve"/>
    </contour>
    <contour>
      <point x="137" y="700" type="line"/>
      <point x="137" y="0" type="line"/>
      <point x="202" y="0" type="line"/>
      <point x="202" y="700" type="line"/>
    </contour>
    <contour>
      <point x="137" y="73" type="line"/>
      <point x="136" y="38"/>
      <point x="108" y="10"/>
      <point x="73" y="10" type="curve" smooth="yes"/>
      <point x="73" y="10"/>
      <point x="60" y="10"/>
      <point x="60" y="10" type="curve"/>
      <point x="60" y="0" type="line"/>
      <point x="140" y="0" type="line"/>
      <point x="140" y="73" type="line"/>
    </contour>
    <contour>
      <point x="140" y="700" type="line"/>
      <point x="60" y="700" type="line"/>
      <point x="61" y="690" type="line"/>
      <point x="61" y="690"/>
      <point x="73" y="690"/>
      <point x="73" y="690" type="curve" smooth="yes"/>
      <point x="108" y="690"/>
      <point x="137" y="662"/>
      <point x="137" y="627" type="curve"/>
      <point x="140" y="627" type="line"/>
    </contour>
    <contour>
      <point x="415" y="350" type="move" name="center"/>
    </contour>
    <contour>
      <point x="399" y="764" type="move" name="top"/>
    </contour>
  </outline>
</glyph>
<glyph name="E" format="1">
  <advance width="577"/>
  <unicode hex="0045"/>
  <outline>
    <contour>
      <point x="137" y="700" type="line"/>
      <point x="137" y="0" type="line"/>
      <point x="202" y="0" type="line"/>
      <point x="202" y="700" type="line"/>
    </contour>
    <contour>
      <point x="199" y="31" type="line"/>
      <point x="199" y="0" type="line"/>
      <point x="472" y="0" type="line"/>
      <point x="472" y="31" type="line"/>
    </contour>
    <contour>
      <point x="199" y="360" type="line"/>
      <point x="199" y="330" type="line"/>
      <point x="429" y="330" type="line"/>
      <point x="429" y="360" type="line"/>
    </contour>
    <contour>
      <point x="199" y="700" type="line"/>
      <point x="199" y="669" type="line"/>
      <point x="472" y="669" type="line"/>
      <point x="472" y="700" type="line"/>
    </contour>
    <contour>
      <point x="523" y="162" type="line"/>
      <point x="492" y="85"/>
      <point x="451" y="31"/>
      <point x="345" y="31" type="curve"/>
      <point x="309" y="0" type="line"/>
      <point x="475" y="0" type="line"/>
      <point x="533" y="162" type="line"/>
    </contour>
    <contour>
      <point x="371" y="332" type="line"/>
      <point x="371" y="330" type="line"/>
      <point x="398" y="330"/>
      <point x="419" y="308"/>
      <point x="419" y="281" type="curve" smooth="yes"/>
      <point x="419" y="266" type="line"/>
      <point x="429" y="266" type="line"/>
      <point x="429" y="332" type="line"/>
    </contour>
    <contour>
      <point x="419" y="424" type="line"/>
      <point x="419" y="410" type="line" smooth="yes"/>
      <point x="419" y="383"/>
      <point x="398" y="361"/>
      <point x="371" y="360" type="curve"/>
      <point x="371" y="358" type="line"/>
      <point x="429" y="358" type="line"/>
      <point x="429" y="424" type="line"/>
    </contour>
    <contour>
      <point x="403" y="672" type="line"/>
      <point x="403" y="670" type="line"/>
      <point x="436" y="669"/>
      <point x="462" y="642"/>
      <point x="462" y="610" type="curve" smooth="yes"/>
      <point x="462" y="592" type="line"/>
      <point x="472" y="592" type="line"/>
      <point x="472" y="672" type="line"/>
    </contour>
    <contour>
      <point x="472" y="718" type="line"/>
      <point x="453" y="710"/>
      <point x="393" y="700"/>
      <point x="350" y="700" type="curve"/>
      <point x="472" y="689" type="line"/>
    </contour>
    <contour>
      <point x="137" y="73" type="line"/>
      <point x="136" y="38"/>
      <point x="108" y="10"/>
      <point x="73" y="10" type="curve" smooth="yes"/>
      <point x="73" y="10"/>
      <point x="60" y="10"/>
      <point x="60" y="10" type="curve"/>
      <point x="60" y="0" type="line"/>
      <point x="140" y="0" type="line"/>
      <point x="140" y="73" type="line"/>
    </contour>
    <contour>
      <point x="140" y="700" type="line"/>
      <point x="60" y="700" type="line"/>
      <point x="61" y="690" type="line"/>
      <point x="61" y="690"/>
      <point x="73" y="690"/>
      <point x="73" y="690" type="curve" smooth="yes"/>
      <point x="108" y="690"/>
      <point x="137" y="662"/>
      <point x="137" y="627" type="curve"/>
      <point x="140" y="627" type="line"/>
    </contour>
    <contour>
      <point x="424" y="3" type="move" name="ogonek"/>
    </contour>
    <contour>
      <point x="288" y="0" type="move" name="bottom"/>
    </contour>
    <contour>
      <point x="298" y="764" type="move" name="top"/>
    </contour>
  </outline>
</glyph>
<glyph name="F" format="1">
  <advance width="541"/>
  <unicode hex="0046"/>
  <outline>
    <contour>
      <point x="137" y="700" type="line"/>
      <point x="137" y="0" type="line"/>
      <point x="202" y="0" type="line"/>
      <point x="202" y="700" type="line"/>
    </contour>
    <contour>
      <point x="199" y="360" type="line"/>
      <point x="199" y="330" type="line"/>
      <point x="429" y="330" type="line"/>
      <point x="429" y="360" type="line"/>
    </contour>
    <contour>
      <point x="199" y="700" type="line"/>
      <point x="199" y="669" type="line"/>
      <point x="472" y="669" type="line"/>
      <point x="472" y="700" type="line"/>
    </contour>
    <contour>
      <point x="371" y="332" type="line"/>
      <point x="371" y="330" type="line"/>
      <point x="398" y="330"/>
      <point x="419" y="308"/>
      <point x="419" y="281" type="curve" smooth="yes"/>
      <point x="419" y="266" type="line"/>
      <point x="429" y="266" type="line"/>
      <point x="429" y="332" type="line"/>
    </contour>
    <contour>
      <point x="419" y="424" type="line"/>
      <point x="419" y="410" type="line" smooth="yes"/>
      <point x="419" y="383"/>
      <point x="398" y="361"/>
      <point x="371" y="360" type="curve"/>
      <point x="371" y="358" type="line"/>
      <point x="429" y="358" type="line"/>
      <point x="429" y="424" type="line"/>
    </contour>
    <contour>
      <point x="413" y="672" type="line"/>
      <point x="413" y="669" type="line"/>
      <point x="440" y="669"/>
      <point x="462" y="647"/>
      <point x="462" y="620" type="curve" smooth="yes"/>
      <point x="462" y="605" type="line"/>
      <point x="472" y="605" type="line"/>
      <point x="472" y="672" type="line"/>
    </contour>
    <contour>
      <point x="472" y="718" type="line"/>
      <point x="453" y="710"/>
      <point x="393" y="700"/>
      <point x="350" y="700" type="curve"/>
      <point x="472" y="689" type="line"/>
    </contour>
    <contour>
      <point x="137" y="73" type="line"/>
      <point x="136" y="38"/>
      <point x="108" y="10"/>
      <point x="73" y="10" type="curve" smooth="yes"/>
      <point x="73" y="10"/>
      <point x="60" y="10"/>
      <point x="60" y="10" type="curve"/>
      <point x="60" y="0" type="line"/>
      <point x="140" y="0" type="line"/>
      <point x="140" y="73" type="line"/>
    </contour>
    <contour>
      <point x="140" y="700" type="line"/>
      <point x="60" y="700" type="line"/>
      <point x="61" y="690" type="line"/>
      <point x="61" y="690"/>
      <point x="73" y="690"/>
      <point x="73" y="690" type="curve" smooth="yes"/>
      <point x="108" y="690"/>
      <point x="137" y="662"/>
      <point x="137" y="627" type="curve"/>
      <point x="140" y="627" type="line"/>
    </contour>
    <contour>
      <point x="199" y="0" type="line"/>
      <point x="279" y="0" type="line"/>
      <point x="279" y="10" type="line"/>
      <point x="278" y="10"/>
      <point x="266" y="10"/>
      <point x="266" y="10" type="curve" smooth="yes"/>
      <point x="231" y="10"/>
      <point x="203" y="38"/>
      <point x="202" y="73" type="curve"/>
      <point x="199" y="73" type="line"/>
    </contour>
  </outline>
</glyph>
<glyph name="H" format="1">
  <advance width="813"/>
  <unicode hex="0048"/>
  <outline>
    <contour>
      <point x="611" y="700" type="line"/>
      <point x="611" y="0" type="line"/>
      <point x="676" y="0" type="line"/>
      <point x="676" y="700" type="line"/>
    </contour>
    <contour>
      <point x="137" y="700" type="line"/>
      <point x="137" y="0" type="line"/>
      <point x="202" y="0" type="line"/>
      <point x="202" y="700" type="line"/>
    </contour>
    <contour>
      <point x="192" y="361" type="line"/>
      <point x="192" y="331" type="line"/>
      <point x="620" y="331" type="line"/>
      <point x="620" y="361" type="line"/>
    </contour>
    <contour>
      <point x="137" y="73" type="line"/>
      <point x="136" y="38"/>
      <point x="108" y="10"/>
      <point x="73" y="10" type="curve" smooth="yes"/>
      <point x="73" y="10"/>
      <point x="60" y="10"/>
      <point x="60" y="10" type="curve"/>
      <point x="60" y="0" type="line"/>
      <point x="140" y="0" type="line"/>
      <point x="140" y="73" type="line"/>
    </contour>
    <contour>
      <point x="140" y="700" type="line"/>
      <point x="60" y="700" type="line"/>
      <point x="60" y="690" type="line"/>
      <point x="60" y="690"/>
      <point x="73" y="690"/>
      <point x="73" y="690" type="curve" smooth="yes"/>
      <point x="108" y="690"/>
      <point x="136" y="662"/>
      <point x="137" y="627" type="curve"/>
      <point x="140" y="627" type="line"/>
    </contour>
    <contour>
      <point x="199" y="0" type="line"/>
      <point x="279" y="0" type="line"/>
      <point x="279" y="10" type="line"/>
      <point x="278" y="10"/>
      <point x="266" y="10"/>
      <point x="266" y="10" type="curve" smooth="yes"/>
      <point x="231" y="10"/>
      <point x="203" y="38"/>
      <point x="202" y="73" type="curve"/>
      <point x="199" y="73" type="line"/>
    </contour>
    <contour>
      <point x="202" y="627" type="line"/>
      <point x="203" y="662"/>
      <point x="231" y="690"/>
      <point x="266" y="690" type="curve" smooth="yes"/>
      <point x="266" y="690"/>
      <point x="278" y="690"/>
      <point x="279" y="690" type="curve"/>
      <point x="279" y="700" type="line"/>
      <point x="199" y="700" type="line"/>
      <point x="199" y="627" type="line"/>
    </contour>
    <contour>
      <point x="611" y="73" type="line"/>
      <point x="611" y="38"/>
      <point x="582" y="10"/>
      <point x="547" y="10" type="curve" smooth="yes"/>
      <point x="547" y="10"/>
      <point x="535" y="10"/>
      <point x="534" y="10" type="curve"/>
      <point x="534" y="0" type="line"/>
      <point x="614" y="0" type="line"/>
      <point x="614" y="73" type="line"/>
    </contour>
    <contour>
      <point x="614" y="700" type="line"/>
      <point x="534" y="700" type="line"/>
      <point x="534" y="690" type="line"/>
      <point x="535" y="690"/>
      <point x="547" y="690"/>
      <point x="547" y="690" type="curve" smooth="yes"/>
      <point x="582" y="690"/>
      <point x="611" y="662"/>
      <point x="611" y="627" type="curve"/>
      <point x="614" y="627" type="line"/>
    </contour>
    <contour>
      <point x="673" y="0" type="line"/>
      <point x="753" y="0" type="line"/>
      <point x="753" y="10" type="line"/>
      <point x="753" y="10"/>
      <point x="740" y="10"/>
      <point x="740" y="10" type="curve" smooth="yes"/>
      <point x="705" y="10"/>
      <point x="677" y="38"/>
      <point x="676" y="73" type="curve"/>
      <point x="673" y="73" type="line"/>
    </contour>
    <contour>
      <point x="676" y="627" type="line"/>
      <point x="677" y="662"/>
      <point x="705" y="690"/>
      <point x="740" y="690" type="curve" smooth="yes"/>
      <point x="740" y="690"/>
      <point x="753" y="690"/>
      <point x="753" y="690" type="curve"/>
      <point x="753" y="700" type="line"/>
      <point x="673" y="700" type="line"/>
      <point x="673" y="627" type="line"/>
    </contour>
    <contour>
      <point x="406" y="350" type="move" name="center"/>
    </contour>
    <contour>
      <point x="406" y="700" type="move" name="top"/>
    </contour>
  </outline>
</glyph>
<glyph name="I" format="1">
  <advance width="338"/>
  <unicode hex="0049"/>
  <outline>
    <contour>
      <point x="137" y="700" type="line"/>
      <point x="137" y="0" type="line"/>
      <point x="202" y="0" type="line"/>
      <point x="202" y="700" type="line"/>
    </contour>
    <contour>
      <point x="137" y="73" type="line"/>
      <point x="136" y="38"/>
      <point x="108" y="10"/>
      <point x="73" y="10" type="curve" smooth="yes"/>
      <point x="73" y="10"/>
      <point x="60" y="10"/>
      <point x="60" y="10" type="curve"/>
      <point x="60" y="0" type="line"/>
      <point x="140" y="0" type="line"/>
      <point x="140" y="73" type="line"/>
    </contour>
    <contour>
      <point x="140" y="700" type="line"/>
      <point x="60" y="700" type="line"/>
      <point x="60" y="690" type="line"/>
      <point x="60" y="690"/>
      <point x="73" y="690"/>
      <point x="73" y="690" type="curve" smooth="yes"/>
      <point x="108" y="690"/>
      <point x="136" y="662"/>
      <point x="137" y="627" type="curve"/>
      <point x="140" y="627" type="line"/>
    </contour>
    <contour>
      <point x="199" y="0" type="line"/>
      <point x="279" y="0" type="line"/>
      <point x="279" y="10" type="line"/>
      <point x="278" y="10"/>
      <point x="266" y="10"/>
      <point x="266" y="10" type="curve" smooth="yes"/>
      <point x="231" y="10"/>
      <point x="203" y="38"/>
      <point x="202" y="73" type="curve"/>
      <point x="199" y="73" type="line"/>
    </contour>
    <contour>
      <point x="202" y="627" type="line"/>
      <point x="203" y="662"/>
      <point x="231" y="690"/>
      <point x="266" y="690" type="curve" smooth="yes"/>
      <point x="266" y="690"/>
      <point x="278" y="690"/>
      <point x="279" y="690" type="curve"/>
      <point x="279" y="700" type="line"/>
      <point x="199" y="700" type="line"/>
      <point x="199" y="627" type="line"/>
    </contour>
    <contour>
      <point x="138" y="3" type="move" name="ogonek"/>
    </contour>
    <contour>
      <point x="169" y="764" type="move" name="top"/>
    </contour>
  </outline>
</glyph>
<glyph name="K" format="1">
  <advance width="657"/>
  <unicode hex="004B"/>
  <outline>
    <contour>
      <point x="234" y="348" type="line"/>
      <point x="234" y="348"/>
      <point x="475" y="57"/>
      <point x="475" y="57" type="curve"/>
      <point x="521" y="3"/>
      <point x="597" y="0"/>
      <point x="625" y="0" type="curve" smooth="yes"/>
      <point x="668" y="0" type="line"/>
      <point x="668" y="10" type="line"/>
      <point x="627" y="11"/>
      <point x="601" y="24"/>
      <point x="573" y="51" type="curve"/>
      <point x="289" y="385" type="line"/>
    </contour>
    <contour>
      <point x="509" y="693" type="line"/>
      <point x="234" y="348" type="line"/>
      <point x="279" y="348" type="line"/>
      <point x="578" y="693" type="line"/>
    </contour>
    <contour>
      <point x="643" y="700" type="line"/>
      <point x="436" y="700" type="line"/>
      <point x="436" y="691" type="line"/>
      <point x="446" y="691" type="line"/>
      <point x="473" y="691"/>
      <point x="487" y="666"/>
      <point x="470" y="644" type="curve"/>
      <point x="533" y="642" type="line"/>
      <point x="559" y="672"/>
      <point x="599" y="691"/>
      <point x="643" y="691" type="curve" smooth="yes"/>
      <point x="647" y="691" type="line"/>
      <point x="647" y="700" type="line"/>
    </contour>
    <contour>
      <point x="137" y="700" type="line"/>
      <point x="137" y="0" type="line"/>
      <point x="202" y="0" type="line"/>
      <point x="202" y="700" type="line"/>
    </contour>
    <contour>
      <point x="137" y="73" type="line"/>
      <point x="136" y="38"/>
      <point x="108" y="10"/>
      <point x="73" y="10" type="curve" smooth="yes"/>
      <point x="73" y="10"/>
      <point x="60" y="10"/>
      <point x="60" y="10" type="curve"/>
      <point x="60" y="0" type="line"/>
      <point x="140" y="0" type="line"/>
      <point x="140" y="73" type="line"/>
    </contour>
    <contour>
      <point x="140" y="700" type="line"/>
      <point x="60" y="700" type="line"/>
      <point x="60" y="690" type="line"/>
      <point x="60" y="690"/>
      <point x="73" y="690"/>
      <point x="73" y="690" type="curve" smooth="yes"/>
      <point x="108" y="690"/>
      <point x="136" y="662"/>
      <point x="137" y="627" type="curve"/>
      <point x="140" y="627" type="line"/>
    </contour>
    <contour>
      <point x="199" y="0" type="line"/>
      <point x="279" y="0" type="line"/>
      <point x="279" y="10" type="line"/>
      <point x="278" y="10"/>
      <point x="266" y="10"/>
      <point x="266" y="10" type="curve" smooth="yes"/>
      <point x="231" y="10"/>
      <point x="203" y="38"/>
      <point x="202" y="73" type="curve"/>
      <point x="199" y="73" type="line"/>
    </contour>
    <contour>
      <point x="202" y="627" type="line"/>
      <point x="203" y="662"/>
      <point x="231" y="690"/>
      <point x="266" y="690" type="curve" smooth="yes"/>
      <point x="266" y="690"/>
      <point x="278" y="690"/>
      <point x="279" y="690" type="curve"/>
      <point x="279" y="700" type="line"/>
      <point x="199" y="700" type="line"/>
      <point x="199" y="627" type="line"/>
    </contour>
    <contour>
      <point x="369" y="750" type="move" name="top"/>
    </contour>
    <contour>
      <point x="386" y="-64" type="move" name="bottom"/>
    </contour>
  </outline>
</glyph>
<glyph name="M" format="1">
  <advance width="931"/>
  <unicode hex="004D"/>
  <outline>
    <contour>
      <point x="440" y="49" type="line"/>
      <point x="454" y="-14" type="line"/>
      <point x="464" y="-14" type="line"/>
      <point x="470" y="27"/>
      <point x="498" y="88"/>
      <point x="498" y="88" type="curve"/>
      <point x="749" y="647" type="line"/>
      <point x="741" y="714" type="line"/>
    </contour>
    <contour>
      <point x="104" y="73" type="line"/>
      <point x="99" y="33"/>
      <point x="67" y="10"/>
      <point x="31" y="10" type="curve" smooth="yes"/>
      <point x="31" y="10"/>
      <point x="16" y="10"/>
      <point x="15" y="10" type="curve"/>
      <point x="15" y="0" type="line"/>
      <point x="126" y="0" type="line"/>
      <point x="126" y="73" type="line"/>
    </contour>
    <contour>
      <point x="148" y="57" type="line"/>
      <point x="148" y="0" type="line"/>
      <point x="209" y="0" type="line"/>
      <point x="209" y="9" type="line"/>
      <point x="194" y="9" type="line" smooth="yes"/>
      <point x="172" y="9"/>
      <point x="155" y="31"/>
      <point x="155" y="52" type="curve" smooth="yes"/>
      <point x="155" y="54"/>
      <point x="155" y="55"/>
      <point x="155" y="57" type="curve"/>
    </contour>
    <contour>
      <point x="96" y="0" type="line"/>
      <point x="150" y="0" type="line"/>
      <point x="209" y="655" type="line"/>
      <point x="189" y="714" type="line"/>
      <point x="179" y="714" type="line"/>
    </contour>
    <contour>
      <point x="170" y="602" type="line"/>
      <point x="454" y="-14" type="line"/>
      <point x="477" y="91" type="line"/>
      <point x="189" y="714" type="line"/>
    </contour>
    <contour>
      <point x="741" y="714" type="line"/>
      <point x="703" y="606" type="line"/>
      <point x="758" y="0" type="line"/>
      <point x="836" y="0" type="line"/>
      <point x="750" y="714" type="line"/>
    </contour>
    <contour>
      <point x="806" y="0" type="line"/>
      <point x="916" y="0" type="line"/>
      <point x="916" y="10" type="line"/>
      <point x="916" y="10"/>
      <point x="900" y="10"/>
      <point x="900" y="10" type="curve" smooth="yes"/>
      <point x="865" y="10"/>
      <point x="833" y="33"/>
      <point x="827" y="73" type="curve"/>
      <point x="806" y="73" type="line"/>
    </contour>
    <contour>
      <point x="753" y="57" type="line"/>
      <point x="753" y="55"/>
      <point x="753" y="54"/>
      <point x="753" y="52" type="curve" smooth="yes"/>
      <point x="753" y="31"/>
      <point x="736" y="9"/>
      <point x="714" y="9" type="curve" smooth="yes"/>
      <point x="699" y="9" type="line"/>
      <point x="699" y="0" type="line"/>
      <point x="760" y="0" type="line"/>
      <point x="760" y="57" type="line"/>
    </contour>
  </outline>
</glyph>
<glyph name="N" format="1">
  <advance width="841"/>
  <unicode hex="004E"/>
  <outline>
    <contour>
      <point x="135" y="605" type="line"/>
      <point x="716" y="-14" type="line"/>
      <point x="707" y="95" type="line"/>
      <point x="126" y="715" type="line"/>
    </contour>
    <contour>
      <point x="125" y="71" type="line"/>
      <point x="125" y="37"/>
      <point x="97" y="10"/>
      <point x="64" y="10" type="curve" smooth="yes"/>
      <point x="63" y="10"/>
      <point x="45" y="10"/>
      <point x="45" y="10" type="curve"/>
      <point x="45" y="0" type="line"/>
      <point x="128" y="0" type="line"/>
      <point x="128" y="71" type="line"/>
    </contour>
    <contour>
      <point x="168" y="71" type="line"/>
      <point x="168" y="0" type="line"/>
      <point x="251" y="0" type="line"/>
      <point x="251" y="10" type="line"/>
      <point x="251" y="10"/>
      <point x="233" y="10"/>
      <point x="232" y="10" type="curve" smooth="yes"/>
      <point x="199" y="10"/>
      <point x="171" y="37"/>
      <point x="171" y="71" type="curve"/>
    </contour>
    <contour>
      <point x="116" y="715" type="line"/>
      <point x="116" y="715"/>
      <point x="125" y="658"/>
      <point x="125" y="590" type="curve" smooth="yes"/>
      <point x="125" y="0" type="line"/>
      <point x="171" y="0" type="line"/>
      <point x="170" y="659" type="line"/>
      <point x="126" y="715" type="line"/>
    </contour>
    <contour>
      <point x="671" y="700" type="line"/>
      <point x="671" y="39" type="line"/>
      <point x="716" y="-14" type="line"/>
      <point x="725" y="-14" type="line" smooth="yes"/>
      <point x="725" y="-14"/>
      <point x="716" y="49"/>
      <point x="716" y="114" type="curve" smooth="yes"/>
      <point x="716" y="700" type="line"/>
    </contour>
    <contour>
      <point x="713" y="700" type="line"/>
      <point x="713" y="629" type="line"/>
      <point x="716" y="629" type="line"/>
      <point x="717" y="663"/>
      <point x="744" y="690"/>
      <point x="778" y="690" type="curve" smooth="yes"/>
      <point x="778" y="690"/>
      <point x="796" y="690"/>
      <point x="796" y="690" type="curve"/>
      <point x="796" y="700" type="line"/>
    </contour>
    <contour>
      <point x="590" y="690" type="line"/>
      <point x="591" y="690"/>
      <point x="609" y="690"/>
      <point x="609" y="690" type="curve" smooth="yes"/>
      <point x="643" y="690"/>
      <point x="670" y="663"/>
      <point x="671" y="629" type="curve"/>
      <point x="673" y="629" type="line"/>
      <point x="673" y="700" type="line"/>
      <point x="590" y="700" type="line"/>
    </contour>
    <contour>
      <point x="425" y="764" type="move" name="top"/>
    </contour>
    <contour>
      <point x="425" y="-64" type="move" name="bottom"/>
    </contour>
  </outline>
</glyph>
<glyph name="O" format="1">
  <advance width="838"/>
  <unicode hex="004F"/>
  <outline>
    <contour>
      <point x="429" y="714" type="curve" smooth="yes"/>
      <point x="217" y="714"/>
      <point x="70" y="568"/>
      <point x="70" y="350" type="curve" smooth="yes"/>
      <point x="70" y="132"/>
      <point x="217" y="-14"/>
      <point x="429" y="-14" type="curve" smooth="yes"/>
      <point x="642" y="-14"/>
      <point x="789" y="132"/>
      <point x="789" y="350" type="curve" smooth="yes"/>
      <point x="789" y="568"/>
      <point x="642" y="714"/>
    </contour>
    <contour>
      <point x="429" y="16" type="curve" smooth="yes"/>
      <point x="260" y="16"/>
      <point x="147" y="150"/>
      <point x="147" y="350" type="curve" smooth="yes"/>
      <point x="147" y="550"/>
      <point x="260" y="684"/>
      <point x="429" y="684" type="curve" smooth="yes"/>
      <point x="599" y="684"/>
      <point x="712" y="550"/>
      <point x="712" y="350" type="curve" smooth="yes"/>
      <point x="712" y="150"/>
      <point x="599" y="16"/>
    </contour>
    <contour>
      <point x="429" y="764" type="move" name="top"/>
    </contour>
  </outline>
</glyph>
<glyph name="P" format="1">
  <advance width="577"/>
  <unicode hex="0050"/>
  <outline>
    <contour>
      <point x="189" y="700" type="line" smooth="yes"/>
      <point x="189" y="700"/>
      <point x="199" y="670"/>
      <point x="199" y="670" type="curve"/>
      <point x="317" y="670" type="line"/>
      <point x="402" y="670"/>
      <point x="450" y="609"/>
      <point x="452" y="517" type="curve" smooth="yes"/>
      <point x="453" y="495"/>
      <point x="450" y="471"/>
      <point x="446" y="457" type="curve" smooth="yes"/>
      <point x="401" y="313"/>
      <point x="236" y="349"/>
      <point x="236" y="349" type="curve"/>
      <point x="236" y="339" type="line"/>
      <point x="362" y="273"/>
      <point x="527" y="354"/>
      <point x="527" y="507" type="curve" smooth="yes"/>
      <point x="527" y="627"/>
      <point x="449" y="700"/>
      <point x="321" y="700" type="curve" smooth="yes"/>
    </contour>
    <contour>
      <point x="137" y="700" type="line"/>
      <point x="137" y="0" type="line"/>
      <point x="202" y="0" type="line"/>
      <point x="202" y="700" type="line"/>
    </contour>
    <contour>
      <point x="137" y="73" type="line"/>
      <point x="136" y="38"/>
      <point x="108" y="10"/>
      <point x="73" y="10" type="curve" smooth="yes"/>
      <point x="73" y="10"/>
      <point x="60" y="10"/>
      <point x="60" y="10" type="curve"/>
      <point x="60" y="0" type="line"/>
      <point x="140" y="0" type="line"/>
      <point x="140" y="73" type="line"/>
    </contour>
    <contour>
      <point x="140" y="700" type="line"/>
      <point x="60" y="700" type="line"/>
      <point x="61" y="690" type="line"/>
      <point x="61" y="690"/>
      <point x="73" y="690"/>
      <point x="73" y="690" type="curve" smooth="yes"/>
      <point x="108" y="690"/>
      <point x="137" y="662"/>
      <point x="137" y="627" type="curve"/>
      <point x="140" y="627" type="line"/>
    </contour>
    <contour>
      <point x="199" y="0" type="line"/>
      <point x="279" y="0" type="line"/>
      <point x="279" y="10" type="line"/>
      <point x="279" y="10"/>
      <point x="266" y="10"/>
      <point x="266" y="10" type="curve" smooth="yes"/>
      <point x="231" y="10"/>
      <point x="203" y="38"/>
      <point x="202" y="73" type="curve"/>
      <point x="199" y="73" type="line"/>
    </contour>
  </outline>
</glyph>
<glyph name="Q" format="1">
  <advance width="837"/>
  <unicode hex="0051"/>
  <outline>
    <contour>
      <point x="408" y="-14" type="line"/>
      <point x="543" y="-38"/>
      <point x="706" y="-141"/>
      <point x="828" y="-194" type="curve" smooth="yes"/>
      <point x="1114" y="-318"/>
      <point x="1304" y="-152"/>
      <point x="1328" y="-89" type="curve"/>
      <point x="1324" y="-84" type="line"/>
      <point x="1201" y="-200"/>
      <point x="986" y="-196"/>
      <point x="836" y="-133" type="curve" smooth="yes"/>
      <point x="637" y="-48"/>
      <point x="479" y="12"/>
      <point x="418" y="12" type="curve"/>
    </contour>
    <contour>
      <point x="419" y="714" type="curve" smooth="yes"/>
      <point x="207" y="714"/>
      <point x="60" y="568"/>
      <point x="60" y="350" type="curve" smooth="yes"/>
      <point x="60" y="132"/>
      <point x="207" y="-14"/>
      <point x="419" y="-14" type="curve"/>
      <point x="629" y="-14"/>
      <point x="777" y="132"/>
      <point x="777" y="350" type="curve" smooth="yes"/>
      <point x="777" y="568"/>
      <point x="631" y="714"/>
    </contour>
    <contour>
      <point x="419" y="16" type="curve" smooth="yes"/>
      <point x="250" y="16"/>
      <point x="135" y="150"/>
      <point x="135" y="350" type="curve" smooth="yes"/>
      <point x="135" y="550"/>
      <point x="249" y="684"/>
      <point x="419" y="684" type="curve" smooth="yes"/>
      <point x="589" y="684"/>
      <point x="702" y="550"/>
      <point x="702" y="350" type="curve" smooth="yes"/>
      <point x="702" y="150"/>
      <point x="589" y="16"/>
    </contour>
  </outline>
</glyph>
<glyph name="S" format="1">
  <advance width="475"/>
  <unicode hex="0053"/>
  <outline>
    <contour>
      <point x="251" y="714" type="curve" smooth="yes"/>
      <point x="137" y="714"/>
      <point x="75" y="629"/>
      <point x="75" y="545" type="curve" smooth="yes"/>
      <point x="75" y="506"/>
      <point x="89" y="458"/>
      <point x="129" y="421" type="curve" smooth="yes"/>
      <point x="321" y="243" type="line" smooth="yes"/>
      <point x="346" y="220"/>
      <point x="360" y="189"/>
      <point x="360" y="150" type="curve" smooth="yes"/>
      <point x="360" y="70"/>
      <point x="299" y="20"/>
      <point x="226" y="16" type="curve" smooth="yes"/>
      <point x="137" y="11"/>
      <point x="72" y="77"/>
      <point x="82" y="180" type="curve"/>
      <point x="73" y="180" type="line"/>
      <point x="58" y="135"/>
      <point x="54" y="72"/>
      <point x="61" y="41" type="curve"/>
      <point x="101" y="0"/>
      <point x="182" y="-14"/>
      <point x="231" y="-14" type="curve" smooth="yes"/>
      <point x="346" y="-14"/>
      <point x="418" y="62"/>
      <point x="418" y="173" type="curve" smooth="yes"/>
      <point x="418" y="213"/>
      <point x="408" y="258"/>
      <point x="368" y="295" type="curve" smooth="yes"/>
      <point x="171" y="477" type="line" smooth="yes"/>
      <point x="140" y="506"/>
      <point x="131" y="543"/>
      <point x="131" y="569" type="curve" smooth="yes"/>
      <point x="131" y="630"/>
      <point x="180" y="684"/>
      <point x="254" y="684" type="curve" smooth="yes"/>
      <point x="316" y="684"/>
      <point x="367" y="645"/>
      <point x="367" y="581" type="curve"/>
      <point x="376" y="581" type="line"/>
      <point x="376" y="692" type="line"/>
      <point x="355" y="702"/>
      <point x="294" y="714"/>
    </contour>
    <contour>
      <point x="300" y="704" type="line"/>
      <point x="300" y="683" type="line"/>
      <point x="376" y="683" type="line"/>
      <point x="376" y="704" type="line"/>
    </contour>
    <contour>
      <point x="239" y="764" type="move" name="top"/>
    </contour>
    <contour>
      <point x="236" y="-12" type="move" name="bottom"/>
    </contour>
  </outline>
</glyph>
<glyph name="T" format="1">
  <advance width="618"/>
  <unicode hex="0054"/>
  <outline>
    <contour>
      <point x="277" y="697" type="line"/>
      <point x="277" y="0" type="line"/>
      <point x="342" y="0" type="line"/>
      <point x="342" y="697" type="line"/>
    </contour>
    <contour>
      <point x="20" y="701" type="line"/>
      <point x="20" y="671" type="line"/>
      <point x="599" y="671" type="line"/>
      <point x="599" y="701" type="line"/>
    </contour>
    <contour>
      <point x="530" y="674" type="line"/>
      <point x="530" y="671" type="line"/>
      <point x="562" y="670"/>
      <point x="589" y="644"/>
      <point x="589" y="611" type="curve" smooth="yes"/>
      <point x="589" y="594" type="line"/>
      <point x="599" y="593" type="line"/>
      <point x="599" y="674" type="line"/>
    </contour>
    <contour>
      <point x="599" y="719" type="line"/>
      <point x="580" y="711"/>
      <point x="520" y="701"/>
      <point x="477" y="701" type="curve"/>
      <point x="599" y="690" type="line"/>
    </contour>
    <contour>
      <point x="277" y="73" type="line"/>
      <point x="276" y="38"/>
      <point x="248" y="10"/>
      <point x="213" y="10" type="curve" smooth="yes"/>
      <point x="213" y="10"/>
      <point x="200" y="10"/>
      <point x="200" y="10" type="curve"/>
      <point x="200" y="0" type="line"/>
      <point x="280" y="0" type="line"/>
      <point x="280" y="73" type="line"/>
    </contour>
    <contour>
      <point x="339" y="0" type="line"/>
      <point x="419" y="0" type="line"/>
      <point x="419" y="10" type="line"/>
      <point x="419" y="10"/>
      <point x="406" y="10"/>
      <point x="406" y="10" type="curve" smooth="yes"/>
      <point x="371" y="10"/>
      <point x="343" y="38"/>
      <point x="342" y="73" type="curve"/>
      <point x="339" y="73" type="line"/>
    </contour>
    <contour>
      <point x="20" y="674" type="line"/>
      <point x="20" y="593" type="line"/>
      <point x="30" y="594" type="line"/>
      <point x="30" y="611" type="line" smooth="yes"/>
      <point x="30" y="644"/>
      <point x="56" y="670"/>
      <point x="89" y="671" type="curve"/>
      <point x="89" y="674" type="line"/>
    </contour>
    <contour>
      <point x="20" y="690" type="line"/>
      <point x="142" y="701" type="line"/>
      <point x="99" y="701"/>
      <point x="39" y="711"/>
      <point x="20" y="719" type="curve"/>
    </contour>
    <contour>
      <point x="309" y="350" type="move" name="center"/>
    </contour>
    <contour>
      <point x="309" y="0" type="move" name="bottom"/>
    </contour>
    <contour>
      <point x="309" y="764" type="move" name="top"/>
    </contour>
  </outline>
</glyph>
<glyph name="U" format="1">
  <advance width="785"/>
  <unicode hex="0055"/>
  <outline>
    <contour>
      <point x="119" y="700" type="line"/>
      <point x="119" y="246" type="line" smooth="yes"/>
      <point x="119" y="90"/>
      <point x="230" y="-14"/>
      <point x="396" y="-14" type="curve" smooth="yes"/>
      <point x="558" y="-14"/>
      <point x="666" y="91"/>
      <point x="666" y="247" type="curve" smooth="yes"/>
      <point x="666" y="700" type="line"/>
      <point x="619" y="700" type="line"/>
      <point x="619" y="247" type="line" smooth="yes"/>
      <point x="619" y="109"/>
      <point x="530" y="17"/>
      <point x="396" y="17" type="curve" smooth="yes"/>
      <point x="269" y="17"/>
      <point x="184" y="115"/>
      <point x="184" y="260" type="curve"/>
      <point x="184" y="700" type="line"/>
    </contour>
    <contour>
      <point x="50" y="700" type="line"/>
      <point x="50" y="690" type="line"/>
      <point x="50" y="690"/>
      <point x="66" y="690"/>
      <point x="66" y="690" type="curve" smooth="yes"/>
      <point x="95" y="690"/>
      <point x="119" y="669"/>
      <point x="119" y="640" type="curve"/>
      <point x="122" y="640" type="line"/>
      <point x="122" y="700" type="line"/>
    </contour>
    <contour>
      <point x="182" y="700" type="line"/>
      <point x="182" y="640" type="line"/>
      <point x="184" y="640" type="line"/>
      <point x="184" y="669"/>
      <point x="208" y="690"/>
      <point x="237" y="690" type="curve" smooth="yes"/>
      <point x="237" y="690"/>
      <point x="253" y="690"/>
      <point x="253" y="690" type="curve"/>
      <point x="253" y="700" type="line"/>
    </contour>
    <contour>
      <point x="550" y="700" type="line"/>
      <point x="550" y="690" type="line"/>
      <point x="550" y="690"/>
      <point x="566" y="690"/>
      <point x="566" y="690" type="curve" smooth="yes"/>
      <point x="595" y="690"/>
      <point x="619" y="669"/>
      <point x="619" y="640" type="curve"/>
      <point x="622" y="640" type="line"/>
      <point x="622" y="700" type="line"/>
    </contour>
    <contour>
      <point x="664" y="700" type="line"/>
      <point x="664" y="640" type="line"/>
      <point x="666" y="640" type="line"/>
      <point x="666" y="669"/>
      <point x="690" y="690"/>
      <point x="719" y="690" type="curve" smooth="yes"/>
      <point x="719" y="690"/>
      <point x="735" y="690"/>
      <point x="735" y="690" type="curve"/>
      <point x="735" y="700" type="line"/>
    </contour>
    <contour>
      <point x="396" y="-7" type="move" name="ogonek"/>
    </contour>
    <contour>
      <point x="401" y="764" type="move" name="top"/>
    </contour>
  </outline>
</glyph>
<glyph name="V" format="1">
  <advance width="740"/>
  <unicode hex="0056"/>
  <outline>
    <contour>
      <point x="387" y="81" type="line"/>
      <point x="142" y="694" type="line"/>
      <point x="57" y="694" type="line"/>
      <point x="367" y="-14" type="line"/>
    </contour>
    <contour>
      <point x="376" y="-14" type="line"/>
      <point x="376" y="8"/>
      <point x="413" y="89"/>
      <point x="413" y="89" type="curve"/>
      <point x="684" y="697" type="line"/>
      <point x="624" y="697" type="line"/>
      <point x="358" y="56" type="line"/>
      <point x="367" y="-14" type="line"/>
    </contour>
    <contour>
      <point x="653" y="627" type="line"/>
      <point x="674" y="672"/>
      <point x="711" y="690"/>
      <point x="741" y="690" type="curve" smooth="yes"/>
      <point x="741" y="690"/>
      <point x="750" y="690"/>
      <point x="750" y="690" type="curve"/>
      <point x="750" y="700" type="line"/>
      <point x="549" y="700" type="line"/>
      <point x="549" y="690" type="line"/>
      <point x="558" y="690" type="line" smooth="yes"/>
      <point x="583" y="690"/>
      <point x="610" y="668"/>
      <point x="596" y="628" type="curve"/>
    </contour>
    <contour>
      <point x="169" y="628" type="line"/>
      <point x="154" y="668"/>
      <point x="181" y="690"/>
      <point x="206" y="690" type="curve" smooth="yes"/>
      <point x="215" y="690" type="line"/>
      <point x="215" y="700" type="line"/>
      <point x="-10" y="700" type="line"/>
      <point x="-10" y="690" type="line"/>
      <point x="-10" y="690"/>
      <point x="-2" y="690"/>
      <point x="-2" y="690" type="curve" smooth="yes"/>
      <point x="29" y="690"/>
      <point x="66" y="672"/>
      <point x="86" y="627" type="curve"/>
    </contour>
  </outline>
</glyph>
<glyph name="W" format="1">
  <advance width="982"/>
  <unicode hex="0057"/>
  <outline>
    <contour>
      <point x="313" y="-12" type="line"/>
      <point x="330" y="97" type="line"/>
      <point x="144" y="694" type="line"/>
      <point x="63" y="694" type="line"/>
    </contour>
    <contour>
      <point x="502" y="716" type="line"/>
      <point x="295" y="77" type="line"/>
      <point x="313" y="-12" type="line"/>
      <point x="322" y="-12" type="line"/>
      <point x="324" y="37"/>
      <point x="343" y="99"/>
      <point x="343" y="99" type="curve"/>
      <point x="519" y="635" type="line"/>
      <point x="511" y="716" type="line"/>
    </contour>
    <contour>
      <point x="477" y="607" type="line"/>
      <point x="699" y="-12" type="line"/>
      <point x="721" y="126" type="line"/>
      <point x="511" y="715" type="line"/>
    </contour>
    <contour>
      <point x="861" y="694" type="line"/>
      <point x="687" y="87" type="line"/>
      <point x="699" y="-12" type="line"/>
      <point x="708" y="-12" type="line"/>
      <point x="710" y="36"/>
      <point x="730" y="99"/>
      <point x="730" y="99" type="curve"/>
      <point x="917" y="694" type="line"/>
    </contour>
    <contour>
      <point x="896" y="628" type="line"/>
      <point x="911" y="672"/>
      <point x="953" y="690"/>
      <point x="984" y="690" type="curve" smooth="yes"/>
      <point x="984" y="690"/>
      <point x="992" y="690"/>
      <point x="992" y="690" type="curve"/>
      <point x="992" y="700" type="line"/>
      <point x="795" y="700" type="line"/>
      <point x="795" y="690" type="line"/>
      <point x="804" y="690" type="line" smooth="yes"/>
      <point x="831" y="690"/>
      <point x="853" y="668"/>
      <point x="842" y="628" type="curve"/>
    </contour>
    <contour>
      <point x="165" y="628" type="line"/>
      <point x="152" y="668"/>
      <point x="178" y="690"/>
      <point x="203" y="690" type="curve" smooth="yes"/>
      <point x="212" y="690" type="line"/>
      <point x="212" y="700" type="line"/>
      <point x="-10" y="700" type="line"/>
      <point x="-10" y="690" type="line"/>
      <point x="-10" y="690"/>
      <point x="-2" y="690"/>
      <point x="-2" y="690" type="curve" smooth="yes"/>
      <point x="29" y="690"/>
      <point x="70" y="672"/>
      <point x="86" y="628" type="curve"/>
    </contour>
    <contour>
      <point x="506" y="764" type="move" name="top"/>
    </contour>
  </outline>
</glyph>
<glyph name="X" format="1">
  <advance width="662"/>
  <unicode hex="0058"/>
  <outline>
    <contour>
      <point x="78" y="700" type="line"/>
      <point x="521" y="1" type="line"/>
      <point x="601" y="1" type="line"/>
      <point x="156" y="700" type="line"/>
    </contour>
    <contour>
      <point x="106" y="69" type="line"/>
      <point x="84" y="38"/>
      <point x="46" y="10"/>
      <point x="4" y="10" type="curve" smooth="yes"/>
      <point x="-10" y="10" type="line"/>
      <point x="-10" y="0" type="line"/>
      <point x="217" y="0" type="line"/>
      <point x="217" y="10" type="line"/>
      <point x="217" y="10"/>
      <point x="204" y="10"/>
      <point x="204" y="10" type="curve" smooth="yes"/>
      <point x="177" y="10"/>
      <point x="151" y="44"/>
      <point x="169" y="72" type="curve"/>
    </contour>
    <contour>
      <point x="60" y="1" type="line"/>
      <point x="124" y="1" type="line"/>
      <point x="332" y="329" type="line"/>
      <point x="309" y="372" type="line"/>
    </contour>
    <contour>
      <point x="476" y="72" type="line"/>
      <point x="493" y="43"/>
      <point x="469" y="10"/>
      <point x="441" y="10" type="curve" smooth="yes"/>
      <point x="441" y="10"/>
      <point x="429" y="10"/>
      <point x="429" y="10" type="curve"/>
      <point x="429" y="0" type="line"/>
      <point x="673" y="0" type="line"/>
      <point x="673" y="10" type="line"/>
      <point x="659" y="10" type="line" smooth="yes"/>
      <point x="617" y="10"/>
      <point x="579" y="37"/>
      <point x="558" y="68" type="curve"/>
    </contour>
    <contour>
      <point x="7" y="700" type="line"/>
      <point x="7" y="690" type="line"/>
      <point x="21" y="690" type="line" smooth="yes"/>
      <point x="63" y="690"/>
      <point x="100" y="662"/>
      <point x="122" y="631" type="curve"/>
      <point x="202" y="628" type="line"/>
      <point x="185" y="656"/>
      <point x="210" y="690"/>
      <point x="237" y="690" type="curve" smooth="yes"/>
      <point x="237" y="690"/>
      <point x="249" y="690"/>
      <point x="249" y="690" type="curve"/>
      <point x="249" y="700" type="line"/>
    </contour>
    <contour>
      <point x="521" y="700" type="line"/>
      <point x="317" y="378" type="line"/>
      <point x="351" y="354" type="line"/>
      <point x="586" y="700" type="line"/>
    </contour>
    <contour>
      <point x="429" y="700" type="line"/>
      <point x="429" y="690" type="line"/>
      <point x="429" y="690"/>
      <point x="441" y="690"/>
      <point x="441" y="690" type="curve" smooth="yes"/>
      <point x="469" y="690"/>
      <point x="492" y="656"/>
      <point x="475" y="628" type="curve"/>
      <point x="539" y="631" type="line"/>
      <point x="561" y="662"/>
      <point x="598" y="690"/>
      <point x="640" y="690" type="curve" smooth="yes"/>
      <point x="654" y="690" type="line"/>
      <point x="654" y="700" type="line"/>
    </contour>
  </outline>
</glyph>
<glyph name="Z" format="1">
  <advance width="651"/>
  <unicode hex="005A"/>
  <outline>
    <contour>
      <point x="580" y="714" type="curve"/>
      <point x="568" y="708"/>
      <point x="514" y="701"/>
      <point x="474" y="701" type="curve"/>
      <point x="74" y="701" type="line"/>
      <point x="74" y="671" type="line"/>
      <point x="480" y="671" type="line"/>
      <point x="60" y="9" type="line"/>
      <point x="60" y="0" type="line"/>
      <point x="134" y="0" type="line"/>
      <point x="580" y="705" type="line"/>
      <point x="580" y="705"/>
      <point x="580" y="714"/>
    </contour>
    <contour>
      <point x="124" y="30" type="line"/>
      <point x="124" y="0" type="line"/>
      <point x="581" y="0" type="line"/>
      <point x="587" y="30" type="line"/>
    </contour>
    <contour>
      <point x="607" y="154" type="line"/>
      <point x="588" y="85"/>
      <point x="545" y="30"/>
      <point x="470" y="30" type="curve"/>
      <point x="459" y="25" type="line"/>
      <point x="452" y="0" type="line"/>
      <point x="584" y="0" type="line"/>
      <point x="617" y="154" type="line"/>
    </contour>
    <contour>
      <point x="143" y="674" type="line"/>
      <point x="74" y="674" type="line"/>
      <point x="74" y="593" type="line"/>
      <point x="84" y="593" type="line"/>
      <point x="84" y="611" type="line" smooth="yes"/>
      <point x="84" y="644"/>
      <point x="110" y="670"/>
      <point x="143" y="671" type="curve"/>
    </contour>
    <contour>
      <point x="74" y="690" type="line"/>
      <point x="196" y="701" type="line"/>
      <point x="153" y="701"/>
      <point x="93" y="711"/>
      <point x="74" y="719" type="curve"/>
    </contour>
    <contour>
      <point x="324" y="764" type="move" name="top"/>
    </contour>
  </outline>
</glyph>
<glyph name="bracketleft" format="1">
  <advance width="332"/>
  <unicode hex="005B"/>
  <outline>
    <contour>
      <point x="120" y="-90" type="line"/>
      <point x="292" y="-90" type="line"/>
      <point x="292" y="-80" type="line"/>
      <point x="185" y="-60" type="line"/>
      <point x="185" y="692" type="line"/>
      <point x="289" y="712" type="line"/>
      <point x="289" y="722" type="line"/>
      <point x="120" y="722" type="line"/>
    </contour>
  </outline>
</glyph>
<glyph name="backslash" format="1">
  <advance width="406"/>
  <unicode hex="005C"/>
  <outline>
    <contour>
      <point x="7" y="697" type="line"/>
      <point x="368" y="-14" type="line"/>
      <point x="399" y="5" type="line"/>
      <point x="38" y="714" type="line"/>
    </contour>
  </outline>
</glyph>
<glyph name="bracketright" format="1">
  <advance width="332"/>
  <unicode hex="005D"/>
  <outline>
    <contour>
      <point x="43" y="722" type="line"/>
      <point x="43" y="712" type="line"/>
      <point x="147" y="692" type="line"/>
      <point x="147" y="-60" type="line"/>
      <point x="40" y="-80" type="line"/>
      <point x="40" y="-90" type="line"/>
      <point x="212" y="-90" type="line"/>
      <point x="212" y="722" type="line"/>
    </contour>
  </outline>
</glyph>
<glyph name="underscore" format="1">
  <advance width="500"/>
  <unicode hex="005F"/>
  <outline>
    <contour>
      <point x="0" y="-90" type="line"/>
      <point x="500" y="-90" type="line"/>
      <point x="500" y="-60" type="line"/>
      <point x="0" y="-60" type="line"/>
    </contour>
  </outline>
</glyph>
<glyph name="grave" format="1">
  <advance width="439"/>
  <unicode hex="0060"/>
  <outline>
    <contour>
      <point x="240" y="753" type="line"/>
      <point x="197" y="800"/>
      <point x="155" y="843"/>
      <point x="113" y="884" type="curve"/>
      <point x="97" y="869"/>
      <point x="82" y="852"/>
      <point x="72" y="831" type="curve"/>
      <point x="125" y="800"/>
      <point x="179" y="771"/>
      <point x="233" y="746" type="curve"/>
    </contour>
    <contour>
      <point x="232" y="745" type="move" name="_top"/>
    </contour>
  </outline>
</glyph>
<glyph name="a" format="1">
  <advance width="663"/>
  <unicode hex="0061"/>
  <outline>
    <contour>
      <point x="319" y="525" type="line"/>
      <point x="532" y="6" type="line"/>
      <point x="611" y="6" type="line"/>
      <point x="336" y="614" type="line"/>
    </contour>
    <contour>
      <point x="84" y="73" type="line"/>
      <point x="63" y="28"/>
      <point x="31" y="10"/>
      <point x="3" y="10" type="curve" smooth="yes"/>
      <point x="3" y="10"/>
      <point x="-5" y="10"/>
      <point x="-5" y="10" type="curve"/>
      <point x="-5" y="0" type="line"/>
      <point x="186" y="0" type="line"/>
      <point x="186" y="10" type="line"/>
      <point x="178" y="10" type="line" smooth="yes"/>
      <point x="154" y="10"/>
      <point x="128" y="33"/>
      <point x="143" y="73" type="curve"/>
    </contour>
    <contour>
      <point x="327" y="614" type="line"/>
      <point x="325" y="588"/>
      <point x="288" y="511"/>
      <point x="288" y="511" type="curve"/>
      <point x="51" y="3" type="line"/>
      <point x="114" y="3" type="line"/>
      <point x="343" y="545" type="line"/>
      <point x="336" y="614" type="line"/>
    </contour>
    <contour>
      <point x="189" y="233" type="line"/>
      <point x="189" y="203" type="line"/>
      <point x="454" y="203" type="line"/>
      <point x="454" y="233" type="line"/>
    </contour>
    <contour>
      <point x="505" y="73" type="line"/>
      <point x="520" y="33"/>
      <point x="494" y="10"/>
      <point x="471" y="10" type="curve" smooth="yes"/>
      <point x="463" y="10" type="line"/>
      <point x="463" y="0" type="line"/>
      <point x="668" y="0" type="line"/>
      <point x="668" y="10" type="line"/>
      <point x="668" y="10"/>
      <point x="660" y="10"/>
      <point x="660" y="10" type="curve" smooth="yes"/>
      <point x="633" y="10"/>
      <point x="601" y="28"/>
      <point x="581" y="73" type="curve"/>
    </contour>
    <contour>
      <point x="460" y="10" type="move" name="ogonek"/>
    </contour>
    <contour>
      <point x="332" y="664" type="move" name="top"/>
    </contour>
  </outline>
</glyph>
<glyph name="b" format="1">
  <advance width="570"/>
  <unicode hex="0062"/>
  <outline>
    <contour>
      <point x="140" y="600" type="line" smooth="yes"/>
      <point x="140" y="600"/>
      <point x="149" y="572"/>
      <point x="149" y="570" type="curve"/>
      <point x="258" y="570" type="line"/>
      <point x="345" y="570"/>
      <point x="397" y="534"/>
      <point x="397" y="450" type="curve" smooth="yes"/>
      <point x="397" y="340"/>
      <point x="294" y="327"/>
      <point x="221" y="327" type="curve"/>
      <point x="221" y="317" type="line"/>
      <point x="329" y="317"/>
      <point x="454" y="296"/>
      <point x="454" y="168" type="curve" smooth="yes"/>
      <point x="454" y="73"/>
      <point x="388" y="30"/>
      <point x="302" y="30" type="curve"/>
      <point x="182" y="30" type="line"/>
      <point x="182" y="30"/>
      <point x="181" y="0"/>
      <point x="181" y="0" type="curve"/>
      <point x="303" y="0" type="line" smooth="yes"/>
      <point x="401" y="0"/>
      <point x="525" y="37"/>
      <point x="525" y="168" type="curve" smooth="yes"/>
      <point x="525" y="248"/>
      <point x="454" y="315"/>
      <point x="357" y="326" type="curve"/>
      <point x="412" y="340"/>
      <point x="467" y="389"/>
      <point x="467" y="450" type="curve" smooth="yes"/>
      <point x="467" y="583"/>
      <point x="331" y="600"/>
      <point x="259" y="600" type="curve" smooth="yes"/>
    </contour>
    <contour>
      <point x="127" y="600" type="line"/>
      <point x="127" y="0" type="line"/>
      <point x="190" y="0" type="line"/>
      <point x="190" y="600" type="line"/>
    </contour>
    <contour>
      <point x="127" y="64" type="line"/>
      <point x="126" y="35"/>
      <point x="101" y="10"/>
      <point x="67" y="10" type="curve" smooth="yes"/>
      <point x="67" y="10"/>
      <point x="55" y="10"/>
      <point x="55" y="10" type="curve"/>
      <point x="55" y="0" type="line"/>
      <point x="130" y="0" type="line"/>
      <point x="130" y="64" type="line"/>
    </contour>
    <contour>
      <point x="130" y="600" type="line"/>
      <point x="55" y="600" type="line"/>
      <point x="55" y="590" type="line"/>
      <point x="55" y="590"/>
      <point x="67" y="590"/>
      <point x="67" y="590" type="curve" smooth="yes"/>
      <point x="101" y="590"/>
      <point x="126" y="568"/>
      <point x="127" y="536" type="curve"/>
      <point x="130" y="536" type="line"/>
    </contour>
  </outline>
</glyph>
<glyph name="c" format="1">
  <advance width="705"/>
  <unicode hex="0063"/>
  <outline>
    <contour>
      <point x="657" y="252" type="line"/>
      <point x="646" y="88"/>
      <point x="529" y="16"/>
      <point x="380" y="17" type="curve" smooth="yes"/>
      <point x="221" y="18"/>
      <point x="122" y="127"/>
      <point x="122" y="300" type="curve" smooth="yes"/>
      <point x="122" y="476"/>
      <point x="221" y="584"/>
      <point x="379" y="584" type="curve" smooth="yes"/>
      <point x="503" y="584"/>
      <point x="597" y="535"/>
      <point x="627" y="412" type="curve"/>
      <point x="636" y="412" type="line"/>
      <point x="614" y="553" type="line"/>
      <point x="552" y="591"/>
      <point x="463" y="614"/>
      <point x="380" y="614" type="curve" smooth="yes"/>
      <point x="177" y="614"/>
      <point x="50" y="495"/>
      <point x="50" y="300" type="curve" smooth="yes"/>
      <point x="50" y="106"/>
      <point x="177" y="-13"/>
      <point x="380" y="-14" type="curve"/>
      <point x="498" y="-14"/>
      <point x="603" y="35"/>
      <point x="655" y="115" type="curve"/>
      <point x="666" y="252" type="line"/>
    </contour>
    <contour>
      <point x="380" y="664" type="move" name="top"/>
    </contour>
    <contour>
      <point x="380" y="-13" type="move" name="bottom"/>
    </contour>
  </outline>
</glyph>
<glyph name="d" format="1">
  <advance width="760"/>
  <unicode hex="0064"/>
  <outline>
    <contour>
      <point x="164" y="600" type="line"/>
      <point x="164" y="570" type="line"/>
      <point x="309" y="570"/>
      <point x="389" y="570"/>
      <point x="389" y="570" type="curve" smooth="yes"/>
      <point x="543" y="570"/>
      <point x="638" y="467"/>
      <point x="638" y="300" type="curve" smooth="yes"/>
      <point x="638" y="133"/>
      <point x="543" y="30"/>
      <point x="389" y="30" type="curve" smooth="yes"/>
      <point x="389" y="30"/>
      <point x="313" y="30"/>
      <point x="174" y="30" type="curve"/>
      <point x="176" y="0" type="line"/>
      <point x="389" y="0" type="line"/>
      <point x="586" y="0"/>
      <point x="710" y="114"/>
      <point x="710" y="300" type="curve" smooth="yes"/>
      <point x="710" y="486"/>
      <point x="586" y="600"/>
      <point x="389" y="600" type="curve"/>
    </contour>
    <contour>
      <point x="125" y="600" type="line"/>
      <point x="125" y="0" type="line"/>
      <point x="190" y="0" type="line"/>
      <point x="190" y="600" type="line"/>
    </contour>
    <contour>
      <point x="125" y="65" type="line"/>
      <point x="124" y="35"/>
      <point x="100" y="10"/>
      <point x="68" y="10" type="curve" smooth="yes"/>
      <point x="68" y="10"/>
      <point x="55" y="10"/>
      <point x="55" y="10" type="curve"/>
      <point x="55" y="0" type="line"/>
      <point x="127" y="0" type="line"/>
      <point x="127" y="65" type="line"/>
    </contour>
    <contour>
      <point x="127" y="600" type="line"/>
      <point x="55" y="600" type="line"/>
      <point x="55" y="590" type="line"/>
      <point x="55" y="590"/>
      <point x="67" y="590"/>
      <point x="67" y="590" type="curve" smooth="yes"/>
      <point x="99" y="590"/>
      <point x="124" y="567"/>
      <point x="125" y="535" type="curve"/>
      <point x="127" y="535" type="line"/>
    </contour>
    <contour>
      <point x="405" y="250" type="move" name="center"/>
    </contour>
    <contour>
      <point x="387" y="665" type="move" name="top"/>
    </contour>
  </outline>
</glyph>
<glyph name="e" format="1">
  <advance width="546"/>
  <unicode hex="0065"/>
  <outline>
    <contour>
      <point x="127" y="600" type="line"/>
      <point x="127" y="0" type="line"/>
      <point x="191" y="0" type="line"/>
      <point x="191" y="600" type="line"/>
    </contour>
    <contour>
      <point x="189" y="31" type="line"/>
      <point x="189" y="0" type="line"/>
      <point x="458" y="0" type="line"/>
      <point x="460" y="31" type="line"/>
    </contour>
    <contour>
      <point x="189" y="315" type="line"/>
      <point x="189" y="285" type="line"/>
      <point x="413" y="285" type="line"/>
      <point x="413" y="315" type="line"/>
    </contour>
    <contour>
      <point x="189" y="600" type="line"/>
      <point x="189" y="569" type="line"/>
      <point x="459" y="569" type="line"/>
      <point x="459" y="600" type="line"/>
    </contour>
    <contour>
      <point x="506" y="143" type="line"/>
      <point x="477" y="78"/>
      <point x="442" y="31"/>
      <point x="343" y="31" type="curve"/>
      <point x="309" y="0" type="line"/>
      <point x="461" y="0" type="line"/>
      <point x="516" y="143" type="line"/>
    </contour>
    <contour>
      <point x="361" y="287" type="line"/>
      <point x="361" y="285" type="line"/>
      <point x="389" y="285"/>
      <point x="402" y="266"/>
      <point x="402" y="243" type="curve" smooth="yes"/>
      <point x="402" y="230" type="line"/>
      <point x="413" y="230" type="line"/>
      <point x="413" y="287" type="line"/>
    </contour>
    <contour>
      <point x="402" y="370" type="line"/>
      <point x="402" y="357" type="line" smooth="yes"/>
      <point x="402" y="334"/>
      <point x="389" y="315"/>
      <point x="361" y="315" type="curve"/>
      <point x="361" y="313" type="line"/>
      <point x="413" y="313" type="line"/>
      <point x="413" y="370" type="line"/>
    </contour>
    <contour>
      <point x="398" y="572" type="line"/>
      <point x="398" y="569" type="line"/>
      <point x="428" y="569"/>
      <point x="448" y="546"/>
      <point x="448" y="518" type="curve" smooth="yes"/>
      <point x="448" y="503" type="line"/>
      <point x="459" y="503" type="line"/>
      <point x="459" y="572" type="line"/>
    </contour>
    <contour>
      <point x="459" y="616" type="line"/>
      <point x="441" y="609"/>
      <point x="386" y="600"/>
      <point x="345" y="600" type="curve"/>
      <point x="459" y="590" type="line"/>
    </contour>
    <contour>
      <point x="127" y="64" type="line"/>
      <point x="126" y="34"/>
      <point x="102" y="10"/>
      <point x="69" y="10" type="curve" smooth="yes"/>
      <point x="69" y="10"/>
      <point x="55" y="10"/>
      <point x="55" y="10" type="curve"/>
      <point x="55" y="0" type="line"/>
      <point x="142" y="0" type="line"/>
      <point x="129" y="64" type="line"/>
    </contour>
    <contour>
      <point x="142" y="600" type="line"/>
      <point x="55" y="600" type="line"/>
      <point x="55" y="590" type="line"/>
      <point x="55" y="590"/>
      <point x="69" y="590"/>
      <point x="69" y="590" type="curve" smooth="yes"/>
      <point x="102" y="590"/>
      <point x="126" y="567"/>
      <point x="127" y="537" type="curve"/>
      <point x="129" y="537" type="line"/>
    </contour>
    <contour>
      <point x="402" y="3" type="move" name="ogonek"/>
    </contour>
    <contour>
      <point x="296" y="0" type="move" name="bottom"/>
    </contour>
    <contour>
      <point x="296" y="664" type="move" name="top"/>
    </contour>
  </outline>
</glyph>
<glyph name="f" format="1">
  <advance width="523"/>
  <unicode hex="0066"/>
  <outline>
    <contour>
      <point x="128" y="600" type="line"/>
      <point x="128" y="0" type="line"/>
      <point x="191" y="0" type="line"/>
      <point x="191" y="600" type="line"/>
    </contour>
    <contour>
      <point x="189" y="315" type="line"/>
      <point x="189" y="285" type="line"/>
      <point x="416" y="285" type="line"/>
      <point x="416" y="315" type="line"/>
    </contour>
    <contour>
      <point x="189" y="600" type="line"/>
      <point x="189" y="569" type="line"/>
      <point x="463" y="569" type="line"/>
      <point x="463" y="600" type="line"/>
    </contour>
    <contour>
      <point x="364" y="287" type="line"/>
      <point x="364" y="285" type="line"/>
      <point x="393" y="285"/>
      <point x="405" y="266"/>
      <point x="405" y="243" type="curve" smooth="yes"/>
      <point x="405" y="230" type="line"/>
      <point x="416" y="230" type="line"/>
      <point x="416" y="287" type="line"/>
    </contour>
    <contour>
      <point x="405" y="370" type="line"/>
      <point x="405" y="357" type="line" smooth="yes"/>
      <point x="405" y="334"/>
      <point x="393" y="315"/>
      <point x="364" y="315" type="curve"/>
      <point x="364" y="313" type="line"/>
      <point x="416" y="313" type="line"/>
      <point x="416" y="370" type="line"/>
    </contour>
    <contour>
      <point x="402" y="572" type="line"/>
      <point x="402" y="569" type="line"/>
      <point x="432" y="569"/>
      <point x="452" y="546"/>
      <point x="452" y="518" type="curve" smooth="yes"/>
      <point x="452" y="503" type="line"/>
      <point x="463" y="503" type="line"/>
      <point x="463" y="572" type="line"/>
    </contour>
    <contour>
      <point x="463" y="616" type="line"/>
      <point x="445" y="609"/>
      <point x="389" y="600"/>
      <point x="348" y="600" type="curve"/>
      <point x="463" y="590" type="line"/>
    </contour>
    <contour>
      <point x="128" y="64" type="line"/>
      <point x="127" y="34"/>
      <point x="102" y="10"/>
      <point x="69" y="10" type="curve" smooth="yes"/>
      <point x="69" y="10"/>
      <point x="55" y="10"/>
      <point x="55" y="10" type="curve"/>
      <point x="55" y="0" type="line"/>
      <point x="143" y="0" type="line"/>
      <point x="130" y="64" type="line"/>
    </contour>
    <contour>
      <point x="143" y="600" type="line"/>
      <point x="55" y="600" type="line"/>
      <point x="55" y="590" type="line"/>
      <point x="55" y="590"/>
      <point x="69" y="590"/>
      <point x="69" y="590" type="curve" smooth="yes"/>
      <point x="102" y="590"/>
      <point x="127" y="567"/>
      <point x="128" y="537" type="curve"/>
      <point x="130" y="537" type="line"/>
    </contour>
    <contour>
      <point x="176" y="0" type="line"/>
      <point x="264" y="0" type="line"/>
      <point x="264" y="10" type="line"/>
      <point x="264" y="10"/>
      <point x="250" y="10"/>
      <point x="250" y="10" type="curve" smooth="yes"/>
      <point x="217" y="10"/>
      <point x="192" y="34"/>
      <point x="191" y="64" type="curve"/>
      <point x="189" y="64" type="line"/>
    </contour>
  </outline>
</glyph>
<glyph name="i" format="1">
  <advance width="336"/>
  <unicode hex="0069"/>
  <outline>
    <contour>
      <point x="137" y="600" type="line"/>
      <point x="137" y="0" type="line"/>
      <point x="200" y="0" type="line"/>
      <point x="200" y="600" type="line"/>
    </contour>
    <contour>
      <point x="137" y="64" type="line"/>
      <point x="136" y="34"/>
      <point x="106" y="10"/>
      <point x="69" y="10" type="curve" smooth="yes"/>
      <point x="69" y="10"/>
      <point x="55" y="10"/>
      <point x="55" y="10" type="curve"/>
      <point x="55" y="0" type="line"/>
      <point x="140" y="0" type="line"/>
      <point x="140" y="64" type="line"/>
    </contour>
    <contour>
      <point x="197" y="0" type="line"/>
      <point x="282" y="0" type="line"/>
      <point x="281" y="10" type="line"/>
      <point x="281" y="10"/>
      <point x="268" y="10"/>
      <point x="268" y="10" type="curve" smooth="yes"/>
      <point x="231" y="10"/>
      <point x="201" y="34"/>
      <point x="200" y="64" type="curve"/>
      <point x="197" y="64" type="line"/>
    </contour>
    <contour>
      <point x="200" y="536" type="line"/>
      <point x="201" y="566"/>
      <point x="231" y="590"/>
      <point x="268" y="590" type="curve" smooth="yes"/>
      <point x="268" y="590"/>
      <point x="281" y="590"/>
      <point x="281" y="590" type="curve"/>
      <point x="282" y="600" type="line"/>
      <point x="197" y="600" type="line"/>
      <point x="197" y="536" type="line"/>
    </contour>
    <contour>
      <point x="140" y="600" type="line"/>
      <point x="55" y="600" type="line"/>
      <point x="55" y="590" type="line"/>
      <point x="55" y="590"/>
      <point x="68" y="590"/>
      <point x="69" y="590" type="curve" smooth="yes"/>
      <point x="106" y="590"/>
      <point x="136" y="566"/>
      <point x="137" y="536" type="curve"/>
      <point x="140" y="536" type="line"/>
    </contour>
  </outline>
</glyph>
<glyph name="j" format="1">
  <advance width="309"/>
  <unicode hex="006A"/>
  <outline>
    <contour>
      <point x="132" y="600" type="line"/>
      <point x="132" y="0" type="line" smooth="yes"/>
      <point x="132" y="-74"/>
      <point x="77" y="-148"/>
      <point x="13" y="-168" type="curve"/>
      <point x="13" y="-178" type="line"/>
      <point x="112" y="-178"/>
      <point x="196" y="-97"/>
      <point x="196" y="0" type="curve" smooth="yes"/>
      <point x="196" y="600" type="line"/>
    </contour>
    <contour>
      <point x="54" y="600" type="line"/>
      <point x="55" y="590" type="line"/>
      <point x="67" y="590" type="line" smooth="yes"/>
      <point x="103" y="590"/>
      <point x="132" y="566"/>
      <point x="133" y="536" type="curve"/>
      <point x="136" y="536" type="line"/>
      <point x="136" y="600" type="line"/>
    </contour>
    <contour>
      <point x="193" y="600" type="line"/>
      <point x="193" y="536" type="line"/>
      <point x="196" y="536" type="line"/>
      <point x="197" y="566"/>
      <point x="226" y="590"/>
      <point x="261" y="590" type="curve" smooth="yes"/>
      <point x="274" y="590" type="line"/>
      <point x="274" y="600" type="line"/>
    </contour>
  </outline>
</glyph>
<glyph name="k" format="1">
  <advance width="624"/>
  <unicode hex="006B"/>
  <outline>
    <contour>
      <point x="225" y="298" type="line"/>
      <point x="225" y="298"/>
      <point x="446" y="57"/>
      <point x="445" y="57" type="curve"/>
      <point x="492" y="3"/>
      <point x="561" y="0"/>
      <point x="592" y="0" type="curve" smooth="yes"/>
      <point x="629" y="0" type="line"/>
      <point x="629" y="10" type="line"/>
      <point x="586" y="11"/>
      <point x="565" y="24"/>
      <point x="542" y="51" type="curve"/>
      <point x="281" y="335" type="line"/>
    </contour>
    <contour>
      <point x="476" y="593" type="line"/>
      <point x="225" y="298" type="line"/>
      <point x="272" y="298" type="line"/>
      <point x="548" y="593" type="line"/>
    </contour>
    <contour>
      <point x="609" y="600" type="line"/>
      <point x="409" y="600" type="line"/>
      <point x="409" y="590" type="line"/>
      <point x="418" y="590" type="line"/>
      <point x="442" y="590"/>
      <point x="455" y="569"/>
      <point x="440" y="551" type="curve"/>
      <point x="508" y="550" type="line"/>
      <point x="531" y="576"/>
      <point x="568" y="590"/>
      <point x="609" y="590" type="curve" smooth="yes"/>
      <point x="613" y="590" type="line"/>
      <point x="613" y="600" type="line"/>
    </contour>
    <contour>
      <point x="126" y="600" type="line"/>
      <point x="126" y="0" type="line"/>
      <point x="190" y="0" type="line"/>
      <point x="190" y="600" type="line"/>
    </contour>
    <contour>
      <point x="126" y="64" type="line"/>
      <point x="125" y="34"/>
      <point x="99" y="10"/>
      <point x="67" y="10" type="curve" smooth="yes"/>
      <point x="67" y="10"/>
      <point x="55" y="10"/>
      <point x="55" y="10" type="curve"/>
      <point x="55" y="0" type="line"/>
      <point x="128" y="0" type="line"/>
      <point x="128" y="64" type="line"/>
    </contour>
    <contour>
      <point x="187" y="0" type="line"/>
      <point x="260" y="0" type="line"/>
      <point x="260" y="10" type="line"/>
      <point x="260" y="10"/>
      <point x="249" y="10"/>
      <point x="249" y="10" type="curve" smooth="yes"/>
      <point x="216" y="10"/>
      <point x="190" y="34"/>
      <point x="190" y="64" type="curve"/>
      <point x="187" y="64" type="line"/>
    </contour>
    <contour>
      <point x="190" y="536" type="line"/>
      <point x="190" y="566"/>
      <point x="216" y="590"/>
      <point x="248" y="590" type="curve" smooth="yes"/>
      <point x="249" y="590"/>
      <point x="260" y="590"/>
      <point x="260" y="590" type="curve"/>
      <point x="260" y="600" type="line"/>
      <point x="187" y="600" type="line"/>
      <point x="187" y="536" type="line"/>
    </contour>
    <contour>
      <point x="128" y="600" type="line"/>
      <point x="55" y="600" type="line"/>
      <point x="55" y="590" type="line"/>
      <point x="55" y="590"/>
      <point x="67" y="590"/>
      <point x="67" y="590" type="curve" smooth="yes"/>
      <point x="99" y="590"/>
      <point x="125" y="566"/>
      <point x="126" y="536" type="curve"/>
      <point x="128" y="536" type="line"/>
    </contour>
    <contour>
      <point x="361" y="-64" type="move" name="bottom"/>
    </contour>
  </outline>
</glyph>
<glyph name="l" format="1">
  <advance width="536"/>
  <unicode hex="006C"/>
  <outline>
    <contour>
      <point x="127" y="600" type="line"/>
      <point x="127" y="0" type="line"/>
      <point x="191" y="0" type="line"/>
      <point x="191" y="600" type="line"/>
    </contour>
    <contour>
      <point x="189" y="31" type="line"/>
      <point x="189" y="0" type="line"/>
      <point x="458" y="0" type="line"/>
      <point x="460" y="31" type="line"/>
    </contour>
    <contour>
      <point x="506" y="143" type="line"/>
      <point x="477" y="78"/>
      <point x="442" y="31"/>
      <point x="343" y="31" type="curve"/>
      <point x="309" y="0" type="line"/>
      <point x="461" y="0" type="line"/>
      <point x="516" y="143" type="line"/>
    </contour>
    <contour>
      <point x="127" y="64" type="line"/>
      <point x="126" y="34"/>
      <point x="102" y="10"/>
      <point x="69" y="10" type="curve" smooth="yes"/>
      <point x="69" y="10"/>
      <point x="55" y="10"/>
      <point x="55" y="10" type="curve"/>
      <point x="55" y="0" type="line"/>
      <point x="142" y="0" type="line"/>
      <point x="129" y="64" type="line"/>
    </contour>
    <contour>
      <point x="191" y="536" type="line"/>
      <point x="191" y="566"/>
      <point x="218" y="590"/>
      <point x="250" y="590" type="curve" smooth="yes"/>
      <point x="250" y="590"/>
      <point x="262" y="590"/>
      <point x="262" y="590" type="curve"/>
      <point x="262" y="600" type="line"/>
      <point x="188" y="600" type="line"/>
      <point x="188" y="536" type="line"/>
    </contour>
    <contour>
      <point x="129" y="600" type="line"/>
      <point x="55" y="600" type="line"/>
      <point x="55" y="590" type="line"/>
      <point x="55" y="590"/>
      <point x="67" y="590"/>
      <point x="67" y="590" type="curve" smooth="yes"/>
      <point x="100" y="590"/>
      <point x="126" y="566"/>
      <point x="127" y="536" type="curve"/>
      <point x="129" y="536" type="line"/>
    </contour>
    <contour>
      <point x="157" y="664" type="move" name="top"/>
    </contour>
    <contour>
      <point x="327" y="-64" type="move" name="bottom"/>
    </contour>
    <contour>
      <point x="361" y="500" type="move" name="topright"/>
    </contour>
  </outline>
</glyph>
<glyph name="m" format="1">
  <advance width="878"/>
  <unicode hex="006D"/>
  <outline>
    <contour>
      <point x="414" y="49" type="line"/>
      <point x="428" y="-14" type="line"/>
      <point x="438" y="-14" type="line"/>
      <point x="445" y="27"/>
      <point x="473" y="88"/>
      <point x="473" y="88" type="curve"/>
      <point x="707" y="549" type="line"/>
      <point x="698" y="614" type="line"/>
    </contour>
    <contour>
      <point x="91" y="67" type="line"/>
      <point x="87" y="31"/>
      <point x="57" y="10"/>
      <point x="23" y="10" type="curve" smooth="yes"/>
      <point x="23" y="10"/>
      <point x="8" y="10"/>
      <point x="8" y="10" type="curve"/>
      <point x="8" y="0" type="line"/>
      <point x="112" y="0" type="line"/>
      <point x="112" y="67" type="line"/>
    </contour>
    <contour>
      <point x="136" y="52" type="line"/>
      <point x="136" y="0" type="line"/>
      <point x="193" y="0" type="line"/>
      <point x="193" y="9" type="line"/>
      <point x="179" y="9" type="line" smooth="yes"/>
      <point x="150" y="10"/>
      <point x="140" y="32"/>
      <point x="142" y="52" type="curve"/>
    </contour>
    <contour>
      <point x="82" y="0" type="line"/>
      <point x="137" y="0" type="line"/>
      <point x="199" y="555" type="line"/>
      <point x="179" y="614" type="line"/>
      <point x="169" y="614" type="line"/>
    </contour>
    <contour>
      <point x="160" y="504" type="line"/>
      <point x="428" y="-14" type="line"/>
      <point x="451" y="91" type="line"/>
      <point x="179" y="614" type="line"/>
    </contour>
    <contour>
      <point x="698" y="614" type="line"/>
      <point x="656" y="503" type="line"/>
      <point x="721" y="0" type="line"/>
      <point x="797" y="0" type="line"/>
      <point x="707" y="614" type="line"/>
    </contour>
    <contour>
      <point x="767" y="0" type="line"/>
      <point x="871" y="0" type="line"/>
      <point x="871" y="10" type="line"/>
      <point x="871" y="10"/>
      <point x="856" y="10"/>
      <point x="856" y="10" type="curve" smooth="yes"/>
      <point x="822" y="10"/>
      <point x="792" y="31"/>
      <point x="787" y="67" type="curve"/>
      <point x="767" y="67" type="line"/>
    </contour>
    <contour>
      <point x="714" y="52" type="line"/>
      <point x="716" y="33"/>
      <point x="708" y="10"/>
      <point x="678" y="9" type="curve" smooth="yes"/>
      <point x="663" y="9" type="line"/>
      <point x="663" y="0" type="line"/>
      <point x="721" y="0" type="line"/>
      <point x="721" y="52" type="line"/>
    </contour>
  </outline>
</glyph>
<glyph name="n" format="1">
  <advance width="779"/>
  <unicode hex="006E"/>
  <outline>
    <contour>
      <point x="118" y="511" type="line"/>
      <point x="672" y="-14" type="line"/>
      <point x="662" y="93" type="line"/>
      <point x="108" y="615" type="line"/>
    </contour>
    <contour>
      <point x="107" y="62" type="line"/>
      <point x="107" y="33"/>
      <point x="82" y="10"/>
      <point x="52" y="10" type="curve" smooth="yes"/>
      <point x="52" y="10"/>
      <point x="35" y="10"/>
      <point x="35" y="10" type="curve"/>
      <point x="35" y="0" type="line"/>
      <point x="110" y="0" type="line"/>
      <point x="110" y="62" type="line"/>
    </contour>
    <contour>
      <point x="149" y="62" type="line"/>
      <point x="149" y="0" type="line"/>
      <point x="224" y="0" type="line"/>
      <point x="224" y="10" type="line"/>
      <point x="224" y="10"/>
      <point x="207" y="10"/>
      <point x="207" y="10" type="curve" smooth="yes"/>
      <point x="177" y="10"/>
      <point x="152" y="33"/>
      <point x="152" y="62" type="curve"/>
    </contour>
    <contour>
      <point x="98" y="615" type="line"/>
      <point x="98" y="615"/>
      <point x="107" y="558"/>
      <point x="107" y="490" type="curve" smooth="yes"/>
      <point x="107" y="0" type="line"/>
      <point x="152" y="0" type="line"/>
      <point x="151" y="559" type="line"/>
      <point x="108" y="615" type="line"/>
    </contour>
    <contour>
      <point x="628" y="600" type="line"/>
      <point x="628" y="39" type="line"/>
      <point x="672" y="-14" type="line"/>
      <point x="681" y="-14" type="line" smooth="yes"/>
      <point x="681" y="-14"/>
      <point x="672" y="49"/>
      <point x="672" y="114" type="curve" smooth="yes"/>
      <point x="672" y="600" type="line"/>
    </contour>
    <contour>
      <point x="672" y="538" type="line"/>
      <point x="672" y="567"/>
      <point x="697" y="590"/>
      <point x="727" y="590" type="curve" smooth="yes"/>
      <point x="727" y="590"/>
      <point x="744" y="590"/>
      <point x="744" y="590" type="curve"/>
      <point x="744" y="600" type="line"/>
      <point x="669" y="600" type="line"/>
      <point x="669" y="538" type="line"/>
    </contour>
    <contour>
      <point x="630" y="538" type="line"/>
      <point x="630" y="600" type="line"/>
      <point x="555" y="600" type="line"/>
      <point x="555" y="590" type="line"/>
      <point x="555" y="590"/>
      <point x="572" y="590"/>
      <point x="572" y="590" type="curve" smooth="yes"/>
      <point x="602" y="590"/>
      <point x="627" y="567"/>
      <point x="628" y="538" type="curve"/>
    </contour>
    <contour>
      <point x="388" y="664" type="move" name="top"/>
    </contour>
    <contour>
      <point x="398" y="-64" type="move" name="bottom"/>
    </contour>
  </outline>
</glyph>
<glyph name="p" format="1">
  <advance width="553"/>
  <unicode hex="0070"/>
  <outline>
    <contour>
      <point x="178" y="600" type="line" smooth="yes"/>
      <point x="178" y="600"/>
      <point x="189" y="570"/>
      <point x="189" y="570" type="curve"/>
      <point x="287" y="570" type="line"/>
      <point x="385" y="570"/>
      <point x="445" y="520"/>
      <point x="445" y="439" type="curve" smooth="yes"/>
      <point x="445" y="422"/>
      <point x="443" y="399"/>
      <point x="438" y="385" type="curve" smooth="yes"/>
      <point x="388" y="242"/>
      <point x="229" y="284"/>
      <point x="229" y="284" type="curve"/>
      <point x="229" y="274" type="line"/>
      <point x="365" y="208"/>
      <point x="517" y="277"/>
      <point x="517" y="429" type="curve" smooth="yes"/>
      <point x="517" y="535"/>
      <point x="428" y="600"/>
      <point x="289" y="600" type="curve" smooth="yes"/>
    </contour>
    <contour>
      <point x="127" y="600" type="line"/>
      <point x="127" y="0" type="line"/>
      <point x="191" y="0" type="line"/>
      <point x="191" y="600" type="line"/>
    </contour>
    <contour>
      <point x="127" y="64" type="line"/>
      <point x="126" y="34"/>
      <point x="101" y="10"/>
      <point x="69" y="10" type="curve" smooth="yes"/>
      <point x="69" y="10"/>
      <point x="55" y="10"/>
      <point x="55" y="10" type="curve"/>
      <point x="55" y="0" type="line"/>
      <point x="142" y="0" type="line"/>
      <point x="129" y="64" type="line"/>
    </contour>
    <contour>
      <point x="142" y="600" type="line"/>
      <point x="55" y="600" type="line"/>
      <point x="55" y="590" type="line"/>
      <point x="55" y="590"/>
      <point x="69" y="590"/>
      <point x="69" y="590" type="curve" smooth="yes"/>
      <point x="101" y="590"/>
      <point x="126" y="567"/>
      <point x="127" y="537" type="curve"/>
      <point x="129" y="537" type="line"/>
    </contour>
    <contour>
      <point x="175" y="0" type="line"/>
      <point x="262" y="0" type="line"/>
      <point x="262" y="10" type="line"/>
      <point x="262" y="10"/>
      <point x="249" y="10"/>
      <point x="248" y="10" type="curve" smooth="yes"/>
      <point x="216" y="10"/>
      <point x="191" y="34"/>
      <point x="190" y="64" type="curve"/>
      <point x="188" y="64" type="line"/>
    </contour>
  </outline>
</glyph>
<glyph name="q" format="1">
  <advance width="777"/>
  <unicode hex="0071"/>
  <outline>
    <contour>
      <point x="381" y="614" type="curve" smooth="yes"/>
      <point x="198" y="614"/>
      <point x="50" y="486"/>
      <point x="50" y="300" type="curve" smooth="yes"/>
      <point x="50" y="114"/>
      <point x="198" y="-14"/>
      <point x="381" y="-14" type="curve" smooth="yes"/>
      <point x="564" y="-14"/>
      <point x="711" y="114"/>
      <point x="711" y="300" type="curve" smooth="yes"/>
      <point x="711" y="486"/>
      <point x="564" y="614"/>
    </contour>
    <contour>
      <point x="381" y="16" type="curve" smooth="yes"/>
      <point x="237" y="16"/>
      <point x="124" y="131"/>
      <point x="124" y="300" type="curve" smooth="yes"/>
      <point x="124" y="469"/>
      <point x="237" y="584"/>
      <point x="381" y="584" type="curve" smooth="yes"/>
      <point x="524" y="584"/>
      <point x="638" y="469"/>
      <point x="638" y="300" type="curve" smooth="yes"/>
      <point x="638" y="131"/>
      <point x="524" y="16"/>
    </contour>
    <contour>
      <point x="379" y="-13" type="line"/>
      <point x="499" y="-34"/>
      <point x="644" y="-129"/>
      <point x="752" y="-174" type="curve" smooth="yes"/>
      <point x="1005" y="-281"/>
      <point x="1173" y="-132"/>
      <point x="1194" y="-78" type="curve"/>
      <point x="1191" y="-74" type="line"/>
      <point x="1081" y="-174"/>
      <point x="891" y="-167"/>
      <point x="758" y="-114" type="curve" smooth="yes"/>
      <point x="582" y="-44"/>
      <point x="440" y="9"/>
      <point x="389" y="9" type="curve"/>
    </contour>
  </outline>
</glyph>
<glyph name="r" format="1">
  <advance width="627"/>
  <unicode hex="0072"/>
  <outline>
    <contour>
      <point x="177" y="600" type="line" smooth="yes"/>
      <point x="177" y="600"/>
      <point x="187" y="571"/>
      <point x="187" y="569" type="curve" smooth="yes"/>
      <point x="187" y="568"/>
      <point x="241" y="571"/>
      <point x="304" y="568" type="curve" smooth="yes"/>
      <point x="384" y="564"/>
      <point x="435" y="520"/>
      <point x="437" y="445" type="curve" smooth="yes"/>
      <point x="438" y="423"/>
      <point x="435" y="402"/>
      <point x="430" y="388" type="curve" smooth="yes"/>
      <point x="401" y="304"/>
      <point x="338" y="303"/>
      <point x="283" y="302" type="curve" smooth="yes"/>
      <point x="250" y="301"/>
      <point x="226" y="302"/>
      <point x="226" y="302" type="curve"/>
      <point x="226" y="292" type="line"/>
      <point x="265" y="292"/>
      <point x="300" y="259"/>
      <point x="327" y="225" type="curve" smooth="yes"/>
      <point x="335" y="215"/>
      <point x="414" y="102"/>
      <point x="425" y="88" type="curve" smooth="yes"/>
      <point x="456" y="50"/>
      <point x="500" y="0"/>
      <point x="611" y="0" type="curve" smooth="yes"/>
      <point x="642" y="0" type="line"/>
      <point x="642" y="10" type="line"/>
      <point x="587" y="10"/>
      <point x="559" y="40"/>
      <point x="518" y="86" type="curve" smooth="yes"/>
      <point x="477" y="132"/>
      <point x="430" y="195"/>
      <point x="431" y="195" type="curve" smooth="yes"/>
      <point x="409" y="225"/>
      <point x="375" y="263"/>
      <point x="353" y="273" type="curve"/>
      <point x="443" y="282"/>
      <point x="509" y="353"/>
      <point x="509" y="438" type="curve" smooth="yes"/>
      <point x="509" y="539"/>
      <point x="432" y="600"/>
      <point x="306" y="600" type="curve" smooth="yes"/>
    </contour>
    <contour>
      <point x="125" y="600" type="line"/>
      <point x="125" y="0" type="line"/>
      <point x="189" y="0" type="line"/>
      <point x="189" y="600" type="line"/>
    </contour>
    <contour>
      <point x="126" y="64" type="line"/>
      <point x="125" y="34"/>
      <point x="101" y="10"/>
      <point x="69" y="10" type="curve" smooth="yes"/>
      <point x="69" y="10"/>
      <point x="55" y="10"/>
      <point x="55" y="10" type="curve"/>
      <point x="55" y="0" type="line"/>
      <point x="140" y="0" type="line"/>
      <point x="128" y="64" type="line"/>
    </contour>
    <contour>
      <point x="140" y="600" type="line"/>
      <point x="55" y="600" type="line"/>
      <point x="55" y="590" type="line"/>
      <point x="55" y="590"/>
      <point x="69" y="590"/>
      <point x="69" y="590" type="curve" smooth="yes"/>
      <point x="101" y="590"/>
      <point x="125" y="567"/>
      <point x="126" y="537" type="curve"/>
      <point x="128" y="537" type="line"/>
    </contour>
    <contour>
      <point x="174" y="0" type="line"/>
      <point x="260" y="0" type="line"/>
      <point x="259" y="10" type="line"/>
      <point x="259" y="10"/>
      <point x="246" y="10"/>
      <point x="246" y="10" type="curve" smooth="yes"/>
      <point x="214" y="10"/>
      <point x="190" y="34"/>
      <point x="189" y="64" type="curve"/>
      <point x="186" y="64" type="line"/>
    </contour>
    <contour>
      <point x="302" y="664" type="move" name="top"/>
    </contour>
    <contour>
      <point x="367" y="-64" type="move" name="bottom"/>
    </contour>
  </outline>
</glyph>
<glyph name="s" format="1">
  <advance width="462"/>
  <unicode hex="0073"/>
  <outline>
    <contour>
      <point x="234" y="614" type="curve" smooth="yes"/>
      <point x="142" y="614"/>
      <point x="68" y="549"/>
      <point x="69" y="468" type="curve" smooth="yes"/>
      <point x="69" y="433"/>
      <point x="79" y="392"/>
      <point x="117" y="360" type="curve" smooth="yes"/>
      <point x="317" y="206" type="line" smooth="yes"/>
      <point x="342" y="183"/>
      <point x="353" y="158"/>
      <point x="353" y="126" type="curve" smooth="yes"/>
      <point x="353" y="61"/>
      <point x="302" y="18"/>
      <point x="220" y="16" type="curve" smooth="yes"/>
      <point x="132" y="13"/>
      <point x="71" y="67"/>
      <point x="80" y="157" type="curve"/>
      <point x="68" y="157" type="line"/>
      <point x="55" y="119"/>
      <point x="52" y="60"/>
      <point x="58" y="33" type="curve"/>
      <point x="95" y="0"/>
      <point x="172" y="-14"/>
      <point x="231" y="-14" type="curve" smooth="yes"/>
      <point x="329" y="-14"/>
      <point x="409" y="58"/>
      <point x="408" y="147" type="curve" smooth="yes"/>
      <point x="407" y="186"/>
      <point x="393" y="229"/>
      <point x="362" y="254" type="curve" smooth="yes"/>
      <point x="160" y="410" type="line" smooth="yes"/>
      <point x="129" y="435"/>
      <point x="121" y="463"/>
      <point x="121" y="489" type="curve" smooth="yes"/>
      <point x="120" y="542"/>
      <point x="174" y="584"/>
      <point x="241" y="584" type="curve" smooth="yes"/>
      <point x="319" y="584"/>
      <point x="356" y="551"/>
      <point x="356" y="496" type="curve"/>
      <point x="368" y="496" type="line"/>
      <point x="367" y="595" type="line"/>
      <point x="343" y="603"/>
      <point x="308" y="614"/>
    </contour>
    <contour>
      <point x="296" y="605" type="line"/>
      <point x="296" y="587" type="line"/>
      <point x="367" y="587" type="line"/>
      <point x="366" y="605" type="line"/>
    </contour>
    <contour>
      <point x="232" y="664" type="move" name="top"/>
    </contour>
    <contour>
      <point x="229" y="-64" type="move" name="bottom"/>
    </contour>
  </outline>
</glyph>
<glyph name="u" format="1">
  <advance width="700"/>
  <unicode hex="0075"/>
  <outline>
    <contour>
      <point x="103" y="600" type="line"/>
      <point x="103" y="210" type="line" smooth="yes"/>
      <point x="103" y="71"/>
      <point x="199" y="-14"/>
      <point x="353" y="-14" type="curve" smooth="yes"/>
      <point x="507" y="-14"/>
      <point x="602" y="72"/>
      <point x="602" y="211" type="curve" smooth="yes"/>
      <point x="602" y="600" type="line"/>
      <point x="556" y="600" type="line"/>
      <point x="556" y="211" type="line" smooth="yes"/>
      <point x="556" y="88"/>
      <point x="478" y="13"/>
      <point x="352" y="13" type="curve" smooth="yes"/>
      <point x="237" y="13"/>
      <point x="167" y="93"/>
      <point x="167" y="222" type="curve"/>
      <point x="167" y="600" type="line"/>
    </contour>
    <contour>
      <point x="40" y="600" type="line"/>
      <point x="40" y="590" type="line"/>
      <point x="40" y="590"/>
      <point x="55" y="590"/>
      <point x="55" y="590" type="curve" smooth="yes"/>
      <point x="81" y="590"/>
      <point x="102" y="571"/>
      <point x="103" y="547" type="curve"/>
      <point x="105" y="547" type="line"/>
      <point x="105" y="600" type="line"/>
    </contour>
    <contour>
      <point x="165" y="600" type="line"/>
      <point x="165" y="547" type="line"/>
      <point x="167" y="547" type="line"/>
      <point x="167" y="571"/>
      <point x="189" y="590"/>
      <point x="215" y="590" type="curve" smooth="yes"/>
      <point x="215" y="590"/>
      <point x="230" y="590"/>
      <point x="230" y="590" type="curve"/>
      <point x="230" y="600" type="line"/>
    </contour>
    <contour>
      <point x="493" y="600" type="line"/>
      <point x="493" y="590" type="line"/>
      <point x="493" y="590"/>
      <point x="508" y="590"/>
      <point x="508" y="590" type="curve" smooth="yes"/>
      <point x="534" y="590"/>
      <point x="556" y="571"/>
      <point x="556" y="547" type="curve"/>
      <point x="558" y="547" type="line"/>
      <point x="558" y="600" type="line"/>
    </contour>
    <contour>
      <point x="600" y="600" type="line"/>
      <point x="600" y="547" type="line"/>
      <point x="602" y="547" type="line"/>
      <point x="603" y="571"/>
      <point x="624" y="590"/>
      <point x="650" y="590" type="curve" smooth="yes"/>
      <point x="650" y="590"/>
      <point x="665" y="590"/>
      <point x="665" y="590" type="curve"/>
      <point x="665" y="600" type="line"/>
    </contour>
    <contour>
      <point x="337" y="-10" type="move" name="ogonek"/>
    </contour>
    <contour>
      <point x="350" y="664" type="move" name="top"/>
    </contour>
  </outline>
</glyph>
<glyph name="v" format="1">
  <advance width="663"/>
  <unicode hex="0076"/>
  <outline>
    <contour>
      <point x="344" y="75" type="line"/>
      <point x="131" y="594" type="line"/>
      <point x="52" y="594" type="line"/>
      <point x="327" y="-14" type="line"/>
    </contour>
    <contour>
      <point x="336" y="-14" type="line"/>
      <point x="338" y="12"/>
      <point x="375" y="89"/>
      <point x="375" y="89" type="curve"/>
      <point x="612" y="597" type="line"/>
      <point x="549" y="597" type="line"/>
      <point x="320" y="55" type="line"/>
      <point x="327" y="-14" type="line"/>
    </contour>
    <contour>
      <point x="579" y="527" type="line"/>
      <point x="600" y="572"/>
      <point x="632" y="590"/>
      <point x="660" y="590" type="curve" smooth="yes"/>
      <point x="660" y="590"/>
      <point x="668" y="590"/>
      <point x="668" y="590" type="curve"/>
      <point x="668" y="600" type="line"/>
      <point x="478" y="600" type="line"/>
      <point x="478" y="590" type="line"/>
      <point x="485" y="590" type="line" smooth="yes"/>
      <point x="509" y="590"/>
      <point x="535" y="567"/>
      <point x="520" y="527" type="curve"/>
    </contour>
    <contour>
      <point x="158" y="527" type="line"/>
      <point x="144" y="567"/>
      <point x="169" y="590"/>
      <point x="192" y="590" type="curve" smooth="yes"/>
      <point x="200" y="590" type="line"/>
      <point x="200" y="600" type="line"/>
      <point x="-5" y="600" type="line"/>
      <point x="-5" y="590" type="line"/>
      <point x="-5" y="590"/>
      <point x="3" y="590"/>
      <point x="3" y="590" type="curve" smooth="yes"/>
      <point x="30" y="590"/>
      <point x="62" y="572"/>
      <point x="82" y="527" type="curve"/>
    </contour>
  </outline>
</glyph>
<glyph name="w" format="1">
  <advance width="899"/>
  <unicode hex="0077"/>
  <outline>
    <contour>
      <point x="290" y="-12" type="line"/>
      <point x="299" y="101" type="line"/>
      <point x="137" y="594" type="line"/>
      <point x="57" y="594" type="line"/>
    </contour>
    <contour>
      <point x="458" y="616" type="line"/>
      <point x="271" y="77" type="line"/>
      <point x="290" y="-12" type="line"/>
      <point x="299" y="-12" type="line"/>
      <point x="301" y="37"/>
      <point x="321" y="99"/>
      <point x="321" y="99" type="curve"/>
      <point x="476" y="535" type="line"/>
      <point x="468" y="616" type="line"/>
    </contour>
    <contour>
      <point x="434" y="507" type="line"/>
      <point x="637" y="-12" type="line"/>
      <point x="660" y="126" type="line"/>
      <point x="468" y="615" type="line"/>
    </contour>
    <contour>
      <point x="779" y="594" type="line"/>
      <point x="625" y="87" type="line"/>
      <point x="637" y="-12" type="line"/>
      <point x="647" y="-12" type="line"/>
      <point x="649" y="36"/>
      <point x="670" y="99"/>
      <point x="670" y="99" type="curve"/>
      <point x="836" y="594" type="line"/>
    </contour>
    <contour>
      <point x="815" y="530" type="line"/>
      <point x="827" y="565"/>
      <point x="855" y="590"/>
      <point x="897" y="590" type="curve" smooth="yes"/>
      <point x="897" y="590"/>
      <point x="904" y="590"/>
      <point x="904" y="590" type="curve"/>
      <point x="904" y="600" type="line"/>
      <point x="721" y="600" type="line"/>
      <point x="721" y="590" type="line"/>
      <point x="729" y="590" type="line" smooth="yes"/>
      <point x="750" y="590"/>
      <point x="773" y="573"/>
      <point x="759" y="530" type="curve"/>
    </contour>
    <contour>
      <point x="158" y="531" type="line"/>
      <point x="144" y="574"/>
      <point x="168" y="590"/>
      <point x="190" y="590" type="curve" smooth="yes"/>
      <point x="198" y="590" type="line"/>
      <point x="198" y="600" type="line"/>
      <point x="-8" y="600" type="line"/>
      <point x="-8" y="590" type="line"/>
      <point x="-8" y="590"/>
      <point x="0" y="590"/>
      <point x="0" y="590" type="curve" smooth="yes"/>
      <point x="42" y="590"/>
      <point x="69" y="565"/>
      <point x="82" y="530" type="curve"/>
    </contour>
    <contour>
      <point x="463" y="665" type="move" name="top"/>
    </contour>
  </outline>
</glyph>
<glyph name="x" format="1">
  <advance width="626"/>
  <unicode hex="0078"/>
  <outline>
    <contour>
      <point x="73" y="599" type="line"/>
      <point x="488" y="1" type="line"/>
      <point x="569" y="1" type="line"/>
      <point x="152" y="599" type="line"/>
    </contour>
    <contour>
      <point x="98" y="61" type="line"/>
      <point x="77" y="34"/>
      <point x="42" y="10"/>
      <point x="2" y="10" type="curve" smooth="yes"/>
      <point x="-11" y="10" type="line"/>
      <point x="-11" y="0" type="line"/>
      <point x="207" y="0" type="line"/>
      <point x="207" y="10" type="line"/>
      <point x="207" y="10"/>
      <point x="195" y="10"/>
      <point x="195" y="10" type="curve" smooth="yes"/>
      <point x="169" y="10"/>
      <point x="144" y="39"/>
      <point x="162" y="64" type="curve"/>
    </contour>
    <contour>
      <point x="52" y="1" type="line"/>
      <point x="115" y="1" type="line"/>
      <point x="316" y="272" type="line"/>
      <point x="296" y="313" type="line"/>
    </contour>
    <contour>
      <point x="445" y="63" type="line"/>
      <point x="461" y="39"/>
      <point x="438" y="10"/>
      <point x="412" y="10" type="curve" smooth="yes"/>
      <point x="412" y="10"/>
      <point x="400" y="10"/>
      <point x="400" y="10" type="curve"/>
      <point x="400" y="0" type="line"/>
      <point x="637" y="0" type="line"/>
      <point x="637" y="10" type="line"/>
      <point x="624" y="10" type="line" smooth="yes"/>
      <point x="584" y="10"/>
      <point x="547" y="34"/>
      <point x="527" y="60" type="curve"/>
    </contour>
    <contour>
      <point x="5" y="600" type="line"/>
      <point x="5" y="590" type="line"/>
      <point x="18" y="590" type="line" smooth="yes"/>
      <point x="58" y="590"/>
      <point x="95" y="566"/>
      <point x="115" y="540" type="curve"/>
      <point x="195" y="537" type="line"/>
      <point x="179" y="561"/>
      <point x="202" y="590"/>
      <point x="228" y="590" type="curve" smooth="yes"/>
      <point x="228" y="590"/>
      <point x="240" y="590"/>
      <point x="240" y="590" type="curve"/>
      <point x="240" y="600" type="line"/>
    </contour>
    <contour>
      <point x="485" y="599" type="line"/>
      <point x="315" y="345" type="line"/>
      <point x="340" y="303" type="line"/>
      <point x="553" y="599" type="line"/>
    </contour>
    <contour>
      <point x="398" y="600" type="line"/>
      <point x="398" y="590" type="line"/>
      <point x="398" y="590"/>
      <point x="410" y="590"/>
      <point x="410" y="590" type="curve" smooth="yes"/>
      <point x="436" y="590"/>
      <point x="459" y="561"/>
      <point x="443" y="536" type="curve"/>
      <point x="510" y="539" type="line"/>
      <point x="530" y="567"/>
      <point x="566" y="590"/>
      <point x="606" y="590" type="curve" smooth="yes"/>
      <point x="620" y="590" type="line"/>
      <point x="620" y="600" type="line"/>
    </contour>
  </outline>
</glyph>
<glyph name="y" format="1">
  <advance width="640"/>
  <unicode hex="0079"/>
  <outline>
    <contour>
      <point x="62" y="599" type="line"/>
      <point x="293" y="235" type="line"/>
      <point x="334" y="270" type="line"/>
      <point x="149" y="599" type="line"/>
    </contour>
    <contour>
      <point x="284" y="258" type="line"/>
      <point x="284" y="0" type="line"/>
      <point x="349" y="0" type="line"/>
      <point x="349" y="258" type="line"/>
    </contour>
    <contour>
      <point x="305" y="248" type="line"/>
      <point x="342" y="237" type="line"/>
      <point x="580" y="599" type="line"/>
      <point x="517" y="599" type="line"/>
    </contour>
    <contour>
      <point x="542" y="539" type="line"/>
      <point x="561" y="566"/>
      <point x="595" y="590"/>
      <point x="633" y="590" type="curve" smooth="yes"/>
      <point x="645" y="590" type="line"/>
      <point x="645" y="600" type="line"/>
      <point x="436" y="600" type="line"/>
      <point x="436" y="590" type="line"/>
      <point x="436" y="590"/>
      <point x="448" y="590"/>
      <point x="448" y="590" type="curve" smooth="yes"/>
      <point x="477" y="590"/>
      <point x="494" y="563"/>
      <point x="479" y="536" type="curve"/>
    </contour>
    <contour>
      <point x="184" y="537" type="line"/>
      <point x="171" y="561"/>
      <point x="186" y="590"/>
      <point x="215" y="590" type="curve" smooth="yes"/>
      <point x="215" y="590"/>
      <point x="227" y="590"/>
      <point x="227" y="590" type="curve"/>
      <point x="227" y="600" type="line"/>
      <point x="-5" y="600" type="line"/>
      <point x="-5" y="590" type="line"/>
      <point x="7" y="590" type="line" smooth="yes"/>
      <point x="45" y="590"/>
      <point x="78" y="570"/>
      <point x="99" y="540" type="curve"/>
    </contour>
    <contour>
      <point x="284" y="64" type="line"/>
      <point x="283" y="34"/>
      <point x="258" y="10"/>
      <point x="226" y="10" type="curve" smooth="yes"/>
      <point x="226" y="10"/>
      <point x="215" y="10"/>
      <point x="214" y="10" type="curve"/>
      <point x="214" y="0" type="line"/>
      <point x="287" y="0" type="line"/>
      <point x="287" y="64" type="line"/>
    </contour>
    <contour>
      <point x="346" y="0" type="line"/>
      <point x="419" y="0" type="line"/>
      <point x="419" y="10" type="line"/>
      <point x="419" y="10"/>
      <point x="407" y="10"/>
      <point x="407" y="10" type="curve" smooth="yes"/>
      <point x="375" y="10"/>
      <point x="350" y="34"/>
      <point x="349" y="64" type="curve"/>
      <point x="346" y="64" type="line"/>
    </contour>
    <contour>
      <point x="333" y="664" type="move" name="top"/>
    </contour>
  </outline>
</glyph>
<glyph name="z" format="1">
  <advance width="608"/>
  <unicode hex="007A"/>
  <outline>
    <contour>
      <point x="520" y="614" type="curve"/>
      <point x="507" y="608"/>
      <point x="449" y="601"/>
      <point x="407" y="601" type="curve"/>
      <point x="65" y="601" type="line"/>
      <point x="65" y="571" type="line"/>
      <point x="423" y="571" type="line"/>
      <point x="50" y="9" type="line"/>
      <point x="50" y="0" type="line"/>
      <point x="120" y="0" type="line"/>
      <point x="520" y="605" type="line"/>
      <point x="520" y="605"/>
      <point x="520" y="614"/>
    </contour>
    <contour>
      <point x="115" y="30" type="line"/>
      <point x="115" y="0" type="line"/>
      <point x="522" y="0" type="line"/>
      <point x="529" y="30" type="line"/>
    </contour>
    <contour>
      <point x="573" y="143" type="line"/>
      <point x="544" y="77"/>
      <point x="510" y="31"/>
      <point x="413" y="30" type="curve"/>
      <point x="379" y="0" type="line"/>
      <point x="529" y="0" type="line"/>
      <point x="583" y="143" type="line"/>
    </contour>
    <contour>
      <point x="65" y="504" type="line"/>
      <point x="76" y="504" type="line"/>
      <point x="76" y="519" type="line" smooth="yes"/>
      <point x="76" y="548"/>
      <point x="96" y="570"/>
      <point x="126" y="571" type="curve"/>
      <point x="126" y="573" type="line"/>
      <point x="65" y="573" type="line"/>
    </contour>
    <contour>
      <point x="65" y="591" type="line"/>
      <point x="177" y="601" type="line"/>
      <point x="137" y="602"/>
      <point x="83" y="610"/>
      <point x="65" y="617" type="curve"/>
    </contour>
    <contour>
      <point x="299" y="664" type="move" name="top"/>
    </contour>
  </outline>
</glyph>
<glyph name="braceleft" format="1">
  <advance width="337"/>
  <unicode hex="007B"/>
  <outline>
    <contour>
      <point x="138" y="340" type="curve"/>
      <point x="130" y="325"/>
      <point x="103" y="325"/>
      <point x="85" y="324" type="curve"/>
      <point x="85" y="314" type="line"/>
      <point x="102" y="313"/>
      <point x="128" y="309"/>
      <point x="135" y="292" type="curve" smooth="yes"/>
      <point x="146" y="266"/>
      <point x="124" y="182"/>
      <point x="124" y="116" type="curve" smooth="yes"/>
      <point x="126" y="-5"/>
      <point x="175" y="-100"/>
      <point x="296" y="-100" type="curve"/>
      <point x="298" y="-92" type="line"/>
      <point x="205" y="-68"/>
      <point x="191" y="6"/>
      <point x="189" y="116" type="curve" smooth="yes"/>
      <point x="189" y="200"/>
      <point x="209" y="301"/>
      <point x="141" y="316" type="curve"/>
      <point x="207" y="336"/>
      <point x="189" y="428"/>
      <point x="189" y="517" type="curve" smooth="yes"/>
      <point x="191" y="627"/>
      <point x="205" y="701"/>
      <point x="298" y="725" type="curve"/>
      <point x="296" y="733" type="line"/>
      <point x="175" y="733"/>
      <point x="126" y="638"/>
      <point x="124" y="517" type="curve" smooth="yes"/>
      <point x="124" y="451"/>
      <point x="148" y="365"/>
    </contour>
  </outline>
</glyph>
<glyph name="braceright" format="1">
  <advance width="337"/>
  <unicode hex="007D"/>
  <outline>
    <contour>
      <point x="40" y="725" type="line"/>
      <point x="133" y="701"/>
      <point x="147" y="627"/>
      <point x="148" y="517" type="curve"/>
      <point x="149" y="428"/>
      <point x="130" y="336"/>
      <point x="197" y="316" type="curve"/>
      <point x="129" y="301"/>
      <point x="149" y="200"/>
      <point x="148" y="116" type="curve" smooth="yes"/>
      <point x="147" y="6"/>
      <point x="133" y="-68"/>
      <point x="40" y="-92" type="curve"/>
      <point x="42" y="-100" type="line"/>
      <point x="163" y="-100"/>
      <point x="212" y="-5"/>
      <point x="213" y="116" type="curve" smooth="yes"/>
      <point x="214" y="182"/>
      <point x="192" y="266"/>
      <point x="203" y="292" type="curve" smooth="yes"/>
      <point x="210" y="309"/>
      <point x="236" y="313"/>
      <point x="253" y="314" type="curve"/>
      <point x="253" y="324" type="line"/>
      <point x="235" y="325"/>
      <point x="207" y="325"/>
      <point x="200" y="340" type="curve"/>
      <point x="189" y="365"/>
      <point x="214" y="451"/>
      <point x="213" y="517" type="curve" smooth="yes"/>
      <point x="212" y="638"/>
      <point x="163" y="733"/>
      <point x="42" y="733" type="curve"/>
    </contour>
  </outline>
</glyph>
<glyph name="exclamdown" format="1">
  <advance width="230"/>
  <unicode hex="00A1"/>
  <outline>
    <contour>
      <point x="115" y="706" type="curve" smooth="yes"/>
      <point x="90" y="706"/>
      <point x="70" y="685"/>
      <point x="70" y="661" type="curve" smooth="yes"/>
      <point x="70" y="636"/>
      <point x="90" y="616"/>
      <point x="115" y="616" type="curve" smooth="yes"/>
      <point x="140" y="616"/>
      <point x="160" y="636"/>
      <point x="160" y="661" type="curve" smooth="yes"/>
      <point x="160" y="685"/>
      <point x="140" y="706"/>
    </contour>
    <contour>
      <point x="90" y="299" type="line"/>
      <point x="78" y="0" type="line"/>
      <point x="153" y="0" type="line"/>
      <point x="141" y="299" type="line"/>
      <point x="121" y="529" type="line"/>
      <point x="111" y="529" type="line"/>
    </contour>
  </outline>
</glyph>
<glyph name="cent" format="1">
  <advance width="602"/>
  <unicode hex="00A2"/>
  <outline>
    <contour>
      <point x="555" y="304" type="line"/>
      <point x="546" y="163"/>
      <point x="452" y="105"/>
      <point x="329" y="105" type="curve" smooth="yes"/>
      <point x="200" y="108"/>
      <point x="125" y="197"/>
      <point x="125" y="346" type="curve" smooth="yes"/>
      <point x="125" y="498"/>
      <point x="200" y="587"/>
      <point x="329" y="587" type="curve" smooth="yes"/>
      <point x="430" y="587"/>
      <point x="506" y="549"/>
      <point x="532" y="443" type="curve"/>
      <point x="539" y="443" type="line"/>
      <point x="521" y="565" type="line"/>
      <point x="471" y="597"/>
      <point x="398" y="617"/>
      <point x="329" y="617" type="curve" smooth="yes"/>
      <point x="162" y="617"/>
      <point x="50" y="514"/>
      <point x="50" y="346" type="curve" smooth="yes"/>
      <point x="50" y="179"/>
      <point x="162" y="76"/>
      <point x="329" y="75" type="curve"/>
      <point x="427" y="75"/>
      <point x="512" y="117"/>
      <point x="555" y="186" type="curve"/>
      <point x="563" y="304" type="line"/>
    </contour>
    <contour>
      <point x="286" y="-6" type="line"/>
      <point x="315" y="-9" type="line"/>
      <point x="373" y="700" type="line"/>
      <point x="343" y="701" type="line"/>
    </contour>
  </outline>
</glyph>
<glyph name="sterling" format="1">
  <advance width="577"/>
  <unicode hex="00A3"/>
  <outline>
    <contour>
      <point x="538" y="159" type="line"/>
      <point x="489" y="61"/>
      <point x="392" y="41"/>
      <point x="312" y="48" type="curve" smooth="yes"/>
      <point x="237" y="54"/>
      <point x="176" y="71"/>
      <point x="125" y="54" type="curve"/>
      <point x="179" y="105"/>
      <point x="237" y="161"/>
      <point x="229" y="377" type="curve" smooth="yes"/>
      <point x="223" y="553"/>
      <point x="240" y="672"/>
      <point x="360" y="684" type="curve" smooth="yes"/>
      <point x="424" y="690"/>
      <point x="477" y="657"/>
      <point x="465" y="566" type="curve"/>
      <point x="475" y="566" type="line"/>
      <point x="502" y="657" type="line"/>
      <point x="475" y="692"/>
      <point x="425" y="720"/>
      <point x="360" y="714" type="curve" smooth="yes"/>
      <point x="199" y="699"/>
      <point x="150" y="560"/>
      <point x="159" y="370" type="curve" smooth="yes"/>
      <point x="168" y="182"/>
      <point x="113" y="54"/>
      <point x="58" y="10" type="curve"/>
      <point x="58" y="0" type="line"/>
      <point x="68" y="0" type="line"/>
      <point x="80" y="12"/>
      <point x="100" y="22"/>
      <point x="109" y="24" type="curve" smooth="yes"/>
      <point x="172" y="37"/>
      <point x="221" y="4"/>
      <point x="310" y="-8" type="curve" smooth="yes"/>
      <point x="363" y="-15"/>
      <point x="437" y="-6"/>
      <point x="502" y="24" type="curve"/>
      <point x="548" y="159" type="line"/>
    </contour>
    <contour>
      <point x="50" y="329" type="line"/>
      <point x="400" y="329" type="line"/>
      <point x="413" y="365" type="line"/>
      <point x="62" y="365" type="line"/>
    </contour>
  </outline>
</glyph>
<glyph name="currency" format="1">
  <advance width="541"/>
  <unicode hex="00A4"/>
  <outline>
    <contour>
      <point x="119" y="503" type="curve" smooth="yes"/>
      <point x="36" y="419"/>
      <point x="36" y="285"/>
      <point x="119" y="201" type="curve" smooth="yes"/>
      <point x="202" y="118"/>
      <point x="337" y="118"/>
      <point x="420" y="201" type="curve" smooth="yes"/>
      <point x="503" y="285"/>
      <point x="503" y="419"/>
      <point x="420" y="503" type="curve" smooth="yes"/>
      <point x="337" y="586"/>
      <point x="202" y="586"/>
    </contour>
    <contour>
      <point x="140" y="481" type="curve" smooth="yes"/>
      <point x="211" y="553"/>
      <point x="327" y="553"/>
      <point x="399" y="481" type="curve" smooth="yes"/>
      <point x="470" y="410"/>
      <point x="470" y="294"/>
      <point x="399" y="223" type="curve" smooth="yes"/>
      <point x="327" y="151"/>
      <point x="211" y="151"/>
      <point x="140" y="223" type="curve" smooth="yes"/>
      <point x="68" y="294"/>
      <point x="68" y="410"/>
    </contour>
    <contour>
      <point x="121" y="481" type="line"/>
      <point x="143" y="503" type="line"/>
      <point x="71" y="574" type="line"/>
      <point x="50" y="553" type="line"/>
    </contour>
    <contour>
      <point x="470" y="132" type="line"/>
      <point x="492" y="154" type="line"/>
      <point x="420" y="225" type="line"/>
      <point x="399" y="204" type="line"/>
    </contour>
    <contour>
      <point x="143" y="204" type="line"/>
      <point x="121" y="225" type="line"/>
      <point x="50" y="154" type="line"/>
      <point x="71" y="132" type="line"/>
    </contour>
    <contour>
      <point x="492" y="553" type="line"/>
      <point x="470" y="574" type="line"/>
      <point x="399" y="503" type="line"/>
      <point x="420" y="481" type="line"/>
    </contour>
  </outline>
</glyph>
<glyph name="yen" format="1">
  <advance width="661"/>
  <unicode hex="00A5"/>
  <outline>
    <contour>
      <point x="64" y="699" type="line"/>
      <point x="303" y="299" type="line"/>
      <point x="346" y="334" type="line"/>
      <point x="150" y="699" type="line"/>
    </contour>
    <contour>
      <point x="295" y="322" type="line"/>
      <point x="295" y="0" type="line"/>
      <point x="360" y="0" type="line"/>
      <point x="360" y="322" type="line"/>
    </contour>
    <contour>
      <point x="317" y="312" type="line"/>
      <point x="353" y="301" type="line"/>
      <point x="599" y="699" type="line"/>
      <point x="538" y="699" type="line"/>
    </contour>
    <contour>
      <point x="557" y="631" type="line"/>
      <point x="578" y="662"/>
      <point x="616" y="690"/>
      <point x="658" y="690" type="curve" smooth="yes"/>
      <point x="672" y="690" type="line"/>
      <point x="672" y="700" type="line"/>
      <point x="450" y="700" type="line"/>
      <point x="450" y="690" type="line"/>
      <point x="450" y="690"/>
      <point x="462" y="690"/>
      <point x="462" y="690" type="curve" smooth="yes"/>
      <point x="490" y="690"/>
      <point x="514" y="656"/>
      <point x="497" y="628" type="curve"/>
    </contour>
    <contour>
      <point x="188" y="628" type="line"/>
      <point x="174" y="656"/>
      <point x="194" y="690"/>
      <point x="223" y="690" type="curve" smooth="yes"/>
      <point x="223" y="690"/>
      <point x="236" y="690"/>
      <point x="236" y="690" type="curve"/>
      <point x="236" y="700" type="line"/>
      <point x="-10" y="700" type="line"/>
      <point x="-10" y="690" type="line"/>
      <point x="4" y="690" type="line" smooth="yes"/>
      <point x="46" y="690"/>
      <point x="85" y="662"/>
      <point x="104" y="631" type="curve"/>
    </contour>
    <contour>
      <point x="295" y="73" type="line"/>
      <point x="294" y="38"/>
      <point x="266" y="10"/>
      <point x="231" y="10" type="curve" smooth="yes"/>
      <point x="230" y="10"/>
      <point x="218" y="10"/>
      <point x="218" y="10" type="curve"/>
      <point x="218" y="0" type="line"/>
      <point x="297" y="0" type="line"/>
      <point x="297" y="73" type="line"/>
    </contour>
    <contour>
      <point x="357" y="0" type="line"/>
      <point x="436" y="0" type="line"/>
      <point x="436" y="10" type="line"/>
      <point x="436" y="10"/>
      <point x="424" y="10"/>
      <point x="424" y="10" type="curve" smooth="yes"/>
      <point x="389" y="10"/>
      <point x="360" y="38"/>
      <point x="360" y="73" type="curve"/>
      <point x="357" y="73" type="line"/>
    </contour>
    <contour>
      <point x="104" y="265" type="line"/>
      <point x="550" y="265" type="line"/>
      <point x="550" y="295" type="line"/>
      <point x="104" y="295" type="line"/>
    </contour>
    <contour>
      <point x="104" y="385" type="line"/>
      <point x="282" y="385" type="line"/>
      <point x="282" y="415" type="line"/>
      <point x="104" y="415" type="line"/>
    </contour>
    <contour>
      <point x="391" y="385" type="line"/>
      <point x="550" y="385" type="line"/>
      <point x="550" y="415" type="line"/>
      <point x="391" y="415" type="line"/>
    </contour>
  </outline>
</glyph>
<glyph name="brokenbar" format="1">
  <advance width="245"/>
  <unicode hex="00A6"/>
  <outline>
    <contour>
      <point x="100" y="-180" type="line"/>
      <point x="145" y="-180" type="line"/>
      <point x="145" y="170" type="line"/>
      <point x="100" y="170" type="line"/>
    </contour>
    <contour>
      <point x="100" y="350" type="line"/>
      <point x="145" y="350" type="line"/>
      <point x="145" y="700" type="line"/>
      <point x="100" y="700" type="line"/>
    </contour>
  </outline>
</glyph>
<glyph name="section" format="1">
  <advance width="511"/>
  <unicode hex="00A7"/>
  <outline>
    <contour>
      <point x="278" y="708" type="curve" smooth="yes"/>
      <point x="121" y="682"/>
      <point x="-55" y="422"/>
      <point x="179" y="197" type="curve" smooth="yes"/>
      <point x="347" y="35"/>
      <point x="376" y="-50"/>
      <point x="307" y="-98" type="curve" smooth="yes"/>
      <point x="214" y="-163"/>
      <point x="153" y="-26"/>
      <point x="115" y="-54" type="curve" smooth="yes"/>
      <point x="72" y="-87"/>
      <point x="121" y="-171"/>
      <point x="243" y="-151" type="curve" smooth="yes"/>
      <point x="406" y="-124"/>
      <point x="558" y="142"/>
      <point x="336" y="367" type="curve" smooth="yes"/>
      <point x="160" y="545"/>
      <point x="145" y="608"/>
      <point x="212" y="656" type="curve" smooth="yes"/>
      <point x="304" y="723"/>
      <point x="367" y="584"/>
      <point x="405" y="612" type="curve" smooth="yes"/>
      <point x="446" y="643"/>
      <point x="400" y="728"/>
    </contour>
    <contour>
      <point x="139" y="583" type="curve"/>
      <point x="131" y="505"/>
      <point x="160" y="440"/>
      <point x="289" y="317" type="curve" smooth="yes"/>
      <point x="438" y="174"/>
      <point x="421" y="64"/>
      <point x="371" y="-15" type="curve"/>
      <point x="390" y="50"/>
      <point x="351" y="132"/>
      <point x="224" y="248" type="curve" smooth="yes"/>
      <point x="64" y="394"/>
      <point x="96" y="502"/>
    </contour>
  </outline>
</glyph>
<glyph name="copyright" format="1">
  <advance width="848"/>
  <unicode hex="00A9"/>
  <outline>
    <contour>
      <point x="424" y="714" type="curve" smooth="yes"/>
      <point x="223" y="714"/>
      <point x="60" y="551"/>
      <point x="60" y="350" type="curve" smooth="yes"/>
      <point x="60" y="149"/>
      <point x="223" y="-14"/>
      <point x="424" y="-14" type="curve" smooth="yes"/>
      <point x="625" y="-14"/>
      <point x="788" y="149"/>
      <point x="788" y="350" type="curve" smooth="yes"/>
      <point x="788" y="551"/>
      <point x="625" y="714"/>
    </contour>
    <contour>
      <point x="424" y="677" type="curve" smooth="yes"/>
      <point x="605" y="677"/>
      <point x="751" y="531"/>
      <point x="751" y="350" type="curve" smooth="yes"/>
      <point x="751" y="169"/>
      <point x="605" y="23"/>
      <point x="424" y="23" type="curve" smooth="yes"/>
      <point x="243" y="23"/>
      <point x="97" y="169"/>
      <point x="97" y="350" type="curve" smooth="yes"/>
      <point x="97" y="531"/>
      <point x="243" y="677"/>
    </contour>
    <contour>
      <point x="616" y="316" type="line"/>
      <point x="608" y="199"/>
      <point x="531" y="153"/>
      <point x="430" y="153" type="curve" smooth="yes"/>
      <point x="337" y="155"/>
      <point x="267" y="239"/>
      <point x="267" y="350" type="curve" smooth="yes"/>
      <point x="267" y="463"/>
      <point x="337" y="547"/>
      <point x="430" y="547" type="curve" smooth="yes"/>
      <point x="516" y="547"/>
      <point x="579" y="502"/>
      <point x="596" y="430" type="curve"/>
      <point x="602" y="430" type="line"/>
      <point x="588" y="530" type="line"/>
      <point x="547" y="557"/>
      <point x="487" y="573"/>
      <point x="430" y="573" type="curve" smooth="yes"/>
      <point x="299" y="573"/>
      <point x="201" y="478"/>
      <point x="201" y="350" type="curve" smooth="yes"/>
      <point x="201" y="223"/>
      <point x="299" y="128"/>
      <point x="430" y="127" type="curve"/>
      <point x="510" y="127"/>
      <point x="581" y="162"/>
      <point x="615" y="218" type="curve"/>
      <point x="622" y="316" type="line"/>
    </contour>
  </outline>
</glyph>
<glyph name="ordfeminine" format="1">
  <advance width="368"/>
  <unicode hex="00AA"/>
  <outline>
    <contour>
      <point x="176" y="659" type="line"/>
      <point x="283" y="381" type="line"/>
      <point x="338" y="381" type="line"/>
      <point x="186" y="714" type="line"/>
    </contour>
    <contour>
      <point x="49" y="420" type="line"/>
      <point x="37" y="394"/>
      <point x="20" y="383"/>
      <point x="4" y="383" type="curve" smooth="yes"/>
      <point x="4" y="383"/>
      <point x="0" y="383"/>
      <point x="0" y="383" type="curve"/>
      <point x="0" y="378" type="line"/>
      <point x="114" y="378" type="line"/>
      <point x="114" y="383" type="line"/>
      <point x="110" y="383" type="line" smooth="yes"/>
      <point x="97" y="383"/>
      <point x="82" y="396"/>
      <point x="91" y="420" type="curve"/>
    </contour>
    <contour>
      <point x="181" y="714" type="line"/>
      <point x="180" y="699"/>
      <point x="160" y="655"/>
      <point x="160" y="655" type="curve"/>
      <point x="30" y="379" type="line"/>
      <point x="74" y="379" type="line"/>
      <point x="191" y="653" type="line"/>
      <point x="186" y="714" type="line"/>
    </contour>
    <contour>
      <point x="105" y="510" type="line"/>
      <point x="105" y="486" type="line"/>
      <point x="250" y="486" type="line"/>
      <point x="250" y="510" type="line"/>
    </contour>
    <contour>
      <point x="269" y="420" type="line"/>
      <point x="277" y="396"/>
      <point x="263" y="383"/>
      <point x="250" y="383" type="curve" smooth="yes"/>
      <point x="245" y="383" type="line"/>
      <point x="245" y="378" type="line"/>
      <point x="368" y="378" type="line"/>
      <point x="368" y="383" type="line"/>
      <point x="368" y="383"/>
      <point x="364" y="383"/>
      <point x="364" y="383" type="curve" smooth="yes"/>
      <point x="349" y="383"/>
      <point x="333" y="394"/>
      <point x="321" y="420" type="curve"/>
    </contour>
  </outline>
</glyph>
<glyph name="logicalnot" format="1">
  <advance width="601"/>
  <unicode hex="00AC"/>
  <outline>
    <contour>
      <point x="40" y="352" type="line"/>
      <point x="562" y="352" type="line"/>
      <point x="562" y="397" type="line"/>
      <point x="40" y="397" type="line"/>
    </contour>
    <contour>
      <point x="517" y="195" type="line"/>
      <point x="562" y="195" type="line"/>
      <point x="562" y="397" type="line"/>
      <point x="517" y="397" type="line"/>
    </contour>
  </outline>
</glyph>
<glyph name="macron" format="1">
  <advance width="600"/>
  <unicode hex="00AF"/>
  <outline>
    <contour>
      <point x="170" y="703" type="line"/>
      <point x="420" y="703" type="line"/>
      <point x="420" y="738" type="line"/>
      <point x="170" y="738" type="line"/>
    </contour>
    <contour>
      <point x="292" y="671" type="move" name="_top"/>
    </contour>
  </outline>
</glyph>
<glyph name="degree" format="1">
  <advance width="257"/>
  <unicode hex="00B0"/>
  <outline>
    <contour>
      <point x="129" y="664" type="curve" smooth="yes"/>
      <point x="74" y="664"/>
      <point x="30" y="620"/>
      <point x="30" y="566" type="curve" smooth="yes"/>
      <point x="30" y="511"/>
      <point x="74" y="467"/>
      <point x="129" y="467" type="curve" smooth="yes"/>
      <point x="183" y="467"/>
      <point x="227" y="511"/>
      <point x="227" y="566" type="curve" smooth="yes"/>
      <point x="227" y="620"/>
      <point x="183" y="664"/>
    </contour>
    <contour>
      <point x="129" y="625" type="curve" smooth="yes"/>
      <point x="162" y="625"/>
      <point x="188" y="599"/>
      <point x="188" y="566" type="curve" smooth="yes"/>
      <point x="188" y="533"/>
      <point x="162" y="507"/>
      <point x="129" y="507" type="curve" smooth="yes"/>
      <point x="95" y="507"/>
      <point x="69" y="533"/>
      <point x="69" y="566" type="curve" smooth="yes"/>
      <point x="69" y="599"/>
      <point x="95" y="625"/>
    </contour>
  </outline>
</glyph>
<glyph name="twosuperior" format="1">
  <advance width="375"/>
  <unicode hex="00B2"/>
  <outline>
    <contour>
      <point x="58" y="595" type="line"/>
      <point x="56" y="654"/>
      <point x="101" y="688"/>
      <point x="153" y="689" type="curve" smooth="yes"/>
      <point x="208" y="690"/>
      <point x="247" y="653"/>
      <point x="247" y="589" type="curve" smooth="yes"/>
      <point x="247" y="487"/>
      <point x="108" y="386"/>
      <point x="30" y="315" type="curve"/>
      <point x="30" y="308" type="line"/>
      <point x="304" y="308" type="line"/>
      <point x="335" y="406" type="line"/>
      <point x="329" y="406" type="line"/>
      <point x="305" y="364"/>
      <point x="290" y="350"/>
      <point x="251" y="350" type="curve"/>
      <point x="113" y="350" type="line"/>
      <point x="179" y="397"/>
      <point x="302" y="478"/>
      <point x="302" y="592" type="curve" smooth="yes"/>
      <point x="302" y="665"/>
      <point x="236" y="714"/>
      <point x="153" y="714" type="curve" smooth="yes"/>
      <point x="111" y="714"/>
      <point x="65" y="696"/>
      <point x="39" y="670" type="curve"/>
      <point x="51" y="595" type="line"/>
    </contour>
  </outline>
</glyph>
<glyph name="threesuperior" format="1">
  <advance width="310"/>
  <unicode hex="00B3"/>
  <outline>
    <contour>
      <point x="135" y="712" type="curve" smooth="yes"/>
      <point x="88" y="712"/>
      <point x="58" y="697"/>
      <point x="40" y="675" type="curve"/>
      <point x="51" y="613" type="line"/>
      <point x="58" y="613" type="line"/>
      <point x="56" y="669"/>
      <point x="84" y="688"/>
      <point x="135" y="688" type="curve" smooth="yes"/>
      <point x="176" y="688"/>
      <point x="205" y="663"/>
      <point x="206" y="623" type="curve" smooth="yes"/>
      <point x="207" y="564"/>
      <point x="153" y="529"/>
      <point x="90" y="529" type="curve"/>
      <point x="89" y="523" type="line"/>
      <point x="169" y="523"/>
      <point x="219" y="500"/>
      <point x="219" y="437" type="curve" smooth="yes"/>
      <point x="219" y="340"/>
      <point x="137" y="290"/>
      <point x="31" y="293" type="curve"/>
      <point x="30" y="286" type="line"/>
      <point x="165" y="260"/>
      <point x="272" y="321"/>
      <point x="272" y="439" type="curve" smooth="yes"/>
      <point x="272" y="501"/>
      <point x="199" y="540"/>
      <point x="140" y="533" type="curve"/>
      <point x="189" y="521"/>
      <point x="258" y="569"/>
      <point x="258" y="621" type="curve" smooth="yes"/>
      <point x="258" y="675"/>
      <point x="205" y="713"/>
    </contour>
  </outline>
</glyph>
<glyph name="paragraph" format="1">
  <advance width="520"/>
  <unicode hex="00B6"/>
  <outline>
    <contour>
      <point x="503" y="743" type="line"/>
      <point x="462" y="695"/>
      <point x="429" y="700"/>
      <point x="407" y="700" type="curve"/>
      <point x="246" y="700" type="line"/>
      <point x="138" y="700"/>
      <point x="51" y="630"/>
      <point x="50" y="517" type="curve"/>
      <point x="49" y="403"/>
      <point x="136" y="333"/>
      <point x="246" y="333" type="curve"/>
      <point x="249" y="0" type="line" smooth="yes"/>
      <point x="249" y="-97"/>
      <point x="242" y="-132"/>
      <point x="186" y="-190" type="curve"/>
      <point x="193" y="-199" type="line"/>
      <point x="275" y="-156"/>
      <point x="279" y="-77"/>
      <point x="279" y="0" type="curve" smooth="yes"/>
      <point x="279" y="670" type="line"/>
      <point x="405" y="670" type="line"/>
      <point x="464" y="671"/>
      <point x="494" y="700"/>
      <point x="510" y="737" type="curve"/>
    </contour>
    <contour>
      <point x="362" y="687" type="line"/>
      <point x="362" y="145" type="line" smooth="yes"/>
      <point x="362" y="79"/>
      <point x="364" y="44"/>
      <point x="335" y="-5" type="curve"/>
      <point x="344" y="-13" type="line"/>
      <point x="383" y="35"/>
      <point x="392" y="70"/>
      <point x="392" y="147" type="curve" smooth="yes"/>
      <point x="392" y="687" type="line"/>
    </contour>
  </outline>
</glyph>
<glyph name="periodcentered" format="1">
  <advance width="170"/>
  <unicode hex="00B7"/>
  <outline>
    <contour>
      <point x="85" y="305" type="curve" smooth="yes"/>
      <point x="110" y="305"/>
      <point x="130" y="325"/>
      <point x="130" y="350" type="curve" smooth="yes"/>
      <point x="130" y="375"/>
      <point x="110" y="395"/>
      <point x="85" y="395" type="curve" smooth="yes"/>
      <point x="60" y="395"/>
      <point x="40" y="375"/>
      <point x="40" y="350" type="curve" smooth="yes"/>
      <point x="40" y="325"/>
      <point x="60" y="305"/>
    </contour>
  </outline>
</glyph>
<glyph name="cedilla" format="1">
  <advance width="600"/>
  <unicode hex="00B8"/>
  <outline>
    <contour>
      <point x="248" y="-62" type="line"/>
      <point x="248" y="-62"/>
      <point x="253" y="-72"/>
      <point x="253" y="-72" type="curve"/>
      <point x="288" y="-57"/>
      <point x="335" y="-63"/>
      <point x="337" y="-105" type="curve" smooth="yes"/>
      <point x="338" y="-153"/>
      <point x="288" y="-169"/>
      <point x="247" y="-169" type="curve"/>
      <point x="246" y="-179" type="line"/>
      <point x="313" y="-200"/>
      <point x="389" y="-169"/>
      <point x="387" y="-106" type="curve" smooth="yes"/>
      <point x="384" y="-37"/>
      <point x="317" y="-36"/>
      <point x="282" y="-48" type="curve"/>
      <point x="323" y="1" type="line"/>
      <point x="296" y="1" type="line"/>
    </contour>
    <contour>
      <point x="305" y="0" type="move" name="_bottom"/>
    </contour>
  </outline>
</glyph>
<glyph name="onesuperior" format="1">
  <advance width="211"/>
  <unicode hex="00B9"/>
  <outline>
    <contour>
      <point x="45" y="308" type="line"/>
      <point x="45" y="315" type="line"/>
      <point x="59" y="315" type="line" smooth="yes"/>
      <point x="79" y="315"/>
      <point x="96" y="331"/>
      <point x="96" y="351" type="curve" smooth="yes"/>
      <point x="96" y="632" type="line"/>
      <point x="96" y="653"/>
      <point x="85" y="665"/>
      <point x="65" y="665" type="curve"/>
      <point x="40" y="665" type="line"/>
      <point x="40" y="671" type="line"/>
      <point x="75" y="676"/>
      <point x="108" y="683"/>
      <point x="134" y="714" type="curve"/>
      <point x="141" y="714" type="line"/>
      <point x="141" y="350" type="line" smooth="yes"/>
      <point x="141" y="331"/>
      <point x="157" y="315"/>
      <point x="177" y="315" type="curve" smooth="yes"/>
      <point x="191" y="315" type="line"/>
      <point x="191" y="308" type="line"/>
    </contour>
  </outline>
</glyph>
<glyph name="ordmasculine" format="1">
  <advance width="412"/>
  <unicode hex="00BA"/>
  <outline>
    <contour>
      <point x="206" y="714" type="curve" smooth="yes"/>
      <point x="109" y="714"/>
      <point x="30" y="638"/>
      <point x="30" y="542" type="curve" smooth="yes"/>
      <point x="30" y="445"/>
      <point x="109" y="370"/>
      <point x="206" y="370" type="curve" smooth="yes"/>
      <point x="303" y="370"/>
      <point x="383" y="445"/>
      <point x="383" y="542" type="curve" smooth="yes"/>
      <point x="383" y="638"/>
      <point x="303" y="714"/>
    </contour>
    <contour>
      <point x="206" y="391" type="curve" smooth="yes"/>
      <point x="136" y="391"/>
      <point x="85" y="456"/>
      <point x="85" y="542" type="curve" smooth="yes"/>
      <point x="85" y="628"/>
      <point x="136" y="693"/>
      <point x="206" y="693" type="curve" smooth="yes"/>
      <point x="277" y="693"/>
      <point x="328" y="628"/>
      <point x="328" y="542" type="curve" smooth="yes"/>
      <point x="328" y="456"/>
      <point x="277" y="391"/>
    </contour>
  </outline>
</glyph>
<glyph name="guillemotright" format="1">
  <advance width="453"/>
  <unicode hex="00BB"/>
  <outline>
    <contour>
      <point x="239" y="90" type="line"/>
      <point x="230" y="95" type="line"/>
      <point x="349" y="292" type="line"/>
      <point x="231" y="485" type="line"/>
      <point x="239" y="490" type="line"/>
      <point x="414" y="292" type="line"/>
    </contour>
    <contour>
      <point x="69" y="90" type="line"/>
      <point x="60" y="95" type="line"/>
      <point x="179" y="292" type="line"/>
      <point x="61" y="485" type="line"/>
      <point x="69" y="490" type="line"/>
      <point x="244" y="292" type="line"/>
    </contour>
  </outline>
</glyph>
<glyph name="onequarter" format="1">
  <advance width="713"/>
  <unicode hex="00BC"/>
  <outline>
    <contour>
      <point x="573" y="0" type="line"/>
      <point x="617" y="0" type="line"/>
      <point x="617" y="405" type="line"/>
      <point x="611" y="405" type="line"/>
      <point x="573" y="338" type="line"/>
    </contour>
    <contour>
      <point x="391" y="137" type="line"/>
      <point x="391" y="130" type="line"/>
      <point x="675" y="130" type="line"/>
      <point x="689" y="177" type="line"/>
      <point x="682" y="177" type="line"/>
      <point x="674" y="168"/>
      <point x="671" y="164"/>
      <point x="646" y="164" type="curve"/>
      <point x="445" y="164" type="line"/>
      <point x="617" y="378" type="line"/>
      <point x="610" y="405" type="line"/>
    </contour>
    <contour>
      <point x="573" y="42" type="line"/>
      <point x="573" y="21"/>
      <point x="556" y="6"/>
      <point x="536" y="6" type="curve" smooth="yes"/>
      <point x="529" y="6" type="line"/>
      <point x="529" y="-1" type="line"/>
      <point x="661" y="-1" type="line"/>
      <point x="661" y="6" type="line"/>
      <point x="654" y="6" type="line" smooth="yes"/>
      <point x="634" y="6"/>
      <point x="617" y="22"/>
      <point x="617" y="42" type="curve"/>
    </contour>
    <contour>
      <point x="65" y="308" type="line"/>
      <point x="65" y="315" type="line"/>
      <point x="79" y="315" type="line" smooth="yes"/>
      <point x="99" y="315"/>
      <point x="116" y="331"/>
      <point x="116" y="351" type="curve" smooth="yes"/>
      <point x="116" y="632" type="line"/>
      <point x="116" y="653"/>
      <point x="105" y="665"/>
      <point x="85" y="665" type="curve"/>
      <point x="60" y="665" type="line"/>
      <point x="60" y="671" type="line"/>
      <point x="95" y="676"/>
      <point x="128" y="683"/>
      <point x="154" y="714" type="curve"/>
      <point x="161" y="714" type="line"/>
      <point x="161" y="350" type="line" smooth="yes"/>
      <point x="161" y="331"/>
      <point x="177" y="315"/>
      <point x="197" y="315" type="curve" smooth="yes"/>
      <point x="211" y="315" type="line"/>
      <point x="211" y="308" type="line"/>
    </contour>
    <contour>
      <point x="578" y="714" type="line"/>
      <point x="602" y="697" type="line"/>
      <point x="125" y="-14" type="line"/>
      <point x="100" y="2" type="line"/>
    </contour>
  </outline>
</glyph>
<glyph name="threequarters" format="1">
  <advance width="713"/>
  <unicode hex="00BE"/>
  <outline>
    <contour>
      <point x="135" y="712" type="curve" smooth="yes"/>
      <point x="88" y="712"/>
      <point x="58" y="697"/>
      <point x="40" y="675" type="curve"/>
      <point x="51" y="613" type="line"/>
      <point x="58" y="613" type="line"/>
      <point x="56" y="669"/>
      <point x="84" y="688"/>
      <point x="135" y="688" type="curve" smooth="yes"/>
      <point x="176" y="688"/>
      <point x="205" y="663"/>
      <point x="206" y="623" type="curve" smooth="yes"/>
      <point x="207" y="564"/>
      <point x="153" y="529"/>
      <point x="90" y="529" type="curve"/>
      <point x="89" y="523" type="line"/>
      <point x="169" y="523"/>
      <point x="219" y="500"/>
      <point x="219" y="437" type="curve" smooth="yes"/>
      <point x="219" y="340"/>
      <point x="137" y="290"/>
      <point x="31" y="293" type="curve"/>
      <point x="30" y="286" type="line"/>
      <point x="165" y="260"/>
      <point x="272" y="321"/>
      <point x="272" y="439" type="curve" smooth="yes"/>
      <point x="272" y="501"/>
      <point x="199" y="540"/>
      <point x="140" y="533" type="curve"/>
      <point x="189" y="521"/>
      <point x="258" y="569"/>
      <point x="258" y="621" type="curve" smooth="yes"/>
      <point x="258" y="675"/>
      <point x="205" y="713"/>
    </contour>
    <contour>
      <point x="578" y="0" type="line"/>
      <point x="622" y="0" type="line"/>
      <point x="622" y="405" type="line"/>
      <point x="616" y="405" type="line"/>
      <point x="578" y="338" type="line"/>
    </contour>
    <contour>
      <point x="396" y="137" type="line"/>
      <point x="396" y="130" type="line"/>
      <point x="680" y="130" type="line"/>
      <point x="694" y="177" type="line"/>
      <point x="687" y="177" type="line"/>
      <point x="679" y="168"/>
      <point x="676" y="164"/>
      <point x="651" y="164" type="curve"/>
      <point x="450" y="164" type="line"/>
      <point x="622" y="378" type="line"/>
      <point x="615" y="405" type="line"/>
    </contour>
    <contour>
      <point x="578" y="42" type="line"/>
      <point x="578" y="21"/>
      <point x="561" y="6"/>
      <point x="541" y="6" type="curve" smooth="yes"/>
      <point x="534" y="6" type="line"/>
      <point x="534" y="-1" type="line"/>
      <point x="666" y="-1" type="line"/>
      <point x="666" y="6" type="line"/>
      <point x="659" y="6" type="line" smooth="yes"/>
      <point x="639" y="6"/>
      <point x="622" y="22"/>
      <point x="622" y="42" type="curve"/>
    </contour>
    <contour>
      <point x="621" y="714" type="line"/>
      <point x="645" y="697" type="line"/>
      <point x="168" y="-14" type="line"/>
      <point x="143" y="2" type="line"/>
    </contour>
  </outline>
</glyph>
<glyph name="questiondown" format="1">
  <advance width="433"/>
  <unicode hex="00BF"/>
  <outline>
    <contour>
      <point x="383" y="170" type="line"/>
      <point x="373" y="170" type="line"/>
      <point x="375" y="74"/>
      <point x="325" y="16"/>
      <point x="246" y="16" type="curve" smooth="yes"/>
      <point x="171" y="16"/>
      <point x="125" y="68"/>
      <point x="125" y="156" type="curve" smooth="yes"/>
      <point x="125" y="281"/>
      <point x="268" y="340"/>
      <point x="268" y="434" type="curve" smooth="yes"/>
      <point x="268" y="466"/>
      <point x="258" y="498"/>
      <point x="223" y="530" type="curve"/>
      <point x="217" y="525" type="line"/>
      <point x="242" y="493"/>
      <point x="236" y="465"/>
      <point x="227" y="433" type="curve" smooth="yes"/>
      <point x="201" y="340"/>
      <point x="50" y="291"/>
      <point x="50" y="156" type="curve" smooth="yes"/>
      <point x="50" y="50"/>
      <point x="124" y="-14"/>
      <point x="246" y="-14" type="curve" smooth="yes"/>
      <point x="310" y="-14"/>
      <point x="363" y="19"/>
      <point x="393" y="75" type="curve"/>
    </contour>
    <contour>
      <point x="233" y="704" type="curve" smooth="yes"/>
      <point x="208" y="704"/>
      <point x="188" y="684"/>
      <point x="188" y="659" type="curve" smooth="yes"/>
      <point x="188" y="634"/>
      <point x="208" y="614"/>
      <point x="233" y="614" type="curve" smooth="yes"/>
      <point x="258" y="614"/>
      <point x="278" y="634"/>
      <point x="278" y="659" type="curve" smooth="yes"/>
      <point x="278" y="684"/>
      <point x="258" y="704"/>
    </contour>
  </outline>
</glyph>
<glyph name="Aring" format="1">
  <advance width="712"/>
  <unicode hex="00C5"/>
  <outline>
    <contour>
      <point x="339" y="619" type="line"/>
      <point x="570" y="6" type="line"/>
      <point x="655" y="6" type="line"/>
      <point x="359" y="714" type="line"/>
    </contour>
    <contour>
      <point x="87" y="73" type="line"/>
      <point x="66" y="28"/>
      <point x="29" y="10"/>
      <point x="-1" y="10" type="curve" smooth="yes"/>
      <point x="-1" y="10"/>
      <point x="-10" y="10"/>
      <point x="-10" y="10" type="curve"/>
      <point x="-10" y="0" type="line"/>
      <point x="191" y="0" type="line"/>
      <point x="191" y="10" type="line"/>
      <point x="182" y="10" type="line" smooth="yes"/>
      <point x="157" y="10"/>
      <point x="130" y="33"/>
      <point x="144" y="73" type="curve"/>
    </contour>
    <contour>
      <point x="350" y="714" type="line"/>
      <point x="350" y="692"/>
      <point x="313" y="611"/>
      <point x="313" y="611" type="curve"/>
      <point x="57" y="3" type="line"/>
      <point x="117" y="3" type="line"/>
      <point x="368" y="644" type="line"/>
      <point x="359" y="714" type="line"/>
    </contour>
    <contour>
      <point x="187" y="273" type="line"/>
      <point x="187" y="243" type="line"/>
      <point x="500" y="243" type="line"/>
      <point x="500" y="273" type="line"/>
    </contour>
    <contour>
      <point x="545" y="73" type="line"/>
      <point x="559" y="33"/>
      <point x="532" y="10"/>
      <point x="507" y="10" type="curve" smooth="yes"/>
      <point x="498" y="10" type="line"/>
      <point x="498" y="0" type="line"/>
      <point x="723" y="0" type="line"/>
      <point x="723" y="10" type="line"/>
      <point x="723" y="10"/>
      <point x="715" y="10"/>
      <point x="715" y="10" type="curve" smooth="yes"/>
      <point x="684" y="10"/>
      <point x="647" y="28"/>
      <point x="627" y="73" type="curve"/>
    </contour>
    <contour>
      <point x="356" y="837" type="curve" smooth="yes"/>
      <point x="307" y="837"/>
      <point x="271" y="809"/>
      <point x="271" y="769" type="curve" smooth="yes"/>
      <point x="271" y="730"/>
      <point x="307" y="701"/>
      <point x="356" y="701" type="curve" smooth="yes"/>
      <point x="404" y="701"/>
      <point x="441" y="730"/>
      <point x="441" y="769" type="curve" smooth="yes"/>
      <point x="441" y="812"/>
      <point x="404" y="837"/>
    </contour>
    <contour>
      <point x="356" y="822" type="curve" smooth="yes"/>
      <point x="381" y="822"/>
      <point x="400" y="803"/>
      <point x="400" y="769" type="curve" smooth="yes"/>
      <point x="400" y="736"/>
      <point x="381" y="717"/>
      <point x="356" y="717" type="curve" smooth="yes"/>
      <point x="331" y="717"/>
      <point x="311" y="736"/>
      <point x="311" y="769" type="curve" smooth="yes"/>
      <point x="311" y="803"/>
      <point x="331" y="822"/>
    </contour>
  </outline>
</glyph>
<glyph name="AE" format="1">
  <advance width="902"/>
  <unicode hex="00C6"/>
  <outline>
    <contour>
      <point x="89" y="71" type="line"/>
      <point x="69" y="40"/>
      <point x="30" y="10"/>
      <point x="-3" y="10" type="curve" smooth="yes"/>
      <point x="-3" y="10"/>
      <point x="-10" y="10"/>
      <point x="-10" y="10" type="curve"/>
      <point x="-10" y="0" type="line"/>
      <point x="189" y="0" type="line"/>
      <point x="189" y="10" type="line"/>
      <point x="179" y="10" type="line" smooth="yes"/>
      <point x="149" y="8"/>
      <point x="136" y="39"/>
      <point x="153" y="67" type="curve"/>
    </contour>
    <contour>
      <point x="466" y="654" type="line"/>
      <point x="466" y="0" type="line"/>
      <point x="531" y="0" type="line"/>
      <point x="531" y="700" type="line"/>
    </contour>
    <contour>
      <point x="466" y="58" type="line"/>
      <point x="465" y="32"/>
      <point x="443" y="10"/>
      <point x="416" y="10" type="curve" smooth="yes"/>
      <point x="416" y="10"/>
      <point x="407" y="10"/>
      <point x="407" y="10" type="curve"/>
      <point x="406" y="0" type="line"/>
      <point x="468" y="0" type="line"/>
      <point x="468" y="58" type="line"/>
    </contour>
    <contour>
      <point x="528" y="31" type="line"/>
      <point x="528" y="0" type="line"/>
      <point x="801" y="0" type="line"/>
      <point x="801" y="31" type="line"/>
    </contour>
    <contour>
      <point x="298" y="350" type="line"/>
      <point x="293" y="320" type="line"/>
      <point x="758" y="320" type="line"/>
      <point x="758" y="350" type="line"/>
    </contour>
    <contour>
      <point x="438" y="700" type="line"/>
      <point x="438" y="690" type="line"/>
      <point x="442" y="690" type="line"/>
      <point x="460" y="690"/>
      <point x="471" y="673"/>
      <point x="463" y="655" type="curve"/>
      <point x="46" y="3" type="line"/>
      <point x="115" y="3" type="line"/>
      <point x="488" y="635" type="line"/>
      <point x="491" y="669" type="line"/>
      <point x="800" y="669" type="line"/>
      <point x="800" y="700" type="line"/>
    </contour>
    <contour>
      <point x="848" y="139" type="line"/>
      <point x="821" y="76"/>
      <point x="773" y="31"/>
      <point x="693" y="31" type="curve"/>
      <point x="663" y="0" type="line"/>
      <point x="802" y="0" type="line"/>
      <point x="858" y="139" type="line"/>
    </contour>
    <contour>
      <point x="700" y="322" type="line"/>
      <point x="700" y="320" type="line"/>
      <point x="726" y="320"/>
      <point x="748" y="298"/>
      <point x="748" y="271" type="curve" smooth="yes"/>
      <point x="748" y="256" type="line"/>
      <point x="758" y="256" type="line"/>
      <point x="758" y="322" type="line"/>
    </contour>
    <contour>
      <point x="748" y="414" type="line"/>
      <point x="748" y="400" type="line" smooth="yes"/>
      <point x="748" y="373"/>
      <point x="726" y="351"/>
      <point x="700" y="350" type="curve"/>
      <point x="700" y="348" type="line"/>
      <point x="758" y="348" type="line"/>
      <point x="758" y="414" type="line"/>
    </contour>
    <contour>
      <point x="742" y="672" type="line"/>
      <point x="742" y="669" type="line"/>
      <point x="769" y="669"/>
      <point x="791" y="647"/>
      <point x="791" y="620" type="curve" smooth="yes"/>
      <point x="790" y="605" type="line"/>
      <point x="800" y="605" type="line"/>
      <point x="800" y="672" type="line"/>
    </contour>
    <contour>
      <point x="800" y="718" type="line"/>
      <point x="782" y="710"/>
      <point x="722" y="700"/>
      <point x="679" y="700" type="curve"/>
      <point x="800" y="689" type="line"/>
    </contour>
    <contour>
      <point x="612" y="700" type="move" name="top"/>
    </contour>
  </outline>
</glyph>
<glyph name="Igrave" format="1">
  <advance width="338"/>
  <unicode hex="00CC"/>
  <outline>
    <contour>
      <point x="137" y="700" type="line"/>
      <point x="137" y="0" type="line"/>
      <point x="202" y="0" type="line"/>
      <point x="202" y="700" type="line"/>
    </contour>
    <contour>
      <point x="137" y="73" type="line"/>
      <point x="136" y="38"/>
      <point x="108" y="10"/>
      <point x="73" y="10" type="curve" smooth="yes"/>
      <point x="73" y="10"/>
      <point x="60" y="10"/>
      <point x="60" y="10" type="curve"/>
      <point x="60" y="0" type="line"/>
      <point x="140" y="0" type="line"/>
      <point x="140" y="73" type="line"/>
    </contour>
    <contour>
      <point x="140" y="700" type="line"/>
      <point x="60" y="700" type="line"/>
      <point x="60" y="690" type="line"/>
      <point x="60" y="690"/>
      <point x="73" y="690"/>
      <point x="73" y="690" type="curve" smooth="yes"/>
      <point x="108" y="690"/>
      <point x="136" y="662"/>
      <point x="137" y="627" type="curve"/>
      <point x="140" y="627" type="line"/>
    </contour>
    <contour>
      <point x="199" y="0" type="line"/>
      <point x="279" y="0" type="line"/>
      <point x="279" y="10" type="line"/>
      <point x="278" y="10"/>
      <point x="266" y="10"/>
      <point x="266" y="10" type="curve" smooth="yes"/>
      <point x="231" y="10"/>
      <point x="203" y="38"/>
      <point x="202" y="73" type="curve"/>
      <point x="199" y="73" type="line"/>
    </contour>
    <contour>
      <point x="202" y="627" type="line"/>
      <point x="203" y="662"/>
      <point x="231" y="690"/>
      <point x="266" y="690" type="curve" smooth="yes"/>
      <point x="266" y="690"/>
      <point x="278" y="690"/>
      <point x="279" y="690" type="curve"/>
      <point x="279" y="700" type="line"/>
      <point x="199" y="700" type="line"/>
      <point x="199" y="627" type="line"/>
    </contour>
    <contour>
      <point x="176" y="771" type="line"/>
      <point x="134" y="818"/>
      <point x="92" y="861"/>
      <point x="49" y="902" type="curve"/>
      <point x="34" y="887"/>
      <point x="19" y="870"/>
      <point x="8" y="849" type="curve"/>
      <point x="62" y="818"/>
      <point x="116" y="789"/>
      <point x="169" y="764" type="curve"/>
    </contour>
  </outline>
</glyph>
<glyph name="Eth" format="1">
  <advance width="807"/>
  <unicode hex="00D0"/>
  <outline>
    <contour>
      <point x="60" y="335" type="line"/>
      <point x="370" y="335" type="line"/>
      <point x="370" y="365" type="line"/>
      <point x="60" y="365" type="line"/>
    </contour>
    <contour>
      <point x="179" y="700" type="line"/>
      <point x="179" y="670" type="line"/>
      <point x="179" y="670"/>
      <point x="403" y="670"/>
      <point x="403" y="670" type="curve" smooth="yes"/>
      <point x="574" y="670"/>
      <point x="688" y="542"/>
      <point x="688" y="350" type="curve" smooth="yes"/>
      <point x="688" y="158"/>
      <point x="574" y="30"/>
      <point x="403" y="30" type="curve" smooth="yes"/>
      <point x="403" y="30"/>
      <point x="189" y="30"/>
      <point x="189" y="30" type="curve"/>
      <point x="190" y="0" type="line"/>
      <point x="403" y="0" type="line"/>
      <point x="617" y="0"/>
      <point x="758" y="140"/>
      <point x="758" y="350" type="curve" smooth="yes"/>
      <point x="758" y="560"/>
      <point x="617" y="700"/>
      <point x="403" y="700" type="curve"/>
    </contour>
    <contour>
      <point x="142" y="700" type="line"/>
      <point x="142" y="0" type="line"/>
      <point x="207" y="0" type="line"/>
      <point x="207" y="700" type="line"/>
    </contour>
    <contour>
      <point x="142" y="73" type="line"/>
      <point x="141" y="38"/>
      <point x="113" y="10"/>
      <point x="78" y="10" type="curve" smooth="yes"/>
      <point x="78" y="10"/>
      <point x="65" y="10"/>
      <point x="65" y="10" type="curve"/>
      <point x="65" y="0" type="line"/>
      <point x="145" y="0" type="line"/>
      <point x="145" y="73" type="line"/>
    </contour>
    <contour>
      <point x="145" y="700" type="line"/>
      <point x="65" y="700" type="line"/>
      <point x="65" y="690" type="line"/>
      <point x="66" y="690"/>
      <point x="78" y="690"/>
      <point x="78" y="690" type="curve" smooth="yes"/>
      <point x="113" y="690"/>
      <point x="141" y="662"/>
      <point x="142" y="627" type="curve"/>
      <point x="145" y="627" type="line"/>
    </contour>
  </outline>
</glyph>
<glyph name="Ograve" format="1">
  <advance width="838"/>
  <unicode hex="00D2"/>
  <outline>
    <contour>
      <point x="419" y="714" type="curve" smooth="yes"/>
      <point x="207" y="714"/>
      <point x="60" y="568"/>
      <point x="60" y="350" type="curve" smooth="yes"/>
      <point x="60" y="132"/>
      <point x="207" y="-14"/>
      <point x="419" y="-14" type="curve" smooth="yes"/>
      <point x="632" y="-14"/>
      <point x="779" y="132"/>
      <point x="779" y="350" type="curve" smooth="yes"/>
      <point x="779" y="568"/>
      <point x="632" y="714"/>
    </contour>
    <contour>
      <point x="419" y="16" type="curve" smooth="yes"/>
      <point x="250" y="16"/>
      <point x="137" y="150"/>
      <point x="137" y="350" type="curve" smooth="yes"/>
      <point x="137" y="550"/>
      <point x="250" y="684"/>
      <point x="419" y="684" type="curve" smooth="yes"/>
      <point x="589" y="684"/>
      <point x="702" y="550"/>
      <point x="702" y="350" type="curve" smooth="yes"/>
      <point x="702" y="150"/>
      <point x="589" y="16"/>
    </contour>
    <contour>
      <point x="426" y="771" type="line"/>
      <point x="384" y="818"/>
      <point x="341" y="861"/>
      <point x="299" y="902" type="curve"/>
      <point x="283" y="887"/>
      <point x="269" y="870"/>
      <point x="258" y="849" type="curve"/>
      <point x="312" y="818"/>
      <point x="365" y="789"/>
      <point x="419" y="764" type="curve"/>
    </contour>
  </outline>
</glyph>
<glyph name="multiply" format="1">
  <advance width="415"/>
  <unicode hex="00D7"/>
  <outline>
    <contour>
      <point x="50" y="436" type="line"/>
      <point x="334" y="152" type="line"/>
      <point x="366" y="184" type="line"/>
      <point x="82" y="468" type="line"/>
    </contour>
    <contour>
      <point x="334" y="468" type="line"/>
      <point x="50" y="184" type="line"/>
      <point x="82" y="152" type="line"/>
      <point x="366" y="436" type="line"/>
    </contour>
  </outline>
</glyph>
<glyph name="Oslash" format="1">
  <advance width="828"/>
  <unicode hex="00D8"/>
  <outline>
    <contour>
      <point x="414" y="714" type="curve" smooth="yes"/>
      <point x="202" y="714"/>
      <point x="60" y="568"/>
      <point x="60" y="350" type="curve" smooth="yes"/>
      <point x="60" y="132"/>
      <point x="202" y="-14"/>
      <point x="414" y="-14" type="curve" smooth="yes"/>
      <point x="627" y="-14"/>
      <point x="769" y="132"/>
      <point x="769" y="350" type="curve" smooth="yes"/>
      <point x="769" y="568"/>
      <point x="627" y="714"/>
    </contour>
    <contour>
      <point x="414" y="16" type="curve" smooth="yes"/>
      <point x="245" y="16"/>
      <point x="132" y="150"/>
      <point x="132" y="350" type="curve" smooth="yes"/>
      <point x="132" y="550"/>
      <point x="245" y="684"/>
      <point x="414" y="684" type="curve" smooth="yes"/>
      <point x="584" y="684"/>
      <point x="697" y="550"/>
      <point x="697" y="350" type="curve" smooth="yes"/>
      <point x="697" y="150"/>
      <point x="584" y="16"/>
    </contour>
    <contour>
      <point x="98" y="-1" type="line"/>
      <point x="123" y="-23" type="line"/>
      <point x="725" y="700" type="line"/>
      <point x="699" y="722" type="line"/>
    </contour>
    <contour>
      <point x="300" y="700" type="move" name="top"/>
    </contour>
  </outline>
</glyph>
<glyph name="Thorn" format="1">
  <advance width="554"/>
  <unicode hex="00DE"/>
  <outline>
    <contour>
      <point x="120" y="700" type="line"/>
      <point x="120" y="0" type="line"/>
      <point x="185" y="0" type="line"/>
      <point x="185" y="700" type="line"/>
    </contour>
    <contour>
      <point x="120" y="73" type="line"/>
      <point x="119" y="38"/>
      <point x="91" y="10"/>
      <point x="56" y="10" type="curve" smooth="yes"/>
      <point x="55" y="10"/>
      <point x="43" y="10"/>
      <point x="43" y="10" type="curve"/>
      <point x="43" y="0" type="line"/>
      <point x="122" y="0" type="line"/>
      <point x="122" y="73" type="line"/>
    </contour>
    <contour>
      <point x="122" y="700" type="line"/>
      <point x="43" y="700" type="line"/>
      <point x="43" y="690" type="line"/>
      <point x="43" y="690"/>
      <point x="55" y="690"/>
      <point x="56" y="690" type="curve" smooth="yes"/>
      <point x="91" y="690"/>
      <point x="119" y="662"/>
      <point x="120" y="627" type="curve"/>
      <point x="122" y="627" type="line"/>
    </contour>
    <contour>
      <point x="182" y="0" type="line"/>
      <point x="261" y="0" type="line"/>
      <point x="261" y="10" type="line"/>
      <point x="261" y="10"/>
      <point x="249" y="10"/>
      <point x="249" y="10" type="curve" smooth="yes"/>
      <point x="214" y="10"/>
      <point x="185" y="38"/>
      <point x="185" y="73" type="curve"/>
      <point x="182" y="73" type="line"/>
    </contour>
    <contour>
      <point x="185" y="627" type="line"/>
      <point x="185" y="662"/>
      <point x="214" y="690"/>
      <point x="249" y="690" type="curve" smooth="yes"/>
      <point x="249" y="690"/>
      <point x="261" y="690"/>
      <point x="261" y="690" type="curve"/>
      <point x="261" y="700" type="line"/>
      <point x="182" y="700" type="line"/>
      <point x="182" y="627" type="line"/>
    </contour>
    <contour>
      <point x="172" y="548" type="line" smooth="yes"/>
      <point x="172" y="548"/>
      <point x="182" y="518"/>
      <point x="182" y="518" type="curve"/>
      <point x="300" y="518" type="line"/>
      <point x="385" y="518"/>
      <point x="432" y="457"/>
      <point x="435" y="365" type="curve" smooth="yes"/>
      <point x="435" y="343"/>
      <point x="433" y="319"/>
      <point x="428" y="305" type="curve" smooth="yes"/>
      <point x="383" y="161"/>
      <point x="219" y="197"/>
      <point x="219" y="197" type="curve"/>
      <point x="219" y="187" type="line"/>
      <point x="344" y="121"/>
      <point x="505" y="202"/>
      <point x="505" y="355" type="curve" smooth="yes"/>
      <point x="505" y="473"/>
      <point x="436" y="548"/>
      <point x="304" y="548" type="curve" smooth="yes"/>
    </contour>
  </outline>
</glyph>
<glyph name="ae" format="1">
  <advance width="834"/>
  <unicode hex="00E6"/>
  <outline>
    <contour>
      <point x="81" y="62" type="line"/>
      <point x="64" y="34"/>
      <point x="30" y="10"/>
      <point x="1" y="10" type="curve" smooth="yes"/>
      <point x="1" y="10"/>
      <point x="-5" y="10"/>
      <point x="-5" y="10" type="curve"/>
      <point x="-5" y="0" type="line"/>
      <point x="174" y="0" type="line"/>
      <point x="174" y="10" type="line"/>
      <point x="166" y="10" type="line" smooth="yes"/>
      <point x="140" y="10"/>
      <point x="129" y="33"/>
      <point x="143" y="58" type="curve"/>
    </contour>
    <contour>
      <point x="433" y="561" type="line"/>
      <point x="433" y="0" type="line"/>
      <point x="498" y="0" type="line"/>
      <point x="498" y="600" type="line"/>
    </contour>
    <contour>
      <point x="433" y="50" type="line"/>
      <point x="432" y="27"/>
      <point x="413" y="10"/>
      <point x="390" y="10" type="curve" smooth="yes"/>
      <point x="390" y="10"/>
      <point x="382" y="10"/>
      <point x="382" y="10" type="curve"/>
      <point x="382" y="0" type="line"/>
      <point x="435" y="0" type="line"/>
      <point x="435" y="50" type="line"/>
    </contour>
    <contour>
      <point x="495" y="30" type="line"/>
      <point x="495" y="0" type="line"/>
      <point x="750" y="0" type="line"/>
      <point x="750" y="30" type="line"/>
    </contour>
    <contour>
      <point x="268" y="302" type="line"/>
      <point x="264" y="271" type="line"/>
      <point x="715" y="271" type="line"/>
      <point x="715" y="302" type="line"/>
    </contour>
    <contour>
      <point x="409" y="600" type="line"/>
      <point x="409" y="592" type="line"/>
      <point x="412" y="592" type="line"/>
      <point x="428" y="592"/>
      <point x="438" y="577"/>
      <point x="431" y="562" type="curve"/>
      <point x="41" y="3" type="line"/>
      <point x="109" y="3" type="line"/>
      <point x="452" y="541" type="line"/>
      <point x="454" y="568" type="line"/>
      <point x="750" y="568" type="line"/>
      <point x="750" y="600" type="line"/>
    </contour>
    <contour>
      <point x="789" y="124" type="line"/>
      <point x="766" y="69"/>
      <point x="727" y="30"/>
      <point x="657" y="30" type="curve"/>
      <point x="632" y="0" type="line"/>
      <point x="752" y="0" type="line"/>
      <point x="800" y="124" type="line"/>
    </contour>
    <contour>
      <point x="663" y="273" type="line"/>
      <point x="663" y="271" type="line"/>
      <point x="687" y="271"/>
      <point x="705" y="252"/>
      <point x="705" y="229" type="curve" smooth="yes"/>
      <point x="705" y="219" type="line"/>
      <point x="715" y="219" type="line"/>
      <point x="715" y="273" type="line"/>
    </contour>
    <contour>
      <point x="705" y="357" type="line"/>
      <point x="705" y="344" type="line" smooth="yes"/>
      <point x="705" y="321"/>
      <point x="687" y="302"/>
      <point x="663" y="302" type="curve"/>
      <point x="663" y="300" type="line"/>
      <point x="715" y="300" type="line"/>
      <point x="715" y="357" type="line"/>
    </contour>
    <contour>
      <point x="698" y="570" type="line"/>
      <point x="698" y="568" type="line"/>
      <point x="721" y="568"/>
      <point x="740" y="549"/>
      <point x="740" y="526" type="curve" smooth="yes"/>
      <point x="740" y="513" type="line"/>
      <point x="750" y="513" type="line"/>
      <point x="750" y="570" type="line"/>
    </contour>
    <contour>
      <point x="750" y="616" type="line"/>
      <point x="734" y="609"/>
      <point x="683" y="600"/>
      <point x="645" y="600" type="curve"/>
      <point x="750" y="591" type="line"/>
    </contour>
    <contour>
      <point x="624" y="500" type="move" name="top"/>
    </contour>
  </outline>
</glyph>
<glyph name="divide" format="1">
  <advance width="481"/>
  <unicode hex="00F7"/>
  <outline>
    <contour>
      <point x="40" y="287" type="line"/>
      <point x="442" y="287" type="line"/>
      <point x="442" y="332" type="line"/>
      <point x="40" y="332" type="line"/>
    </contour>
    <contour>
      <point x="241" y="117" type="curve" smooth="yes"/>
      <point x="260" y="117"/>
      <point x="276" y="133"/>
      <point x="276" y="152" type="curve" smooth="yes"/>
      <point x="276" y="172"/>
      <point x="260" y="187"/>
      <point x="241" y="187" type="curve" smooth="yes"/>
      <point x="221" y="187"/>
      <point x="205" y="172"/>
      <point x="205" y="152" type="curve" smooth="yes"/>
      <point x="205" y="133"/>
      <point x="221" y="117"/>
    </contour>
    <contour>
      <point x="241" y="433" type="curve" smooth="yes"/>
      <point x="260" y="433"/>
      <point x="276" y="449"/>
      <point x="276" y="468" type="curve" smooth="yes"/>
      <point x="276" y="488"/>
      <point x="260" y="503"/>
      <point x="241" y="503" type="curve"/>
      <point x="221" y="503"/>
      <point x="205" y="488"/>
      <point x="205" y="468" type="curve" smooth="yes"/>
      <point x="205" y="449"/>
      <point x="221" y="433"/>
    </contour>
  </outline>
</glyph>
<glyph name="oslash" format="1">
  <advance width="774"/>
  <unicode hex="00F8"/>
  <outline>
    <contour>
      <point x="88" y="-1" type="line"/>
      <point x="113" y="-23" type="line"/>
      <point x="639" y="608" type="line"/>
      <point x="613" y="631" type="line"/>
    </contour>
    <contour>
      <point x="387" y="614" type="curve" smooth="yes"/>
      <point x="201" y="614"/>
      <point x="50" y="486"/>
      <point x="50" y="300" type="curve" smooth="yes"/>
      <point x="50" y="114"/>
      <point x="201" y="-14"/>
      <point x="387" y="-14" type="curve" smooth="yes"/>
      <point x="574" y="-14"/>
      <point x="725" y="114"/>
      <point x="725" y="300" type="curve" smooth="yes"/>
      <point x="725" y="486"/>
      <point x="574" y="614"/>
    </contour>
    <contour>
      <point x="387" y="16" type="curve" smooth="yes"/>
      <point x="240" y="16"/>
      <point x="124" y="131"/>
      <point x="124" y="300" type="curve" smooth="yes"/>
      <point x="124" y="469"/>
      <point x="240" y="584"/>
      <point x="387" y="584" type="curve" smooth="yes"/>
      <point x="535" y="584"/>
      <point x="651" y="469"/>
      <point x="651" y="300" type="curve" smooth="yes"/>
      <point x="651" y="131"/>
      <point x="535" y="16"/>
    </contour>
    <contour>
      <point x="290" y="500" type="move" name="top"/>
    </contour>
  </outline>
</glyph>
<glyph name="thorn" format="1">
  <advance width="527"/>
  <unicode hex="00FE"/>
  <outline>
    <contour>
      <point x="172" y="475" type="line" smooth="yes"/>
      <point x="172" y="475"/>
      <point x="182" y="445"/>
      <point x="182" y="445" type="curve"/>
      <point x="280" y="445" type="line"/>
      <point x="369" y="445"/>
      <point x="424" y="396"/>
      <point x="424" y="314" type="curve" smooth="yes"/>
      <point x="424" y="297"/>
      <point x="422" y="274"/>
      <point x="417" y="260" type="curve" smooth="yes"/>
      <point x="372" y="117"/>
      <point x="229" y="159"/>
      <point x="229" y="159" type="curve"/>
      <point x="229" y="150" type="line"/>
      <point x="354" y="84"/>
      <point x="492" y="152"/>
      <point x="492" y="304" type="curve" smooth="yes"/>
      <point x="492" y="410"/>
      <point x="414" y="475"/>
      <point x="284" y="475" type="curve" smooth="yes"/>
    </contour>
    <contour>
      <point x="120" y="600" type="line"/>
      <point x="120" y="0" type="line"/>
      <point x="184" y="0" type="line"/>
      <point x="184" y="600" type="line"/>
    </contour>
    <contour>
      <point x="120" y="64" type="line"/>
      <point x="119" y="34"/>
      <point x="96" y="10"/>
      <point x="66" y="10" type="curve" smooth="yes"/>
      <point x="66" y="10"/>
      <point x="54" y="10"/>
      <point x="54" y="10" type="curve"/>
      <point x="53" y="0" type="line"/>
      <point x="133" y="0" type="line"/>
      <point x="122" y="64" type="line"/>
    </contour>
    <contour>
      <point x="133" y="600" type="line"/>
      <point x="53" y="600" type="line"/>
      <point x="54" y="590" type="line"/>
      <point x="54" y="590"/>
      <point x="66" y="590"/>
      <point x="66" y="590" type="curve" smooth="yes"/>
      <point x="96" y="590"/>
      <point x="119" y="567"/>
      <point x="120" y="537" type="curve"/>
      <point x="122" y="537" type="line"/>
    </contour>
    <contour>
      <point x="170" y="0" type="line"/>
      <point x="250" y="0" type="line"/>
      <point x="250" y="10" type="line"/>
      <point x="250" y="10"/>
      <point x="237" y="10"/>
      <point x="237" y="10" type="curve" smooth="yes"/>
      <point x="207" y="10"/>
      <point x="184" y="34"/>
      <point x="184" y="64" type="curve"/>
      <point x="181" y="64" type="line"/>
    </contour>
    <contour>
      <point x="184" y="537" type="line"/>
      <point x="184" y="567"/>
      <point x="207" y="590"/>
      <point x="237" y="590" type="curve" smooth="yes"/>
      <point x="237" y="590"/>
      <point x="250" y="590"/>
      <point x="250" y="590" type="curve"/>
      <point x="250" y="600" type="line"/>
      <point x="170" y="600" type="line"/>
      <point x="181" y="537" type="line"/>
    </contour>
  </outline>
</glyph>
<glyph name="Aogonek" format="1">
  <advance width="737"/>
  <unicode hex="0104"/>
  <outline>
    <contour>
      <point x="353" y="619" type="line"/>
      <point x="598" y="2" type="line"/>
      <point x="683" y="6" type="line"/>
      <point x="373" y="714" type="line"/>
    </contour>
    <contour>
      <point x="364" y="714" type="line"/>
      <point x="364" y="692"/>
      <point x="327" y="611"/>
      <point x="327" y="611" type="curve"/>
      <point x="56" y="3" type="line"/>
      <point x="116" y="3" type="line"/>
      <point x="382" y="644" type="line"/>
      <point x="373" y="714" type="line"/>
    </contour>
    <contour>
      <point x="201" y="273" type="line"/>
      <point x="201" y="243" type="line"/>
      <point x="513" y="243" type="line"/>
      <point x="513" y="273" type="line"/>
    </contour>
    <contour>
      <point x="87" y="73" type="line"/>
      <point x="66" y="28"/>
      <point x="29" y="10"/>
      <point x="-1" y="10" type="curve" smooth="yes"/>
      <point x="-1" y="10"/>
      <point x="-10" y="10"/>
      <point x="-10" y="10" type="curve"/>
      <point x="-10" y="0" type="line"/>
      <point x="191" y="0" type="line"/>
      <point x="191" y="10" type="line"/>
      <point x="182" y="10" type="line" smooth="yes"/>
      <point x="157" y="10"/>
      <point x="130" y="33"/>
      <point x="144" y="73" type="curve"/>
    </contour>
    <contour>
      <point x="612" y="0" type="curve" smooth="yes"/>
      <point x="655" y="7"/>
      <point x="665" y="0"/>
      <point x="748" y="0" type="curve"/>
      <point x="748" y="9" type="line"/>
      <point x="748" y="9"/>
      <point x="739" y="9"/>
      <point x="739" y="9" type="curve" smooth="yes"/>
      <point x="709" y="9"/>
      <point x="674" y="27"/>
      <point x="656" y="68" type="curve"/>
      <point x="570" y="72" type="line"/>
      <point x="586" y="30"/>
      <point x="581" y="8"/>
      <point x="552" y="-8" type="curve" smooth="yes"/>
      <point x="527" y="-22"/>
      <point x="502" y="-49"/>
      <point x="503" y="-84" type="curve" smooth="yes"/>
      <point x="504" y="-200"/>
      <point x="649" y="-201"/>
      <point x="680" y="-119" type="curve"/>
      <point x="674" y="-113" type="line"/>
      <point x="624" y="-164"/>
      <point x="550" y="-128"/>
      <point x="550" y="-71" type="curve" smooth="yes"/>
      <point x="550" y="-40"/>
      <point x="570" y="-7"/>
    </contour>
  </outline>
</glyph>
<glyph name="aogonek" format="1">
  <advance width="633"/>
  <unicode hex="0105"/>
  <outline>
    <contour>
      <point x="84" y="73" type="line"/>
      <point x="63" y="28"/>
      <point x="31" y="10"/>
      <point x="3" y="10" type="curve" smooth="yes"/>
      <point x="3" y="10"/>
      <point x="-5" y="10"/>
      <point x="-5" y="10" type="curve"/>
      <point x="-5" y="0" type="line"/>
      <point x="186" y="0" type="line"/>
      <point x="186" y="10" type="line"/>
      <point x="178" y="10" type="line" smooth="yes"/>
      <point x="154" y="10"/>
      <point x="128" y="33"/>
      <point x="143" y="73" type="curve"/>
    </contour>
    <contour>
      <point x="327" y="614" type="line"/>
      <point x="325" y="588"/>
      <point x="288" y="511"/>
      <point x="288" y="511" type="curve"/>
      <point x="51" y="3" type="line"/>
      <point x="114" y="3" type="line"/>
      <point x="343" y="545" type="line"/>
      <point x="336" y="614" type="line"/>
    </contour>
    <contour>
      <point x="319" y="525" type="line"/>
      <point x="532" y="6" type="line"/>
      <point x="611" y="6" type="line"/>
      <point x="336" y="614" type="line"/>
    </contour>
    <contour>
      <point x="189" y="233" type="line"/>
      <point x="189" y="203" type="line"/>
      <point x="454" y="203" type="line"/>
      <point x="454" y="233" type="line"/>
    </contour>
    <contour>
      <point x="493" y="0" type="curve" smooth="yes"/>
      <point x="534" y="10"/>
      <point x="613" y="0"/>
      <point x="664" y="0" type="curve"/>
      <point x="664" y="10" type="line"/>
      <point x="632" y="10"/>
      <point x="602" y="25"/>
      <point x="581" y="73" type="curve"/>
      <point x="505" y="73" type="line"/>
      <point x="520" y="33"/>
      <point x="496" y="18"/>
      <point x="472" y="10" type="curve" smooth="yes"/>
      <point x="423" y="-7"/>
      <point x="395" y="-43"/>
      <point x="396" y="-82" type="curve" smooth="yes"/>
      <point x="397" y="-198"/>
      <point x="540" y="-201"/>
      <point x="570" y="-119" type="curve"/>
      <point x="564" y="-113" type="line"/>
      <point x="515" y="-164"/>
      <point x="444" y="-128"/>
      <point x="442" y="-71" type="curve" smooth="yes"/>
      <point x="441" y="-39"/>
      <point x="453" y="-10"/>
    </contour>
  </outline>
</glyph>
